<svg xmlns="http://www.w3.org/2000/svg" xmlns:xlink="http://www.w3.org/1999/xlink" x="0" y="0" width="662" height="471" style="
        width:662px;
        height:471px;
        background: #FFF;
        fill: none;
">
        <svg xmlns="http://www.w3.org/2000/svg"><g><defs><pattern id=".8321766770427197" width="60" height="60" patternUnits="userSpaceOnUse"><path d="M 60 0 L 0 0 0 60" fill="none" stroke="lightgray" stroke-width="0.5"/></pattern></defs><rect width="100%" height="100%" fill="url(#.8321766770427197)" stroke="lightgray" stroke-width="0.5"/></g></svg>
        
        <svg xmlns="http://www.w3.org/2000/svg" class="role-diagram-draw-area"><g class="shapes-region" style="stroke: black; fill: none;"><g class="composite-shape axis2d" style="stroke-width: 1; stroke: rgb(0, 0, 0);"><path class="real" d=" M8.4,360.72 L534.4,360.72 M61,18 L61,398.8"/><path d=" M527.4,355.72 L534.4,360.72 L527.4,365.72"/><path d=" M56,25 L61,18 L66,25"/><path d=" M121,355.72 L121,365.72 M181,355.72 L181,365.72 M241,355.72 L241,365.72 M301,355.72 L301,365.72 M361,355.72 L361,365.72 M421,355.72 L421,365.72 M481,355.72 L481,365.72 M56,300.72 L66,300.72 M56,240.72 L66,240.72 M56,180.72 L66,180.72 M56,120.72 L66,120.72 M56,60.72 L66,60.72"/><g style="fill: rgb(0, 0, 0); fill-opacity: 1; font-size: 11px; font-weight: normal; text-anchor: end; stroke: none; font-family: Times;"><text x="123.99999389648437" y="375.719995880127">1</text><text x="183.99999389648437" y="375.719995880127">2</text><text x="243.99999389648437" y="375.719995880127">3</text><text x="303.9999938964844" y="375.719995880127">4</text><text x="363.9999938964844" y="375.719995880127">5</text><text x="423.9999938964844" y="375.719995880127">6</text><text x="483.9999938964844" y="375.719995880127">7</text><text x="53.99999389648437" y="303.719995880127">1</text><text x="53.99999389648437" y="243.719995880127">2</text><text x="53.99999389648437" y="183.719995880127">3</text><text x="53.99999389648437" y="123.71999588012699">4</text><text x="53.99999389648437" y="63.71999588012699">5</text></g></g><g class="composite-shape"><path class="real" d=" M176,281.4 C176,278.31 178.51,275.8 181.6,275.8 C184.69,275.8 187.2,278.31 187.2,281.4 C187.2,284.49 184.69,287 181.6,287 C178.51,287 176,284.49 176,281.4 Z" style="stroke-width: 1; stroke: rgb(0, 0, 0); fill: rgb(74, 144, 226); fill-opacity: 1;"/></g><g class="composite-shape"><path class="real" d=" M236,155.4 C236,152.31 238.51,149.8 241.6,149.8 C244.69,149.8 247.2,152.31 247.2,155.4 C247.2,158.49 244.69,161 241.6,161 C238.51,161 236,158.49 236,155.4 Z" style="stroke-width: 1; stroke: rgb(0, 0, 0); fill: rgb(74, 144, 226); fill-opacity: 1;"/></g><g class="composite-shape"><path class="real" d=" M295,144.4 C295,141.31 297.51,138.8 300.6,138.8 C303.69,138.8 306.2,141.31 306.2,144.4 C306.2,147.49 303.69,150 300.6,150 C297.51,150 295,147.49 295,144.4 Z" style="stroke-width: 1; stroke: rgb(0, 0, 0); fill: rgb(74, 144, 226); fill-opacity: 1;"/></g><g class="composite-shape"><path class="real" d=" M355,179.4 C355,176.31 357.51,173.8 360.6,173.8 C363.69,173.8 366.2,176.31 366.2,179.4 C366.2,182.49 363.69,185 360.6,185 C357.51,185 355,182.49 355,179.4 Z" style="stroke-width: 1; stroke: rgb(0, 0, 0); fill: rgb(74, 144, 226); fill-opacity: 1;"/></g><g class="composite-shape"><path class="real" d=" M414,119.4 C414,116.31 416.51,113.8 419.6,113.8 C422.69,113.8 425.2,116.31 425.2,119.4 C425.2,122.49 422.69,125 419.6,125 C416.51,125 414,122.49 414,119.4 Z" style="stroke-width: 1; stroke: rgb(0, 0, 0); fill: rgb(74, 144, 226); fill-opacity: 1;"/></g><g class="composite-shape"><path class="real" d=" M475,61.4 C475,58.31 477.51,55.8 480.6,55.8 C483.69,55.8 486.2,58.31 486.2,61.4 C486.2,64.49 483.69,67 480.6,67 C477.51,67 475,64.49 475,61.4 Z" style="stroke-width: 1; stroke: rgb(0, 0, 0); fill: rgb(74, 144, 226); fill-opacity: 1;"/></g><g class="composite-shape"><path class="real" d=" M114,240.4 C114,237.31 116.51,234.8 119.6,234.8 C122.69,234.8 125.2,237.31 125.2,240.4 C125.2,243.49 122.69,246 119.6,246 C116.51,246 114,243.49 114,240.4 Z" style="stroke-width: 1; stroke: rgb(0, 0, 0); fill: rgb(74, 144, 226); fill-opacity: 1;"/></g><g class="arrow-line"><path class="connection real" stroke-dasharray="" d="  M37.4,315 L530.4,35" style="stroke: rgb(0, 0, 0); stroke-width: 1; fill: none; fill-opacity: 1;"/></g><g class="composite-shape"><path class="real" d=" M116.2,266.65 C117.22,264.58 119.73,263.73 121.8,264.75 C123.87,265.77 124.73,268.28 123.71,270.35 C122.69,272.42 120.18,273.27 118.11,272.25 C116.03,271.23 115.18,268.73 116.2,266.65 Z" style="stroke-width: 1; stroke: rgb(0, 0, 0); fill: rgb(208, 2, 27); fill-opacity: 1;"/></g><g class="composite-shape"><path class="real" d=" M178.2,231.65 C179.22,229.58 181.73,228.73 183.8,229.75 C185.87,230.77 186.73,233.28 185.71,235.35 C184.69,237.42 182.18,238.27 180.11,237.25 C178.03,236.23 177.18,233.73 178.2,231.65 Z" style="stroke-width: 1; stroke: rgb(0, 0, 0); fill: rgb(208, 2, 27); fill-opacity: 1;"/></g><g class="composite-shape"><path class="real" d=" M237.2,198.65 C238.22,196.58 240.73,195.73 242.8,196.75 C244.87,197.77 245.73,200.28 244.71,202.35 C243.69,204.42 241.18,205.27 239.11,204.25 C237.03,203.23 236.18,200.73 237.2,198.65 Z" style="stroke-width: 1; stroke: rgb(0, 0, 0); fill: rgb(208, 2, 27); fill-opacity: 1;"/></g><g class="composite-shape"><path class="real" d=" M296.2,164.65 C297.22,162.58 299.73,161.73 301.8,162.75 C303.87,163.77 304.73,166.28 303.71,168.35 C302.69,170.42 300.18,171.27 298.11,170.25 C296.03,169.23 295.18,166.73 296.2,164.65 Z" style="stroke-width: 1; stroke: rgb(0, 0, 0); fill: rgb(208, 2, 27); fill-opacity: 1;"/></g><g class="composite-shape"><path class="real" d=" M357.2,128.65 C358.22,126.58 360.73,125.73 362.8,126.75 C364.87,127.77 365.73,130.28 364.71,132.35 C363.69,134.42 361.18,135.27 359.11,134.25 C357.03,133.23 356.18,130.73 357.2,128.65 Z" style="stroke-width: 1; stroke: rgb(0, 0, 0); fill: rgb(208, 2, 27); fill-opacity: 1;"/></g><g class="composite-shape"><path class="real" d=" M416.2,96.65 C417.22,94.58 419.73,93.73 421.8,94.75 C423.87,95.77 424.73,98.28 423.71,100.35 C422.69,102.42 420.18,103.27 418.11,102.25 C416.03,101.23 415.18,98.73 416.2,96.65 Z" style="stroke-width: 1; stroke: rgb(0, 0, 0); fill: rgb(208, 2, 27); fill-opacity: 1;"/></g><g class="composite-shape"><path class="real" d=" M477.2,60.65 C478.22,58.58 480.73,57.73 482.8,58.75 C484.87,59.77 485.73,62.28 484.71,64.35 C483.69,66.42 481.18,67.27 479.11,66.25 C477.03,65.23 476.18,62.73 477.2,60.65 Z" style="stroke-width: 1; stroke: rgb(0, 0, 0); fill: rgb(208, 2, 27); fill-opacity: 1;"/></g><g class="arrow-line"><path class="connection real" stroke-dasharray="" d="  M181.8,229.75 L181.6,281.4" style="stroke: rgb(0, 0, 0); stroke-width: 1; fill: none; fill-opacity: 1;"/></g><g class="arrow-line"><path class="connection real" stroke-dasharray="" d="  M241.6,155.4 L241.6,200.5" style="stroke: rgb(0, 0, 0); stroke-width: 1; fill: none; fill-opacity: 1;"/></g><g class="arrow-line"><path class="connection real" stroke-dasharray="" d="  M119.6,240.4 L119.6,264.75" style="stroke: rgb(0, 0, 0); stroke-width: 1; fill: none; fill-opacity: 1;"/></g><g class="arrow-line"><path class="connection real" stroke-dasharray="" d="  M300.6,144.4 L300.6,168.75" style="stroke: rgb(0, 0, 0); stroke-width: 1; fill: none; fill-opacity: 1;"/></g><g class="arrow-line"><path class="connection real" stroke-dasharray="" d="  M360.95,130.5 L360.75,182.15" style="stroke: rgb(0, 0, 0); stroke-width: 1; fill: none; fill-opacity: 1;"/></g><g class="arrow-line"><path class="connection real" stroke-dasharray="" d="  M419.6,100.65 L419.6,125" style="stroke: rgb(0, 0, 0); stroke-width: 1; fill: none; fill-opacity: 1;"/></g><g/></g><g/><g/><g/></svg>
        <svg xmlns="http://www.w3.org/2000/svg" xmlns:xlink="http://www.w3.org/1999/xlink" width="660" height="469" style="width:660px;height:469px;font-family:LatinModern-Math, LatinModern, Asana-Math, Asana;background:#FFF;"><g><g><g><g transform="matrix(1,0,0,1,35,38.67999694824219)"><path transform="matrix(0.024480000000000002,0,0,-0.024480000000000002,0,0)" d="M415 282C415 373 362 442 282 442C236 442 195 413 165 382L239 683C239 683 239 694 226 694C203 694 130 686 104 684C96 683 85 682 85 664C85 652 94 652 109 652C157 652 159 645 159 635C159 628 150 594 145 573L63 247C51 197 47 181 47 146C47 51 100 -11 174 -11C292 -11 415 138 415 282ZM343 326C343 267 310 152 292 114C259 47 213 11 174 11C140 11 107 38 107 112C107 131 107 150 123 213L145 305C151 327 151 329 160 340C209 405 254 420 280 420C316 420 343 390 343 326Z" stroke="rgb(0,0,0)" stroke-opacity="1" stroke-width="8" fill="rgb(0,0,0)" fill-opacity="1"></path></g></g></g></g><g><g><g><g transform="matrix(1,0,0,1,521.0000305175781,397.68000457763674)"><path transform="matrix(0.024480000000000002,0,0,-0.024480000000000002,0,0)" d="M498 143C498 153 489 153 486 153C476 153 475 149 472 135C455 70 437 11 396 11C369 11 366 37 366 57C366 79 368 87 379 131L401 221L437 361C444 389 444 391 444 395C444 412 432 422 415 422C391 422 376 400 373 378C355 415 326 442 281 442C164 442 40 295 40 149C40 55 95 -11 173 -11C193 -11 243 -7 303 64C311 22 346 -11 394 -11C429 -11 452 12 468 44C485 80 498 143 498 143ZM361 332C361 326 359 320 358 315L308 119C303 101 303 99 288 82C244 27 203 11 175 11C125 11 111 66 111 105C111 155 143 278 166 324C197 383 242 420 282 420C347 420 361 338 361 332Z" stroke="rgb(0,0,0)" stroke-opacity="1" stroke-width="8" fill="rgb(0,0,0)" fill-opacity="1"></path></g></g></g></g></svg>
</svg>
