<svg xmlns="http://www.w3.org/2000/svg" xmlns:xlink="http://www.w3.org/1999/xlink" x="0" y="0" width="662" height="394" style="
        width:662px;
        height:394px;
        background: #FFF;
        fill: none;
">
        
        
        <svg xmlns="http://www.w3.org/2000/svg" class="role-diagram-draw-area"><g class="shapes-region" style="stroke: black; fill: none;"><g class="composite-shape"><path class="real" d=" M222.11,49.76 C222.28,31.89 237.38,17.54 255.84,17.71 C274.3,17.87 289.13,32.49 288.96,50.35 C288.79,68.21 273.69,82.56 255.23,82.4 C236.77,82.23 221.94,67.62 222.11,49.76 Z" style="stroke-width: 1; stroke: rgb(0, 0, 0); fill: none; fill-opacity: 1;"/></g><g class="composite-shape"><path class="real" d=" M224.67,208.08 C224.83,190.22 239.94,175.87 258.4,176.03 C276.86,176.2 291.69,190.81 291.52,208.68 C291.35,226.54 276.25,240.89 257.79,240.72 C239.33,240.56 224.5,225.95 224.67,208.08 Z" style="stroke-width: 1; stroke: rgb(0, 0, 0); fill: none; fill-opacity: 1;"/></g><g class="composite-shape"><path class="real" d=" M227.22,347.85 C227.39,329.99 242.49,315.64 260.95,315.81 C279.41,315.97 294.24,330.59 294.07,348.45 C293.91,366.31 278.8,380.66 260.34,380.5 C241.88,380.33 227.05,365.72 227.22,347.85 Z" style="stroke-width: 1; stroke: rgb(0, 0, 0); fill: none; fill-opacity: 1;"/></g><g class="composite-shape"><path class="real" d=" M24.01,142.52 C24.18,124.66 39.28,110.31 57.74,110.48 C76.2,110.64 91.03,125.26 90.86,143.12 C90.7,160.98 75.59,175.33 57.13,175.17 C38.67,175 23.84,160.39 24.01,142.52 Z" style="stroke-width: 1; stroke: rgb(0, 0, 0); fill: none; fill-opacity: 1;"/></g><g class="composite-shape"><path class="real" d=" M27.84,277.35 C28.01,259.49 43.12,245.14 61.58,245.3 C80.04,245.47 94.87,260.08 94.7,277.94 C94.53,295.81 79.43,310.16 60.97,309.99 C42.51,309.83 27.68,295.21 27.84,277.35 Z" style="stroke-width: 1; stroke: rgb(0, 0, 0); fill: none; fill-opacity: 1;"/></g><g class="arrow-line"><path class="connection real" stroke-dasharray="" d="  M90.86,143.12 L222.11,49.76" style="stroke: rgb(0, 0, 0); stroke-width: 1; fill: none; fill-opacity: 1;"/></g><g class="arrow-line"><path class="connection real" stroke-dasharray="" d="  M90.86,143.12 L224.67,208.09" style="stroke: rgb(0, 0, 0); stroke-width: 1; fill: none; fill-opacity: 1;"/></g><g class="arrow-line"><path class="connection real" stroke-dasharray="" d="  M90.86,143.12 L227.22,347.86" style="stroke: rgb(0, 0, 0); stroke-width: 1; fill: none; fill-opacity: 1;"/></g><g class="composite-shape"><path class="real" d=" M383.14,178.4 C383.31,160.53 398.41,146.18 416.88,146.35 C435.34,146.51 450.17,161.13 450,178.99 C449.83,196.85 434.73,211.2 416.27,211.04 C397.8,210.87 382.98,196.26 383.14,178.4 Z" style="stroke-width: 1; stroke: rgb(0, 0, 0); fill: none; fill-opacity: 1;"/></g><g class="arrow-line"><path class="connection real" stroke-dasharray="" d="  M288.96,50.35 L383.15,178.4" style="stroke: rgb(0, 0, 0); stroke-width: 1; fill: none; fill-opacity: 1;"/></g><g class="arrow-line"><path class="connection real" stroke-dasharray="" d="  M291.52,208.67 L383.15,178.4" style="stroke: rgb(0, 0, 0); stroke-width: 1; fill: none; fill-opacity: 1;"/></g><g class="arrow-line"><path class="connection real" stroke-dasharray="" d="  M294.07,348.45 L383.15,178.4" style="stroke: rgb(0, 0, 0); stroke-width: 1; fill: none; fill-opacity: 1;"/></g><g class="arrow-line"><path class="connection real" stroke-dasharray="" d="  M94.7,277.94 L222.11,49.76" style="stroke: rgb(0, 0, 0); stroke-opacity: 0.15; stroke-width: 1; fill: none; fill-opacity: 1;"/></g><g class="arrow-line"><path class="connection real" stroke-dasharray="" d="  M94.7,277.94 L227.22,347.86" style="stroke: rgb(0, 0, 0); stroke-opacity: 0.15; stroke-width: 1; fill: none; fill-opacity: 1;"/></g><g class="arrow-line"><path class="connection real" stroke-dasharray="" d="  M94.7,277.94 L224.67,208.09" style="stroke: rgb(0, 0, 0); stroke-opacity: 0.15; stroke-width: 1; fill: none; fill-opacity: 1;"/></g><g/></g><g/><g/><g/></svg>
        <svg xmlns="http://www.w3.org/2000/svg" xmlns:xlink="http://www.w3.org/1999/xlink" width="660" height="392" style="width:660px;height:392px;font-family:LatinModern-Math, LatinModern, Asana-Math, Asana;background:#FFF;"><g><g><g><g transform="matrix(1,0,0,1,249,52.333343505859375)"><path transform="matrix(0.017,0,0,-0.017,0,0)" d="M430 107C430 113 424 120 418 120C413 120 411 118 405 110C326 11 217 11 205 11C127 11 118 95 118 127C118 139 119 170 134 231L187 231C216 231 290 233 340 254C410 284 415 343 415 357C415 401 377 442 308 442C197 442 46 345 46 170C46 68 105 -11 203 -11C346 -11 430 95 430 107ZM382 357C382 253 222 253 181 253L140 253C179 405 282 420 308 420C355 420 382 391 382 357Z" stroke="rgb(0,0,0)" stroke-opacity="1" stroke-width="8" fill="rgb(0,0,0)" fill-opacity="1"></path></g></g><g><g><g><g><g transform="matrix(1,0,0,1,257.4271240234375,56.004171752929686)"><path transform="matrix(0.0119,0,0,-0.0119,0,0)" d="M419 0L419 31L387 31C297 31 294 42 294 79L294 640C294 664 294 666 271 666C209 602 121 602 89 602L89 571C109 571 168 571 220 597L220 79C220 43 217 31 127 31L95 31L95 0C130 3 217 3 257 3C297 3 384 3 419 0Z" stroke="rgb(0,0,0)" stroke-opacity="1" stroke-width="8" fill="rgb(0,0,0)" fill-opacity="1"></path></g></g></g></g></g></g></g><g><g><g><g transform="matrix(1,0,0,1,250.4375,213.05209350585938)"><path transform="matrix(0.017,0,0,-0.017,0,0)" d="M430 107C430 113 424 120 418 120C413 120 411 118 405 110C326 11 217 11 205 11C127 11 118 95 118 127C118 139 119 170 134 231L187 231C216 231 290 233 340 254C410 284 415 343 415 357C415 401 377 442 308 442C197 442 46 345 46 170C46 68 105 -11 203 -11C346 -11 430 95 430 107ZM382 357C382 253 222 253 181 253L140 253C179 405 282 420 308 420C355 420 382 391 382 357Z" stroke="rgb(0,0,0)" stroke-opacity="1" stroke-width="8" fill="rgb(0,0,0)" fill-opacity="1"></path></g></g><g><g><g><g><g transform="matrix(1,0,0,1,258.8646240234375,216.72293701171876)"><path transform="matrix(0.0119,0,0,-0.0119,0,0)" d="M449 174L424 174C419 144 412 100 402 85C395 77 329 77 307 77L127 77L233 180C389 318 449 372 449 472C449 586 359 666 237 666C124 666 50 574 50 485C50 429 100 429 103 429C120 429 155 441 155 482C155 508 137 534 102 534C94 534 92 534 89 533C112 598 166 635 224 635C315 635 358 554 358 472C358 392 308 313 253 251L61 37C50 26 50 24 50 0L421 0Z" stroke="rgb(0,0,0)" stroke-opacity="1" stroke-width="8" fill="rgb(0,0,0)" fill-opacity="1"></path></g></g></g></g></g></g></g><g><g><g><g transform="matrix(1,0,0,1,254.9896240234375,350.0625)"><path transform="matrix(0.017,0,0,-0.017,0,0)" d="M430 107C430 113 424 120 418 120C413 120 411 118 405 110C326 11 217 11 205 11C127 11 118 95 118 127C118 139 119 170 134 231L187 231C216 231 290 233 340 254C410 284 415 343 415 357C415 401 377 442 308 442C197 442 46 345 46 170C46 68 105 -11 203 -11C346 -11 430 95 430 107ZM382 357C382 253 222 253 181 253L140 253C179 405 282 420 308 420C355 420 382 391 382 357Z" stroke="rgb(0,0,0)" stroke-opacity="1" stroke-width="8" fill="rgb(0,0,0)" fill-opacity="1"></path></g></g><g><g><g><g><g transform="matrix(1,0,0,1,263.41668701171875,353.7333740234375)"><path transform="matrix(0.0119,0,0,-0.0119,0,0)" d="M457 171C457 253 394 331 290 352C372 379 430 449 430 528C430 610 342 666 246 666C145 666 69 606 69 530C69 497 91 478 120 478C151 478 171 500 171 529C171 579 124 579 109 579C140 628 206 641 242 641C283 641 338 619 338 529C338 517 336 459 310 415C280 367 246 364 221 363C213 362 189 360 182 360C174 359 167 358 167 348C167 337 174 337 191 337L235 337C317 337 354 269 354 171C354 35 285 6 241 6C198 6 123 23 88 82C123 77 154 99 154 137C154 173 127 193 98 193C74 193 42 179 42 135C42 44 135 -22 244 -22C366 -22 457 69 457 171Z" stroke="rgb(0,0,0)" stroke-opacity="1" stroke-width="8" fill="rgb(0,0,0)" fill-opacity="1"></path></g></g></g></g></g></g></g><g><g><g><g transform="matrix(1,0,0,1,51.91668701171875,147.20834350585938)"><path transform="matrix(0.017,0,0,-0.017,0,0)" d="M455 500C455 566 437 705 335 705C196 705 42 423 42 194C42 100 71 -11 162 -11C303 -11 455 276 455 500ZM389 562C389 513 381 462 357 363L148 363C165 427 185 507 225 578C252 627 289 683 334 683C383 683 389 619 389 562ZM348 331C337 285 316 200 278 128C243 60 205 11 162 11C129 11 108 40 108 133C108 175 114 233 140 331Z" stroke="rgb(0,0,0)" stroke-opacity="1" stroke-width="8" fill="rgb(0,0,0)" fill-opacity="1"></path></g></g><g><g><g><g><g transform="matrix(1,0,0,1,60.395843505859375,150.87918701171876)"><path transform="matrix(0.0119,0,0,-0.0119,0,0)" d="M419 0L419 31L387 31C297 31 294 42 294 79L294 640C294 664 294 666 271 666C209 602 121 602 89 602L89 571C109 571 168 571 220 597L220 79C220 43 217 31 127 31L95 31L95 0C130 3 217 3 257 3C297 3 384 3 419 0Z" stroke="rgb(0,0,0)" stroke-opacity="1" stroke-width="8" fill="rgb(0,0,0)" fill-opacity="1"></path></g></g></g></g></g></g></g><g><g><g><g transform="matrix(1,0,0,1,54.03125,280.8020935058594)"><path transform="matrix(0.017,0,0,-0.017,0,0)" d="M455 500C455 566 437 705 335 705C196 705 42 423 42 194C42 100 71 -11 162 -11C303 -11 455 276 455 500ZM389 562C389 513 381 462 357 363L148 363C165 427 185 507 225 578C252 627 289 683 334 683C383 683 389 619 389 562ZM348 331C337 285 316 200 278 128C243 60 205 11 162 11C129 11 108 40 108 133C108 175 114 233 140 331Z" stroke="rgb(0,0,0)" stroke-opacity="1" stroke-width="8" fill="rgb(0,0,0)" fill-opacity="1"></path></g></g><g><g><g><g><g transform="matrix(1,0,0,1,62.51043701171875,284.4729370117187)"><path transform="matrix(0.0119,0,0,-0.0119,0,0)" d="M449 174L424 174C419 144 412 100 402 85C395 77 329 77 307 77L127 77L233 180C389 318 449 372 449 472C449 586 359 666 237 666C124 666 50 574 50 485C50 429 100 429 103 429C120 429 155 441 155 482C155 508 137 534 102 534C94 534 92 534 89 533C112 598 166 635 224 635C315 635 358 554 358 472C358 392 308 313 253 251L61 37C50 26 50 24 50 0L421 0Z" stroke="rgb(0,0,0)" stroke-opacity="1" stroke-width="8" fill="rgb(0,0,0)" fill-opacity="1"></path></g></g></g></g></g></g></g><g><g><g><g transform="matrix(1,0,0,1,408,182.33334350585938)"><path transform="matrix(0.017,0,0,-0.017,0,0)" d="M643 247C643 251 640 258 631 258C622 258 621 253 614 237C580 145 536 31 363 31L269 31C255 31 253 31 247 32C237 33 234 34 234 42C234 45 234 47 239 65L374 605C383 641 386 652 480 652C510 652 518 652 518 671C518 683 507 683 502 683L354 680L221 683C214 683 202 683 202 663C202 652 211 652 230 652C230 652 251 652 268 650C286 648 295 647 295 634C295 630 294 627 291 615L157 78C147 39 145 31 66 31C49 31 39 31 39 11C39 0 48 0 66 0L529 0C553 0 554 0 560 17L639 233C643 244 643 247 643 247Z" stroke="rgb(0,0,0)" stroke-opacity="1" stroke-width="8" fill="rgb(0,0,0)" fill-opacity="1"></path></g></g></g></g><g><g><g><g><g><g><g transform="matrix(1,0,0,1,350.53125,94.50834350585937)"><path transform="matrix(0.015300000000000001,0,0,-0.015300000000000001,0,0)" d="M515 457C475 616 357 716 234 716C89 716 76 586 83 558C86 544 99 523 129 523C162 523 176 553 170 576C161 611 130 611 114 611C140 685 209 691 238 691C311 691 394 639 427 510C436 471 443 420 441 339C416 401 361 457 283 457C222 457 161 441 102 363C40 280 56 187 64 156C80 94 152 -22 292 -22C530 -22 551 314 515 457ZM432 303C450 231 443 6 289 6C179 6 153 109 150 119C144 146 134 286 160 346C185 403 226 435 288 435C397 435 427 323 432 303ZM1229 247C1229 251 1226 258 1217 258C1208 258 1207 253 1200 237C1166 145 1122 31 949 31L855 31C841 31 839 31 833 32C823 33 820 34 820 42C820 45 820 47 825 65L960 605C969 641 972 652 1066 652C1096 652 1104 652 1104 671C1104 683 1093 683 1088 683L940 680L807 683C800 683 788 683 788 663C788 652 797 652 816 652C816 652 837 652 854 650C872 648 881 647 881 634C881 630 880 627 877 615L743 78C733 39 731 31 652 31C635 31 625 31 625 11C625 0 634 0 652 0L1115 0C1139 0 1140 0 1146 17L1225 233C1229 244 1229 247 1229 247Z" stroke="rgb(0,0,0)" stroke-opacity="1" stroke-width="8" fill="rgb(0,0,0)" fill-opacity="1"></path></g></g></g></g><g><g><g><g transform="matrix(1,0,0,1,348.8125,117.21668701171875)"><path transform="matrix(0.015300000000000001,0,0,-0.015300000000000001,0,0)" d="M515 457C475 616 357 716 234 716C89 716 76 586 83 558C86 544 99 523 129 523C162 523 176 553 170 576C161 611 130 611 114 611C140 685 209 691 238 691C311 691 394 639 427 510C436 471 443 420 441 339C416 401 361 457 283 457C222 457 161 441 102 363C40 280 56 187 64 156C80 94 152 -22 292 -22C530 -22 551 314 515 457ZM432 303C450 231 443 6 289 6C179 6 153 109 150 119C144 146 134 286 160 346C185 403 226 435 288 435C397 435 427 323 432 303ZM1016 107C1016 113 1010 120 1004 120C999 120 997 118 991 110C912 11 803 11 791 11C713 11 704 95 704 127C704 139 705 170 720 231L773 231C802 231 876 233 926 254C996 284 1001 343 1001 357C1001 401 963 442 894 442C783 442 632 345 632 170C632 68 691 -11 789 -11C932 -11 1016 95 1016 107ZM968 357C968 253 808 253 767 253L726 253C765 405 868 420 894 420C941 420 968 391 968 357Z" stroke="rgb(0,0,0)" stroke-opacity="1" stroke-width="8" fill="rgb(0,0,0)" fill-opacity="1"></path></g></g><g><g><g><g><g transform="matrix(1,0,0,1,365.3646240234375,120.58500000000001)"><path transform="matrix(0.01071,0,0,-0.01071,0,0)" d="M419 0L419 31L387 31C297 31 294 42 294 79L294 640C294 664 294 666 271 666C209 602 121 602 89 602L89 571C109 571 168 571 220 597L220 79C220 43 217 31 127 31L95 31L95 0C130 3 217 3 257 3C297 3 384 3 419 0Z" stroke="rgb(0,0,0)" stroke-opacity="1" stroke-width="8" fill="rgb(0,0,0)" fill-opacity="1"></path></g></g></g></g></g></g></g><line style="fill:none;stroke-width:1px;stroke:rgb(0, 0, 0);" x1="348.8125" y1="101.07293701171875" x2="371.6354179382324" y2="101.07293701171875"></line></g></g></g><g><g><g><g><g><g><g transform="matrix(1,0,0,1,308.1875,166.6645935058594)"><path transform="matrix(0.015300000000000001,0,0,-0.015300000000000001,0,0)" d="M515 457C475 616 357 716 234 716C89 716 76 586 83 558C86 544 99 523 129 523C162 523 176 553 170 576C161 611 130 611 114 611C140 685 209 691 238 691C311 691 394 639 427 510C436 471 443 420 441 339C416 401 361 457 283 457C222 457 161 441 102 363C40 280 56 187 64 156C80 94 152 -22 292 -22C530 -22 551 314 515 457ZM432 303C450 231 443 6 289 6C179 6 153 109 150 119C144 146 134 286 160 346C185 403 226 435 288 435C397 435 427 323 432 303ZM1229 247C1229 251 1226 258 1217 258C1208 258 1207 253 1200 237C1166 145 1122 31 949 31L855 31C841 31 839 31 833 32C823 33 820 34 820 42C820 45 820 47 825 65L960 605C969 641 972 652 1066 652C1096 652 1104 652 1104 671C1104 683 1093 683 1088 683L940 680L807 683C800 683 788 683 788 663C788 652 797 652 816 652C816 652 837 652 854 650C872 648 881 647 881 634C881 630 880 627 877 615L743 78C733 39 731 31 652 31C635 31 625 31 625 11C625 0 634 0 652 0L1115 0C1139 0 1140 0 1146 17L1225 233C1229 244 1229 247 1229 247Z" stroke="rgb(0,0,0)" stroke-opacity="1" stroke-width="8" fill="rgb(0,0,0)" fill-opacity="1"></path></g></g></g></g><g><g><g><g transform="matrix(1,0,0,1,306.46875,189.37293701171876)"><path transform="matrix(0.015300000000000001,0,0,-0.015300000000000001,0,0)" d="M515 457C475 616 357 716 234 716C89 716 76 586 83 558C86 544 99 523 129 523C162 523 176 553 170 576C161 611 130 611 114 611C140 685 209 691 238 691C311 691 394 639 427 510C436 471 443 420 441 339C416 401 361 457 283 457C222 457 161 441 102 363C40 280 56 187 64 156C80 94 152 -22 292 -22C530 -22 551 314 515 457ZM432 303C450 231 443 6 289 6C179 6 153 109 150 119C144 146 134 286 160 346C185 403 226 435 288 435C397 435 427 323 432 303ZM1016 107C1016 113 1010 120 1004 120C999 120 997 118 991 110C912 11 803 11 791 11C713 11 704 95 704 127C704 139 705 170 720 231L773 231C802 231 876 233 926 254C996 284 1001 343 1001 357C1001 401 963 442 894 442C783 442 632 345 632 170C632 68 691 -11 789 -11C932 -11 1016 95 1016 107ZM968 357C968 253 808 253 767 253L726 253C765 405 868 420 894 420C941 420 968 391 968 357Z" stroke="rgb(0,0,0)" stroke-opacity="1" stroke-width="8" fill="rgb(0,0,0)" fill-opacity="1"></path></g></g><g><g><g><g><g transform="matrix(1,0,0,1,323.0208740234375,192.74125)"><path transform="matrix(0.01071,0,0,-0.01071,0,0)" d="M449 174L424 174C419 144 412 100 402 85C395 77 329 77 307 77L127 77L233 180C389 318 449 372 449 472C449 586 359 666 237 666C124 666 50 574 50 485C50 429 100 429 103 429C120 429 155 441 155 482C155 508 137 534 102 534C94 534 92 534 89 533C112 598 166 635 224 635C315 635 358 554 358 472C358 392 308 313 253 251L61 37C50 26 50 24 50 0L421 0Z" stroke="rgb(0,0,0)" stroke-opacity="1" stroke-width="8" fill="rgb(0,0,0)" fill-opacity="1"></path></g></g></g></g></g></g></g><line style="fill:none;stroke-width:1px;stroke:rgb(0, 0, 0);" x1="306.46875" y1="173.22918701171875" x2="329.2916679382324" y2="173.22918701171875"></line></g></g></g><g><g><g><g><g><g><g transform="matrix(1,0,0,1,344.84375,279.05)"><path transform="matrix(0.015300000000000001,0,0,-0.015300000000000001,0,0)" d="M515 457C475 616 357 716 234 716C89 716 76 586 83 558C86 544 99 523 129 523C162 523 176 553 170 576C161 611 130 611 114 611C140 685 209 691 238 691C311 691 394 639 427 510C436 471 443 420 441 339C416 401 361 457 283 457C222 457 161 441 102 363C40 280 56 187 64 156C80 94 152 -22 292 -22C530 -22 551 314 515 457ZM432 303C450 231 443 6 289 6C179 6 153 109 150 119C144 146 134 286 160 346C185 403 226 435 288 435C397 435 427 323 432 303ZM1229 247C1229 251 1226 258 1217 258C1208 258 1207 253 1200 237C1166 145 1122 31 949 31L855 31C841 31 839 31 833 32C823 33 820 34 820 42C820 45 820 47 825 65L960 605C969 641 972 652 1066 652C1096 652 1104 652 1104 671C1104 683 1093 683 1088 683L940 680L807 683C800 683 788 683 788 663C788 652 797 652 816 652C816 652 837 652 854 650C872 648 881 647 881 634C881 630 880 627 877 615L743 78C733 39 731 31 652 31C635 31 625 31 625 11C625 0 634 0 652 0L1115 0C1139 0 1140 0 1146 17L1225 233C1229 244 1229 247 1229 247Z" stroke="rgb(0,0,0)" stroke-opacity="1" stroke-width="8" fill="rgb(0,0,0)" fill-opacity="1"></path></g></g></g></g><g><g><g><g transform="matrix(1,0,0,1,343.125,301.7583435058594)"><path transform="matrix(0.015300000000000001,0,0,-0.015300000000000001,0,0)" d="M515 457C475 616 357 716 234 716C89 716 76 586 83 558C86 544 99 523 129 523C162 523 176 553 170 576C161 611 130 611 114 611C140 685 209 691 238 691C311 691 394 639 427 510C436 471 443 420 441 339C416 401 361 457 283 457C222 457 161 441 102 363C40 280 56 187 64 156C80 94 152 -22 292 -22C530 -22 551 314 515 457ZM432 303C450 231 443 6 289 6C179 6 153 109 150 119C144 146 134 286 160 346C185 403 226 435 288 435C397 435 427 323 432 303ZM1016 107C1016 113 1010 120 1004 120C999 120 997 118 991 110C912 11 803 11 791 11C713 11 704 95 704 127C704 139 705 170 720 231L773 231C802 231 876 233 926 254C996 284 1001 343 1001 357C1001 401 963 442 894 442C783 442 632 345 632 170C632 68 691 -11 789 -11C932 -11 1016 95 1016 107ZM968 357C968 253 808 253 767 253L726 253C765 405 868 420 894 420C941 420 968 391 968 357Z" stroke="rgb(0,0,0)" stroke-opacity="1" stroke-width="8" fill="rgb(0,0,0)" fill-opacity="1"></path></g></g><g><g><g><g><g transform="matrix(1,0,0,1,359.6771240234375,305.12668701171873)"><path transform="matrix(0.01071,0,0,-0.01071,0,0)" d="M457 171C457 253 394 331 290 352C372 379 430 449 430 528C430 610 342 666 246 666C145 666 69 606 69 530C69 497 91 478 120 478C151 478 171 500 171 529C171 579 124 579 109 579C140 628 206 641 242 641C283 641 338 619 338 529C338 517 336 459 310 415C280 367 246 364 221 363C213 362 189 360 182 360C174 359 167 358 167 348C167 337 174 337 191 337L235 337C317 337 354 269 354 171C354 35 285 6 241 6C198 6 123 23 88 82C123 77 154 99 154 137C154 173 127 193 98 193C74 193 42 179 42 135C42 44 135 -22 244 -22C366 -22 457 69 457 171Z" stroke="rgb(0,0,0)" stroke-opacity="1" stroke-width="8" fill="rgb(0,0,0)" fill-opacity="1"></path></g></g></g></g></g></g></g><line style="fill:none;stroke-width:1px;stroke:rgb(0, 0, 0);" x1="343.125" y1="285.6145935058594" x2="365.9479179382324" y2="285.6145935058594"></line></g></g></g><g><g><g><g><g><g><g transform="matrix(1,0,0,1,124.5625,69.66459350585937)"><path transform="matrix(0.015300000000000001,0,0,-0.015300000000000001,0,0)" d="M515 457C475 616 357 716 234 716C89 716 76 586 83 558C86 544 99 523 129 523C162 523 176 553 170 576C161 611 130 611 114 611C140 685 209 691 238 691C311 691 394 639 427 510C436 471 443 420 441 339C416 401 361 457 283 457C222 457 161 441 102 363C40 280 56 187 64 156C80 94 152 -22 292 -22C530 -22 551 314 515 457ZM432 303C450 231 443 6 289 6C179 6 153 109 150 119C144 146 134 286 160 346C185 403 226 435 288 435C397 435 427 323 432 303ZM1016 107C1016 113 1010 120 1004 120C999 120 997 118 991 110C912 11 803 11 791 11C713 11 704 95 704 127C704 139 705 170 720 231L773 231C802 231 876 233 926 254C996 284 1001 343 1001 357C1001 401 963 442 894 442C783 442 632 345 632 170C632 68 691 -11 789 -11C932 -11 1016 95 1016 107ZM968 357C968 253 808 253 767 253L726 253C765 405 868 420 894 420C941 420 968 391 968 357Z" stroke="rgb(0,0,0)" stroke-opacity="1" stroke-width="8" fill="rgb(0,0,0)" fill-opacity="1"></path></g></g><g><g><g><g><g transform="matrix(1,0,0,1,141.1146240234375,73.0329217529297)"><path transform="matrix(0.01071,0,0,-0.01071,0,0)" d="M419 0L419 31L387 31C297 31 294 42 294 79L294 640C294 664 294 666 271 666C209 602 121 602 89 602L89 571C109 571 168 571 220 597L220 79C220 43 217 31 127 31L95 31L95 0C130 3 217 3 257 3C297 3 384 3 419 0Z" stroke="rgb(0,0,0)" stroke-opacity="1" stroke-width="8" fill="rgb(0,0,0)" fill-opacity="1"></path></g></g></g></g></g></g></g><g><g><g><g transform="matrix(1,0,0,1,124.54168701171875,94.15418701171875)"><path transform="matrix(0.015300000000000001,0,0,-0.015300000000000001,0,0)" d="M515 457C475 616 357 716 234 716C89 716 76 586 83 558C86 544 99 523 129 523C162 523 176 553 170 576C161 611 130 611 114 611C140 685 209 691 238 691C311 691 394 639 427 510C436 471 443 420 441 339C416 401 361 457 283 457C222 457 161 441 102 363C40 280 56 187 64 156C80 94 152 -22 292 -22C530 -22 551 314 515 457ZM432 303C450 231 443 6 289 6C179 6 153 109 150 119C144 146 134 286 160 346C185 403 226 435 288 435C397 435 427 323 432 303ZM1041 500C1041 566 1023 705 921 705C782 705 628 423 628 194C628 100 657 -11 748 -11C889 -11 1041 276 1041 500ZM975 562C975 513 967 462 943 363L734 363C751 427 771 507 811 578C838 627 875 683 920 683C969 683 975 619 975 562ZM934 331C923 285 902 200 864 128C829 60 791 11 748 11C715 11 694 40 694 133C694 175 700 233 726 331Z" stroke="rgb(0,0,0)" stroke-opacity="1" stroke-width="8" fill="rgb(0,0,0)" fill-opacity="1"></path></g></g><g><g><g><g><g transform="matrix(1,0,0,1,141.13543701171875,97.52250000000001)"><path transform="matrix(0.01071,0,0,-0.01071,0,0)" d="M419 0L419 31L387 31C297 31 294 42 294 79L294 640C294 664 294 666 271 666C209 602 121 602 89 602L89 571C109 571 168 571 220 597L220 79C220 43 217 31 127 31L95 31L95 0C130 3 217 3 257 3C297 3 384 3 419 0Z" stroke="rgb(0,0,0)" stroke-opacity="1" stroke-width="8" fill="rgb(0,0,0)" fill-opacity="1"></path></g></g></g></g></g></g></g><line style="fill:none;stroke-width:1px;stroke:rgb(0, 0, 0);" x1="124.54168701171875" y1="78.01043701171875" x2="147.40627098083496" y2="78.01043701171875"></line></g></g></g><g><g><g><g><g><g><g transform="matrix(1,0,0,1,186.79168701171875,163.0083435058594)"><path transform="matrix(0.015300000000000001,0,0,-0.015300000000000001,0,0)" d="M515 457C475 616 357 716 234 716C89 716 76 586 83 558C86 544 99 523 129 523C162 523 176 553 170 576C161 611 130 611 114 611C140 685 209 691 238 691C311 691 394 639 427 510C436 471 443 420 441 339C416 401 361 457 283 457C222 457 161 441 102 363C40 280 56 187 64 156C80 94 152 -22 292 -22C530 -22 551 314 515 457ZM432 303C450 231 443 6 289 6C179 6 153 109 150 119C144 146 134 286 160 346C185 403 226 435 288 435C397 435 427 323 432 303ZM1016 107C1016 113 1010 120 1004 120C999 120 997 118 991 110C912 11 803 11 791 11C713 11 704 95 704 127C704 139 705 170 720 231L773 231C802 231 876 233 926 254C996 284 1001 343 1001 357C1001 401 963 442 894 442C783 442 632 345 632 170C632 68 691 -11 789 -11C932 -11 1016 95 1016 107ZM968 357C968 253 808 253 767 253L726 253C765 405 868 420 894 420C941 420 968 391 968 357Z" stroke="rgb(0,0,0)" stroke-opacity="1" stroke-width="8" fill="rgb(0,0,0)" fill-opacity="1"></path></g></g><g><g><g><g><g transform="matrix(1,0,0,1,203.34375,166.37668701171876)"><path transform="matrix(0.01071,0,0,-0.01071,0,0)" d="M449 174L424 174C419 144 412 100 402 85C395 77 329 77 307 77L127 77L233 180C389 318 449 372 449 472C449 586 359 666 237 666C124 666 50 574 50 485C50 429 100 429 103 429C120 429 155 441 155 482C155 508 137 534 102 534C94 534 92 534 89 533C112 598 166 635 224 635C315 635 358 554 358 472C358 392 308 313 253 251L61 37C50 26 50 24 50 0L421 0Z" stroke="rgb(0,0,0)" stroke-opacity="1" stroke-width="8" fill="rgb(0,0,0)" fill-opacity="1"></path></g></g></g></g></g></g></g><g><g><g><g transform="matrix(1,0,0,1,186.7708740234375,187.49793701171876)"><path transform="matrix(0.015300000000000001,0,0,-0.015300000000000001,0,0)" d="M515 457C475 616 357 716 234 716C89 716 76 586 83 558C86 544 99 523 129 523C162 523 176 553 170 576C161 611 130 611 114 611C140 685 209 691 238 691C311 691 394 639 427 510C436 471 443 420 441 339C416 401 361 457 283 457C222 457 161 441 102 363C40 280 56 187 64 156C80 94 152 -22 292 -22C530 -22 551 314 515 457ZM432 303C450 231 443 6 289 6C179 6 153 109 150 119C144 146 134 286 160 346C185 403 226 435 288 435C397 435 427 323 432 303ZM1041 500C1041 566 1023 705 921 705C782 705 628 423 628 194C628 100 657 -11 748 -11C889 -11 1041 276 1041 500ZM975 562C975 513 967 462 943 363L734 363C751 427 771 507 811 578C838 627 875 683 920 683C969 683 975 619 975 562ZM934 331C923 285 902 200 864 128C829 60 791 11 748 11C715 11 694 40 694 133C694 175 700 233 726 331Z" stroke="rgb(0,0,0)" stroke-opacity="1" stroke-width="8" fill="rgb(0,0,0)" fill-opacity="1"></path></g></g><g><g><g><g><g transform="matrix(1,0,0,1,203.3646240234375,190.86625)"><path transform="matrix(0.01071,0,0,-0.01071,0,0)" d="M419 0L419 31L387 31C297 31 294 42 294 79L294 640C294 664 294 666 271 666C209 602 121 602 89 602L89 571C109 571 168 571 220 597L220 79C220 43 217 31 127 31L95 31L95 0C130 3 217 3 257 3C297 3 384 3 419 0Z" stroke="rgb(0,0,0)" stroke-opacity="1" stroke-width="8" fill="rgb(0,0,0)" fill-opacity="1"></path></g></g></g></g></g></g></g><line style="fill:none;stroke-width:1px;stroke:rgb(0, 0, 0);" x1="186.7708740234375" y1="171.35418701171875" x2="209.6354579925537" y2="171.35418701171875"></line></g></g></g><g><g><g><g><g><g><g transform="matrix(1,0,0,1,157.3646240234375,289.8520935058594)"><path transform="matrix(0.015300000000000001,0,0,-0.015300000000000001,0,0)" d="M515 457C475 616 357 716 234 716C89 716 76 586 83 558C86 544 99 523 129 523C162 523 176 553 170 576C161 611 130 611 114 611C140 685 209 691 238 691C311 691 394 639 427 510C436 471 443 420 441 339C416 401 361 457 283 457C222 457 161 441 102 363C40 280 56 187 64 156C80 94 152 -22 292 -22C530 -22 551 314 515 457ZM432 303C450 231 443 6 289 6C179 6 153 109 150 119C144 146 134 286 160 346C185 403 226 435 288 435C397 435 427 323 432 303ZM1016 107C1016 113 1010 120 1004 120C999 120 997 118 991 110C912 11 803 11 791 11C713 11 704 95 704 127C704 139 705 170 720 231L773 231C802 231 876 233 926 254C996 284 1001 343 1001 357C1001 401 963 442 894 442C783 442 632 345 632 170C632 68 691 -11 789 -11C932 -11 1016 95 1016 107ZM968 357C968 253 808 253 767 253L726 253C765 405 868 420 894 420C941 420 968 391 968 357Z" stroke="rgb(0,0,0)" stroke-opacity="1" stroke-width="8" fill="rgb(0,0,0)" fill-opacity="1"></path></g></g><g><g><g><g><g transform="matrix(1,0,0,1,173.91668701171875,293.22043701171873)"><path transform="matrix(0.01071,0,0,-0.01071,0,0)" d="M457 171C457 253 394 331 290 352C372 379 430 449 430 528C430 610 342 666 246 666C145 666 69 606 69 530C69 497 91 478 120 478C151 478 171 500 171 529C171 579 124 579 109 579C140 628 206 641 242 641C283 641 338 619 338 529C338 517 336 459 310 415C280 367 246 364 221 363C213 362 189 360 182 360C174 359 167 358 167 348C167 337 174 337 191 337L235 337C317 337 354 269 354 171C354 35 285 6 241 6C198 6 123 23 88 82C123 77 154 99 154 137C154 173 127 193 98 193C74 193 42 179 42 135C42 44 135 -22 244 -22C366 -22 457 69 457 171Z" stroke="rgb(0,0,0)" stroke-opacity="1" stroke-width="8" fill="rgb(0,0,0)" fill-opacity="1"></path></g></g></g></g></g></g></g><g><g><g><g transform="matrix(1,0,0,1,157.34375,314.34168701171876)"><path transform="matrix(0.015300000000000001,0,0,-0.015300000000000001,0,0)" d="M515 457C475 616 357 716 234 716C89 716 76 586 83 558C86 544 99 523 129 523C162 523 176 553 170 576C161 611 130 611 114 611C140 685 209 691 238 691C311 691 394 639 427 510C436 471 443 420 441 339C416 401 361 457 283 457C222 457 161 441 102 363C40 280 56 187 64 156C80 94 152 -22 292 -22C530 -22 551 314 515 457ZM432 303C450 231 443 6 289 6C179 6 153 109 150 119C144 146 134 286 160 346C185 403 226 435 288 435C397 435 427 323 432 303ZM1041 500C1041 566 1023 705 921 705C782 705 628 423 628 194C628 100 657 -11 748 -11C889 -11 1041 276 1041 500ZM975 562C975 513 967 462 943 363L734 363C751 427 771 507 811 578C838 627 875 683 920 683C969 683 975 619 975 562ZM934 331C923 285 902 200 864 128C829 60 791 11 748 11C715 11 694 40 694 133C694 175 700 233 726 331Z" stroke="rgb(0,0,0)" stroke-opacity="1" stroke-width="8" fill="rgb(0,0,0)" fill-opacity="1"></path></g></g><g><g><g><g><g transform="matrix(1,0,0,1,173.9375,317.71)"><path transform="matrix(0.01071,0,0,-0.01071,0,0)" d="M419 0L419 31L387 31C297 31 294 42 294 79L294 640C294 664 294 666 271 666C209 602 121 602 89 602L89 571C109 571 168 571 220 597L220 79C220 43 217 31 127 31L95 31L95 0C130 3 217 3 257 3C297 3 384 3 419 0Z" stroke="rgb(0,0,0)" stroke-opacity="1" stroke-width="8" fill="rgb(0,0,0)" fill-opacity="1"></path></g></g></g></g></g></g></g><line style="fill:none;stroke-width:1px;stroke:rgb(0, 0, 0);" x1="157.34375" y1="298.19793701171875" x2="180.2083339691162" y2="298.19793701171875"></line></g></g></g></svg>
</svg>
