<svg xmlns="http://www.w3.org/2000/svg" xmlns:xlink="http://www.w3.org/1999/xlink" x="0" y="0" width="662" height="471" style="
        width:662px;
        height:471px;
        background: #FFF;
        fill: none;
">
        <svg xmlns="http://www.w3.org/2000/svg"><g><defs><pattern id=".9224894823156826" width="60" height="60" patternUnits="userSpaceOnUse"><path d="M 60 0 L 0 0 0 60" fill="none" stroke="lightgray" stroke-width="0.5"/></pattern></defs><rect width="100%" height="100%" fill="url(#.9224894823156826)" stroke="lightgray" stroke-width="0.5"/></g></svg>
        
        <svg xmlns="http://www.w3.org/2000/svg" class="role-diagram-draw-area"><g class="shapes-region" style="stroke: black; fill: none;"><g class="composite-shape axis2d" style="stroke-width: 1; stroke: rgb(0, 0, 0);"><path class="real" d=" M8.4,360.72 L534.4,360.72 M61,18 L61,398.8"/><path d=" M527.4,355.72 L534.4,360.72 L527.4,365.72"/><path d=" M56,25 L61,18 L66,25"/><path d=" M121,355.72 L121,365.72 M181,355.72 L181,365.72 M241,355.72 L241,365.72 M301,355.72 L301,365.72 M361,355.72 L361,365.72 M421,355.72 L421,365.72 M481,355.72 L481,365.72 M56,300.72 L66,300.72 M56,240.72 L66,240.72 M56,180.72 L66,180.72 M56,120.72 L66,120.72 M56,60.72 L66,60.72"/><g style="fill: rgb(0, 0, 0); fill-opacity: 1; font-size: 11px; font-weight: normal; text-anchor: end; stroke: none; font-family: Times;"><text x="123.99999389648437" y="375.719995880127">1</text><text x="183.99999389648437" y="375.719995880127">2</text><text x="243.99999389648437" y="375.719995880127">3</text><text x="303.9999938964844" y="375.719995880127">4</text><text x="363.9999938964844" y="375.719995880127">5</text><text x="423.9999938964844" y="375.719995880127">6</text><text x="483.9999938964844" y="375.719995880127">7</text><text x="53.99999389648437" y="303.719995880127">1</text><text x="53.99999389648437" y="243.719995880127">2</text><text x="53.99999389648437" y="183.719995880127">3</text><text x="53.99999389648437" y="123.71999588012699">4</text><text x="53.99999389648437" y="63.71999588012699">5</text></g></g><g class="composite-shape"><path class="real" d=" M176,281.4 C176,278.31 178.51,275.8 181.6,275.8 C184.69,275.8 187.2,278.31 187.2,281.4 C187.2,284.49 184.69,287 181.6,287 C178.51,287 176,284.49 176,281.4 Z" style="stroke-width: 1; stroke: rgb(0, 0, 0); fill: rgb(74, 144, 226); fill-opacity: 1;"/></g><g class="composite-shape"><path class="real" d=" M236,155.4 C236,152.31 238.51,149.8 241.6,149.8 C244.69,149.8 247.2,152.31 247.2,155.4 C247.2,158.49 244.69,161 241.6,161 C238.51,161 236,158.49 236,155.4 Z" style="stroke-width: 1; stroke: rgb(0, 0, 0); fill: rgb(74, 144, 226); fill-opacity: 1;"/></g><g class="composite-shape"><path class="real" d=" M295,144.4 C295,141.31 297.51,138.8 300.6,138.8 C303.69,138.8 306.2,141.31 306.2,144.4 C306.2,147.49 303.69,150 300.6,150 C297.51,150 295,147.49 295,144.4 Z" style="stroke-width: 1; stroke: rgb(0, 0, 0); fill: rgb(74, 144, 226); fill-opacity: 1;"/></g><g class="composite-shape"><path class="real" d=" M355,179.4 C355,176.31 357.51,173.8 360.6,173.8 C363.69,173.8 366.2,176.31 366.2,179.4 C366.2,182.49 363.69,185 360.6,185 C357.51,185 355,182.49 355,179.4 Z" style="stroke-width: 1; stroke: rgb(0, 0, 0); fill: rgb(74, 144, 226); fill-opacity: 1;"/></g><g class="composite-shape"><path class="real" d=" M414,119.4 C414,116.31 416.51,113.8 419.6,113.8 C422.69,113.8 425.2,116.31 425.2,119.4 C425.2,122.49 422.69,125 419.6,125 C416.51,125 414,122.49 414,119.4 Z" style="stroke-width: 1; stroke: rgb(0, 0, 0); fill: rgb(74, 144, 226); fill-opacity: 1;"/></g><g class="composite-shape"><path class="real" d=" M475,61.4 C475,58.31 477.51,55.8 480.6,55.8 C483.69,55.8 486.2,58.31 486.2,61.4 C486.2,64.49 483.69,67 480.6,67 C477.51,67 475,64.49 475,61.4 Z" style="stroke-width: 1; stroke: rgb(0, 0, 0); fill: rgb(74, 144, 226); fill-opacity: 1;"/></g><g class="composite-shape"><path class="real" d=" M114,240.4 C114,237.31 116.51,234.8 119.6,234.8 C122.69,234.8 125.2,237.31 125.2,240.4 C125.2,243.49 122.69,246 119.6,246 C116.51,246 114,243.49 114,240.4 Z" style="stroke-width: 1; stroke: rgb(0, 0, 0); fill: rgb(74, 144, 226); fill-opacity: 1;"/></g><g/></g><g/><g/><g/></svg>
        <svg xmlns="http://www.w3.org/2000/svg" xmlns:xlink="http://www.w3.org/1999/xlink" width="660" height="469" style="width:660px;height:469px;font-family:LatinModern-Math, LatinModern, Asana-Math, Asana;background:#FFF;"><g><g><g><g transform="matrix(1,0,0,1,35,38.68000457763672)"><path transform="matrix(0.024480000000000002,0,0,-0.024480000000000002,0,0)" d="M490 404C490 422 476 431 461 431C451 431 435 425 426 410C424 405 416 374 412 356L392 276L347 96C343 81 300 11 234 11C183 11 172 55 172 92C172 138 189 200 223 288C239 329 243 340 243 360C243 405 211 442 161 442C66 442 29 297 29 288C29 278 41 278 41 278C51 278 52 280 57 296C84 390 124 420 158 420C166 420 183 420 183 388C183 363 173 337 166 318C126 212 108 155 108 108C108 19 171 -11 230 -11C269 -11 303 6 331 34C318 -18 306 -67 266 -120C240 -154 202 -183 156 -183C142 -183 97 -180 80 -141C96 -141 109 -141 123 -129C133 -120 143 -107 143 -88C143 -57 116 -53 106 -53C83 -53 50 -69 50 -118C50 -168 94 -205 156 -205C259 -205 362 -114 390 -1L486 381C490 395 490 397 490 404Z" stroke="rgb(0,0,0)" stroke-opacity="1" stroke-width="8" fill="rgb(0,0,0)" fill-opacity="1"></path></g></g></g></g><g><g><g><g transform="matrix(1,0,0,1,521,397.68001220703127)"><path transform="matrix(0.024480000000000002,0,0,-0.024480000000000002,0,0)" d="M527 376C527 428 468 442 434 442C376 442 341 389 329 366C304 432 250 442 221 442C117 442 60 313 60 288C60 278 72 278 72 278C80 278 83 280 85 289C119 395 185 420 219 420C238 420 273 411 273 353C273 322 256 255 219 115C203 53 168 11 124 11C118 11 95 11 74 24C99 29 121 50 121 78C121 105 99 113 84 113C54 113 29 87 29 55C29 9 79 -11 123 -11C189 -11 225 59 228 65C240 28 276 -11 336 -11C439 -11 496 118 496 143C496 153 487 153 484 153C475 153 473 149 471 142C438 35 370 11 338 11C299 11 283 43 283 77C283 99 289 121 300 165L334 302C340 328 363 420 433 420C438 420 462 420 483 407C455 402 435 377 435 353C435 337 446 318 473 318C495 318 527 336 527 376Z" stroke="rgb(0,0,0)" stroke-opacity="1" stroke-width="8" fill="rgb(0,0,0)" fill-opacity="1"></path></g></g></g></g><g><g><g><g transform="matrix(1,0,0,1,359,212.60000610351562)"><path transform="matrix(0.017,0,0,-0.017,0,0)" d="M332 -238C332 -235 330 -232 328 -230C224 -152 155 48 155 208L155 292C155 452 224 652 328 730C330 732 332 735 332 738C332 743 327 748 322 748C320 748 318 747 316 746C206 663 101 463 101 292L101 208C101 37 206 -163 316 -246C318 -247 320 -248 322 -248C327 -248 332 -243 332 -238Z" stroke="rgb(0,0,0)" stroke-opacity="1" stroke-width="8" fill="rgb(0,0,0)" fill-opacity="1"></path></g></g><g><g transform="matrix(1,0,0,1,365.625,212.60000610351562)"><path transform="matrix(0.017,0,0,-0.017,0,0)" d="M527 376C527 428 468 442 434 442C376 442 341 389 329 366C304 432 250 442 221 442C117 442 60 313 60 288C60 278 72 278 72 278C80 278 83 280 85 289C119 395 185 420 219 420C238 420 273 411 273 353C273 322 256 255 219 115C203 53 168 11 124 11C118 11 95 11 74 24C99 29 121 50 121 78C121 105 99 113 84 113C54 113 29 87 29 55C29 9 79 -11 123 -11C189 -11 225 59 228 65C240 28 276 -11 336 -11C439 -11 496 118 496 143C496 153 487 153 484 153C475 153 473 149 471 142C438 35 370 11 338 11C299 11 283 43 283 77C283 99 289 121 300 165L334 302C340 328 363 420 433 420C438 420 462 420 483 407C455 402 435 377 435 353C435 337 446 318 473 318C495 318 527 336 527 376Z" stroke="rgb(0,0,0)" stroke-opacity="1" stroke-width="8" fill="rgb(0,0,0)" fill-opacity="1"></path></g></g><g><g><g><g><g transform="matrix(1,0,0,1,375.85003662109375,215.61249389648438)"><path transform="matrix(0.0119,0,0,-0.0119,0,0)" d="M284 625C284 645 270 661 247 661C220 661 193 635 193 608C193 589 207 572 231 572C254 572 284 595 284 625ZM293 143C293 153 284 153 281 153C271 153 271 150 266 135C248 72 215 11 164 11C147 11 140 21 140 44C140 69 146 83 169 144L208 249C220 278 220 280 230 307C238 327 243 341 243 360C243 405 211 442 161 442C67 442 29 297 29 288C29 278 41 278 41 278C51 278 52 280 57 296C84 390 124 420 158 420C166 420 183 420 183 388C183 367 176 346 172 336C164 310 119 194 103 151C93 125 80 92 80 71C80 24 114 -11 162 -11C256 -11 293 134 293 143Z" stroke="rgb(0,0,0)" stroke-opacity="1" stroke-width="8" fill="rgb(0,0,0)" fill-opacity="1"></path></g></g></g></g></g><g><g transform="matrix(1,0,0,1,380.97503662109375,212.60000610351562)"><path transform="matrix(0.017,0,0,-0.017,0,0)" d="M203 1C203 67 178 106 139 106C106 106 86 81 86 53C86 26 106 0 139 0C151 0 164 4 174 13C177 15 179 16 179 16C179 16 181 15 181 1C181 -73 146 -133 113 -166C102 -177 102 -179 102 -182C102 -189 107 -193 112 -193C123 -193 203 -116 203 1Z" stroke="rgb(0,0,0)" stroke-opacity="1" stroke-width="8" fill="rgb(0,0,0)" fill-opacity="1"></path></g></g><g><g transform="matrix(1,0,0,1,389.11248779296875,212.60000610351562)"><path transform="matrix(0.017,0,0,-0.017,0,0)" d="M822 404C822 422 808 431 793 431C783 431 767 425 758 410C756 405 748 374 744 356L724 276L679 96C675 81 632 11 566 11C515 11 504 55 504 92C504 138 521 200 555 288C571 329 575 340 575 360C575 405 543 442 493 442C398 442 361 297 361 288C361 278 373 278 373 278C383 278 384 280 389 296C416 390 456 420 490 420C498 420 515 420 515 388C515 363 505 337 498 318C458 212 440 155 440 108C440 19 503 -11 562 -11C601 -11 635 6 663 34C650 -18 638 -67 598 -120C572 -154 534 -183 488 -183C474 -183 429 -180 412 -141C428 -141 441 -141 455 -129C465 -120 475 -107 475 -88C475 -57 448 -53 438 -53C415 -53 382 -69 382 -118C382 -168 426 -205 488 -205C591 -205 694 -114 722 -1L818 381C822 395 822 397 822 404Z" stroke="rgb(0,0,0)" stroke-opacity="1" stroke-width="8" fill="rgb(0,0,0)" fill-opacity="1"></path></g></g><g><g><g><g><g transform="matrix(1,0,0,1,403.5875244140625,215.61249389648438)"><path transform="matrix(0.0119,0,0,-0.0119,0,0)" d="M284 625C284 645 270 661 247 661C220 661 193 635 193 608C193 589 207 572 231 572C254 572 284 595 284 625ZM293 143C293 153 284 153 281 153C271 153 271 150 266 135C248 72 215 11 164 11C147 11 140 21 140 44C140 69 146 83 169 144L208 249C220 278 220 280 230 307C238 327 243 341 243 360C243 405 211 442 161 442C67 442 29 297 29 288C29 278 41 278 41 278C51 278 52 280 57 296C84 390 124 420 158 420C166 420 183 420 183 388C183 367 176 346 172 336C164 310 119 194 103 151C93 125 80 92 80 71C80 24 114 -11 162 -11C256 -11 293 134 293 143Z" stroke="rgb(0,0,0)" stroke-opacity="1" stroke-width="8" fill="rgb(0,0,0)" fill-opacity="1"></path></g></g></g></g></g><g><g transform="matrix(1,0,0,1,408.7125244140625,212.60000610351562)"><path transform="matrix(0.017,0,0,-0.017,0,0)" d="M288 208L288 292C288 463 183 663 73 746C71 747 69 748 67 748C62 748 57 743 57 738C57 735 59 732 61 730C165 652 234 452 234 292L234 208C234 48 165 -152 61 -230C59 -232 57 -235 57 -238C57 -243 62 -248 67 -248C69 -248 71 -247 73 -246C183 -163 288 37 288 208Z" stroke="rgb(0,0,0)" stroke-opacity="1" stroke-width="8" fill="rgb(0,0,0)" fill-opacity="1"></path></g></g></g></g></svg>
</svg>
