<svg xmlns="http://www.w3.org/2000/svg" xmlns:xlink="http://www.w3.org/1999/xlink" x="0" y="0" width="662" height="471" style="
        width:662px;
        height:471px;
        background: #FFF;
        fill: none;
">
        <svg xmlns="http://www.w3.org/2000/svg"><g><defs><pattern id=".1363464223048454" width="60" height="60" patternUnits="userSpaceOnUse"><path d="M 60 0 L 0 0 0 60" fill="none" stroke="lightgray" stroke-width="0.5"/></pattern></defs><rect width="100%" height="100%" fill="url(#.1363464223048454)" stroke="lightgray" stroke-width="0.5"/></g></svg>
        
        <svg xmlns="http://www.w3.org/2000/svg" class="role-diagram-draw-area"><g class="shapes-region" style="stroke: black; fill: none;"><g class="composite-shape axis2d" style="stroke-width: 1; stroke: rgb(0, 0, 0);"><path class="real" d=" M8.4,360.72 L534.4,360.72 M61,18 L61,398.8"/><path d=" M527.4,355.72 L534.4,360.72 L527.4,365.72"/><path d=" M56,25 L61,18 L66,25"/><path d=" M121,355.72 L121,365.72 M181,355.72 L181,365.72 M241,355.72 L241,365.72 M301,355.72 L301,365.72 M361,355.72 L361,365.72 M421,355.72 L421,365.72 M481,355.72 L481,365.72 M56,300.72 L66,300.72 M56,240.72 L66,240.72 M56,180.72 L66,180.72 M56,120.72 L66,120.72 M56,60.72 L66,60.72"/><g style="fill: rgb(0, 0, 0); fill-opacity: 1; font-size: 11px; font-weight: normal; text-anchor: end; stroke: none; font-family: Times;"><text x="123.99999389648437" y="375.719995880127">1</text><text x="183.99999389648437" y="375.719995880127">2</text><text x="243.99999389648437" y="375.719995880127">3</text><text x="303.9999938964844" y="375.719995880127">4</text><text x="363.9999938964844" y="375.719995880127">5</text><text x="423.9999938964844" y="375.719995880127">6</text><text x="483.9999938964844" y="375.719995880127">7</text><text x="53.99999389648437" y="303.719995880127">1</text><text x="53.99999389648437" y="243.719995880127">2</text><text x="53.99999389648437" y="183.719995880127">3</text><text x="53.99999389648437" y="123.71999588012699">4</text><text x="53.99999389648437" y="63.71999588012699">5</text></g></g><g class="composite-shape"><path class="real" d=" M176,281.4 C176,278.31 178.51,275.8 181.6,275.8 C184.69,275.8 187.2,278.31 187.2,281.4 C187.2,284.49 184.69,287 181.6,287 C178.51,287 176,284.49 176,281.4 Z" style="stroke-width: 1; stroke: rgb(0, 0, 0); fill: rgb(74, 144, 226); fill-opacity: 1;"/></g><g class="composite-shape"><path class="real" d=" M236,155.4 C236,152.31 238.51,149.8 241.6,149.8 C244.69,149.8 247.2,152.31 247.2,155.4 C247.2,158.49 244.69,161 241.6,161 C238.51,161 236,158.49 236,155.4 Z" style="stroke-width: 1; stroke: rgb(0, 0, 0); fill: rgb(74, 144, 226); fill-opacity: 1;"/></g><g class="composite-shape"><path class="real" d=" M295,144.4 C295,141.31 297.51,138.8 300.6,138.8 C303.69,138.8 306.2,141.31 306.2,144.4 C306.2,147.49 303.69,150 300.6,150 C297.51,150 295,147.49 295,144.4 Z" style="stroke-width: 1; stroke: rgb(0, 0, 0); fill: rgb(74, 144, 226); fill-opacity: 1;"/></g><g class="composite-shape"><path class="real" d=" M355,179.4 C355,176.31 357.51,173.8 360.6,173.8 C363.69,173.8 366.2,176.31 366.2,179.4 C366.2,182.49 363.69,185 360.6,185 C357.51,185 355,182.49 355,179.4 Z" style="stroke-width: 1; stroke: rgb(0, 0, 0); fill: rgb(74, 144, 226); fill-opacity: 1;"/></g><g class="composite-shape"><path class="real" d=" M414,119.4 C414,116.31 416.51,113.8 419.6,113.8 C422.69,113.8 425.2,116.31 425.2,119.4 C425.2,122.49 422.69,125 419.6,125 C416.51,125 414,122.49 414,119.4 Z" style="stroke-width: 1; stroke: rgb(0, 0, 0); fill: rgb(74, 144, 226); fill-opacity: 1;"/></g><g class="composite-shape"><path class="real" d=" M475,61.4 C475,58.31 477.51,55.8 480.6,55.8 C483.69,55.8 486.2,58.31 486.2,61.4 C486.2,64.49 483.69,67 480.6,67 C477.51,67 475,64.49 475,61.4 Z" style="stroke-width: 1; stroke: rgb(0, 0, 0); fill: rgb(74, 144, 226); fill-opacity: 1;"/></g><g class="composite-shape"><path class="real" d=" M114,240.4 C114,237.31 116.51,234.8 119.6,234.8 C122.69,234.8 125.2,237.31 125.2,240.4 C125.2,243.49 122.69,246 119.6,246 C116.51,246 114,243.49 114,240.4 Z" style="stroke-width: 1; stroke: rgb(0, 0, 0); fill: rgb(74, 144, 226); fill-opacity: 1;"/></g><g class="arrow-line"><path class="connection real" stroke-dasharray="" d="  M37.4,315 L530.4,35" style="stroke: rgb(0, 0, 0); stroke-width: 1; fill: none; fill-opacity: 1;"/></g><g/></g><g/><g/><g/></svg>
        <svg xmlns="http://www.w3.org/2000/svg" xmlns:xlink="http://www.w3.org/1999/xlink" width="660" height="469" style="width:660px;height:469px;font-family:LatinModern-Math, LatinModern, Asana-Math, Asana;background:#FFF;"><g><g><g><g transform="matrix(1,0,0,1,35,38.67999694824219)"><path transform="matrix(0.024480000000000002,0,0,-0.024480000000000002,0,0)" d="M490 404C490 422 476 431 461 431C451 431 435 425 426 410C424 405 416 374 412 356L392 276L347 96C343 81 300 11 234 11C183 11 172 55 172 92C172 138 189 200 223 288C239 329 243 340 243 360C243 405 211 442 161 442C66 442 29 297 29 288C29 278 41 278 41 278C51 278 52 280 57 296C84 390 124 420 158 420C166 420 183 420 183 388C183 363 173 337 166 318C126 212 108 155 108 108C108 19 171 -11 230 -11C269 -11 303 6 331 34C318 -18 306 -67 266 -120C240 -154 202 -183 156 -183C142 -183 97 -180 80 -141C96 -141 109 -141 123 -129C133 -120 143 -107 143 -88C143 -57 116 -53 106 -53C83 -53 50 -69 50 -118C50 -168 94 -205 156 -205C259 -205 362 -114 390 -1L486 381C490 395 490 397 490 404Z" stroke="rgb(0,0,0)" stroke-opacity="1" stroke-width="8" fill="rgb(0,0,0)" fill-opacity="1"></path></g></g></g></g><g><g><g><g transform="matrix(1,0,0,1,521.0000305175781,397.68002746582033)"><path transform="matrix(0.024480000000000002,0,0,-0.024480000000000002,0,0)" d="M527 376C527 428 468 442 434 442C376 442 341 389 329 366C304 432 250 442 221 442C117 442 60 313 60 288C60 278 72 278 72 278C80 278 83 280 85 289C119 395 185 420 219 420C238 420 273 411 273 353C273 322 256 255 219 115C203 53 168 11 124 11C118 11 95 11 74 24C99 29 121 50 121 78C121 105 99 113 84 113C54 113 29 87 29 55C29 9 79 -11 123 -11C189 -11 225 59 228 65C240 28 276 -11 336 -11C439 -11 496 118 496 143C496 153 487 153 484 153C475 153 473 149 471 142C438 35 370 11 338 11C299 11 283 43 283 77C283 99 289 121 300 165L334 302C340 328 363 420 433 420C438 420 462 420 483 407C455 402 435 377 435 353C435 337 446 318 473 318C495 318 527 336 527 376Z" stroke="rgb(0,0,0)" stroke-opacity="1" stroke-width="8" fill="rgb(0,0,0)" fill-opacity="1"></path></g></g></g></g><g><g><g><g transform="matrix(1,0,0,1,233,229.59999084472656)"><path transform="matrix(0.017,0,0,-0.017,0,0)" d="M490 404C490 422 476 431 461 431C451 431 435 425 426 410C424 405 416 374 412 356L392 276L347 96C343 81 300 11 234 11C183 11 172 55 172 92C172 138 189 200 223 288C239 329 243 340 243 360C243 405 211 442 161 442C66 442 29 297 29 288C29 278 41 278 41 278C51 278 52 280 57 296C84 390 124 420 158 420C166 420 183 420 183 388C183 363 173 337 166 318C126 212 108 155 108 108C108 19 171 -11 230 -11C269 -11 303 6 331 34C318 -18 306 -67 266 -120C240 -154 202 -183 156 -183C142 -183 97 -180 80 -141C96 -141 109 -141 123 -129C133 -120 143 -107 143 -88C143 -57 116 -53 106 -53C83 -53 50 -69 50 -118C50 -168 94 -205 156 -205C259 -205 362 -114 390 -1L486 381C490 395 490 397 490 404Z" stroke="rgb(0,0,0)" stroke-opacity="1" stroke-width="8" fill="rgb(0,0,0)" fill-opacity="1"></path></g></g><g><g transform="matrix(1,0,0,1,246.4375,229.59999084472656)"><path transform="matrix(0.017,0,0,-0.017,0,0)" d="M722 347C722 358 713 367 702 367L76 367C65 367 56 358 56 347C56 336 65 327 76 327L702 327C713 327 722 336 722 347ZM722 153C722 164 713 173 702 173L76 173C65 173 56 164 56 153C56 142 65 133 76 133L702 133C713 133 722 142 722 153Z" stroke="rgb(0,0,0)" stroke-opacity="1" stroke-width="8" fill="rgb(0,0,0)" fill-opacity="1"></path></g></g><g><g transform="matrix(1,0,0,1,264.7749938964844,229.59999084472656)"><path transform="matrix(0.017,0,0,-0.017,0,0)" d="M455 500C455 566 437 705 335 705C196 705 42 423 42 194C42 100 71 -11 162 -11C303 -11 455 276 455 500ZM389 562C389 513 381 462 357 363L148 363C165 427 185 507 225 578C252 627 289 683 334 683C383 683 389 619 389 562ZM348 331C337 285 316 200 278 128C243 60 205 11 162 11C129 11 108 40 108 133C108 175 114 233 140 331Z" stroke="rgb(0,0,0)" stroke-opacity="1" stroke-width="8" fill="rgb(0,0,0)" fill-opacity="1"></path></g></g><g><g><g><g><g transform="matrix(1,0,0,1,273.25,232.61250915527344)"><path transform="matrix(0.0119,0,0,-0.0119,0,0)" d="M460 320C460 400 455 480 420 554C374 650 292 666 250 666C190 666 117 640 76 547C44 478 39 400 39 320C39 245 43 155 84 79C127 -2 200 -22 249 -22C303 -22 379 -1 423 94C455 163 460 241 460 320ZM377 332C377 257 377 189 366 125C351 30 294 0 249 0C210 0 151 25 133 121C122 181 122 273 122 332C122 396 122 462 130 516C149 635 224 644 249 644C282 644 348 626 367 527C377 471 377 395 377 332Z" stroke="rgb(0,0,0)" stroke-opacity="1" stroke-width="8" fill="rgb(0,0,0)" fill-opacity="1"></path></g></g></g></g></g><g><g transform="matrix(1,0,0,1,283.61248779296875,229.59999084472656)"><path transform="matrix(0.017,0,0,-0.017,0,0)" d="M722 250C722 261 713 270 702 270L409 270L409 563C409 574 400 583 389 583C378 583 369 574 369 563L369 270L76 270C65 270 56 261 56 250C56 239 65 230 76 230L369 230L369 -63C369 -74 378 -83 389 -83C400 -83 409 -74 409 -63L409 230L702 230C713 230 722 239 722 250Z" stroke="rgb(0,0,0)" stroke-opacity="1" stroke-width="8" fill="rgb(0,0,0)" fill-opacity="1"></path></g></g><g><g transform="matrix(1,0,0,1,300.2500305175781,229.59999084472656)"><path transform="matrix(0.017,0,0,-0.017,0,0)" d="M455 500C455 566 437 705 335 705C196 705 42 423 42 194C42 100 71 -11 162 -11C303 -11 455 276 455 500ZM389 562C389 513 381 462 357 363L148 363C165 427 185 507 225 578C252 627 289 683 334 683C383 683 389 619 389 562ZM348 331C337 285 316 200 278 128C243 60 205 11 162 11C129 11 108 40 108 133C108 175 114 233 140 331Z" stroke="rgb(0,0,0)" stroke-opacity="1" stroke-width="8" fill="rgb(0,0,0)" fill-opacity="1"></path></g></g><g><g><g><g><g transform="matrix(1,0,0,1,308.7250061035156,232.61250915527344)"><path transform="matrix(0.0119,0,0,-0.0119,0,0)" d="M419 0L419 31L387 31C297 31 294 42 294 79L294 640C294 664 294 666 271 666C209 602 121 602 89 602L89 571C109 571 168 571 220 597L220 79C220 43 217 31 127 31L95 31L95 0C130 3 217 3 257 3C297 3 384 3 419 0Z" stroke="rgb(0,0,0)" stroke-opacity="1" stroke-width="8" fill="rgb(0,0,0)" fill-opacity="1"></path></g></g></g></g></g><g><g transform="matrix(1,0,0,1,315.6875305175781,229.59999084472656)"><path transform="matrix(0.017,0,0,-0.017,0,0)" d="M527 376C527 428 468 442 434 442C376 442 341 389 329 366C304 432 250 442 221 442C117 442 60 313 60 288C60 278 72 278 72 278C80 278 83 280 85 289C119 395 185 420 219 420C238 420 273 411 273 353C273 322 256 255 219 115C203 53 168 11 124 11C118 11 95 11 74 24C99 29 121 50 121 78C121 105 99 113 84 113C54 113 29 87 29 55C29 9 79 -11 123 -11C189 -11 225 59 228 65C240 28 276 -11 336 -11C439 -11 496 118 496 143C496 153 487 153 484 153C475 153 473 149 471 142C438 35 370 11 338 11C299 11 283 43 283 77C283 99 289 121 300 165L334 302C340 328 363 420 433 420C438 420 462 420 483 407C455 402 435 377 435 353C435 337 446 318 473 318C495 318 527 336 527 376Z" stroke="rgb(0,0,0)" stroke-opacity="1" stroke-width="8" fill="rgb(0,0,0)" fill-opacity="1"></path></g></g></g></g></svg>
</svg>
