<svg xmlns="http://www.w3.org/2000/svg" xmlns:xlink="http://www.w3.org/1999/xlink" x="0" y="0" width="662" height="471" style="
        width:662px;
        height:471px;
        background: #FFF;
        fill: none;
">
        <svg xmlns="http://www.w3.org/2000/svg"><g><defs><pattern id=".17626814008223124" width="60" height="60" patternUnits="userSpaceOnUse"><path d="M 60 0 L 0 0 0 60" fill="none" stroke="lightgray" stroke-width="0.5"/></pattern></defs><rect width="100%" height="100%" fill="url(#.17626814008223124)" stroke="lightgray" stroke-width="0.5"/></g></svg>
        
        <svg xmlns="http://www.w3.org/2000/svg" class="role-diagram-draw-area"><g class="shapes-region" style="stroke: black; fill: none;"><g class="composite-shape axis2d" style="stroke-width: 1; stroke: rgb(0, 0, 0);"><path class="real" d=" M8.4,360.72 L534.4,360.72 M61,18 L61,398.8"/><path d=" M527.4,355.72 L534.4,360.72 L527.4,365.72"/><path d=" M56,25 L61,18 L66,25"/><path d=" M121,355.72 L121,365.72 M181,355.72 L181,365.72 M241,355.72 L241,365.72 M301,355.72 L301,365.72 M361,355.72 L361,365.72 M421,355.72 L421,365.72 M481,355.72 L481,365.72 M56,300.72 L66,300.72 M56,240.72 L66,240.72 M56,180.72 L66,180.72 M56,120.72 L66,120.72 M56,60.72 L66,60.72"/><g style="fill: rgb(0, 0, 0); fill-opacity: 1; font-size: 11px; font-weight: normal; text-anchor: end; stroke: none; font-family: Times;"><text x="123.99999389648437" y="375.719995880127">1</text><text x="183.99999389648437" y="375.719995880127">2</text><text x="243.99999389648437" y="375.719995880127">3</text><text x="303.9999938964844" y="375.719995880127">4</text><text x="363.9999938964844" y="375.719995880127">5</text><text x="423.9999938964844" y="375.719995880127">6</text><text x="483.9999938964844" y="375.719995880127">7</text><text x="53.99999389648437" y="303.719995880127">1</text><text x="53.99999389648437" y="243.719995880127">2</text><text x="53.99999389648437" y="183.719995880127">3</text><text x="53.99999389648437" y="123.71999588012699">4</text><text x="53.99999389648437" y="63.71999588012699">5</text></g></g><g class="composite-shape"><path class="real" d=" M176,281.4 C176,278.31 178.51,275.8 181.6,275.8 C184.69,275.8 187.2,278.31 187.2,281.4 C187.2,284.49 184.69,287 181.6,287 C178.51,287 176,284.49 176,281.4 Z" style="stroke-width: 1; stroke: rgb(0, 0, 0); fill: rgb(74, 144, 226); fill-opacity: 1;"/></g><g class="composite-shape"><path class="real" d=" M236,155.4 C236,152.31 238.51,149.8 241.6,149.8 C244.69,149.8 247.2,152.31 247.2,155.4 C247.2,158.49 244.69,161 241.6,161 C238.51,161 236,158.49 236,155.4 Z" style="stroke-width: 1; stroke: rgb(0, 0, 0); fill: rgb(74, 144, 226); fill-opacity: 1;"/></g><g class="composite-shape"><path class="real" d=" M295,144.4 C295,141.31 297.51,138.8 300.6,138.8 C303.69,138.8 306.2,141.31 306.2,144.4 C306.2,147.49 303.69,150 300.6,150 C297.51,150 295,147.49 295,144.4 Z" style="stroke-width: 1; stroke: rgb(0, 0, 0); fill: rgb(74, 144, 226); fill-opacity: 1;"/></g><g class="composite-shape"><path class="real" d=" M355,179.4 C355,176.31 357.51,173.8 360.6,173.8 C363.69,173.8 366.2,176.31 366.2,179.4 C366.2,182.49 363.69,185 360.6,185 C357.51,185 355,182.49 355,179.4 Z" style="stroke-width: 1; stroke: rgb(0, 0, 0); fill: rgb(74, 144, 226); fill-opacity: 1;"/></g><g class="composite-shape"><path class="real" d=" M414,119.4 C414,116.31 416.51,113.8 419.6,113.8 C422.69,113.8 425.2,116.31 425.2,119.4 C425.2,122.49 422.69,125 419.6,125 C416.51,125 414,122.49 414,119.4 Z" style="stroke-width: 1; stroke: rgb(0, 0, 0); fill: rgb(74, 144, 226); fill-opacity: 1;"/></g><g class="composite-shape"><path class="real" d=" M476,61.4 C476,58.31 478.51,55.8 481.6,55.8 C484.69,55.8 487.2,58.31 487.2,61.4 C487.2,64.49 484.69,67 481.6,67 C478.51,67 476,64.49 476,61.4 Z" style="stroke-width: 1; stroke: rgb(0, 0, 0); fill: rgb(74, 144, 226); fill-opacity: 1;"/></g><g class="composite-shape"><path class="real" d=" M114,240.4 C114,237.31 116.51,234.8 119.6,234.8 C122.69,234.8 125.2,237.31 125.2,240.4 C125.2,243.49 122.69,246 119.6,246 C116.51,246 114,243.49 114,240.4 Z" style="stroke-width: 1; stroke: rgb(0, 0, 0); fill: rgb(74, 144, 226); fill-opacity: 1;"/></g><g/></g><g/><g/><g/></svg>
        <svg xmlns="http://www.w3.org/2000/svg" xmlns:xlink="http://www.w3.org/1999/xlink" width="660" height="469" style="width:660px;height:469px;font-family:LatinModern-Math, LatinModern, Asana-Math, Asana;background:#FFF;"><g><g><g><g transform="matrix(1,0,0,1,35,38.68000457763672)"><path transform="matrix(0.024480000000000002,0,0,-0.024480000000000002,0,0)" d="M415 282C415 373 362 442 282 442C236 442 195 413 165 382L239 683C239 683 239 694 226 694C203 694 130 686 104 684C96 683 85 682 85 664C85 652 94 652 109 652C157 652 159 645 159 635C159 628 150 594 145 573L63 247C51 197 47 181 47 146C47 51 100 -11 174 -11C292 -11 415 138 415 282ZM343 326C343 267 310 152 292 114C259 47 213 11 174 11C140 11 107 38 107 112C107 131 107 150 123 213L145 305C151 327 151 329 160 340C209 405 254 420 280 420C316 420 343 390 343 326Z" stroke="rgb(0,0,0)" stroke-opacity="1" stroke-width="8" fill="rgb(0,0,0)" fill-opacity="1"></path></g></g></g></g><g><g><g><g transform="matrix(1,0,0,1,521.0000305175781,397.68001220703127)"><path transform="matrix(0.024480000000000002,0,0,-0.024480000000000002,0,0)" d="M498 143C498 153 489 153 486 153C476 153 475 149 472 135C455 70 437 11 396 11C369 11 366 37 366 57C366 79 368 87 379 131L401 221L437 361C444 389 444 391 444 395C444 412 432 422 415 422C391 422 376 400 373 378C355 415 326 442 281 442C164 442 40 295 40 149C40 55 95 -11 173 -11C193 -11 243 -7 303 64C311 22 346 -11 394 -11C429 -11 452 12 468 44C485 80 498 143 498 143ZM361 332C361 326 359 320 358 315L308 119C303 101 303 99 288 82C244 27 203 11 175 11C125 11 111 66 111 105C111 155 143 278 166 324C197 383 242 420 282 420C347 420 361 338 361 332Z" stroke="rgb(0,0,0)" stroke-opacity="1" stroke-width="8" fill="rgb(0,0,0)" fill-opacity="1"></path></g></g></g></g><g><g><g><g transform="matrix(1,0,0,1,430.0000305175781,147)"><path transform="matrix(0.017,0,0,-0.017,0,0)" d="M332 -238C332 -235 330 -232 328 -230C224 -152 155 48 155 208L155 292C155 452 224 652 328 730C330 732 332 735 332 738C332 743 327 748 322 748C320 748 318 747 316 746C206 663 101 463 101 292L101 208C101 37 206 -163 316 -246C318 -247 320 -248 322 -248C327 -248 332 -243 332 -238Z" stroke="rgb(0,0,0)" stroke-opacity="1" stroke-width="8" fill="rgb(0,0,0)" fill-opacity="1"></path></g></g><g><g transform="matrix(1,0,0,1,436.6250305175781,147)"><path transform="matrix(0.017,0,0,-0.017,0,0)" d="M498 143C498 153 489 153 486 153C476 153 475 149 472 135C455 70 437 11 396 11C369 11 366 37 366 57C366 79 368 87 379 131L401 221L437 361C444 389 444 391 444 395C444 412 432 422 415 422C391 422 376 400 373 378C355 415 326 442 281 442C164 442 40 295 40 149C40 55 95 -11 173 -11C193 -11 243 -7 303 64C311 22 346 -11 394 -11C429 -11 452 12 468 44C485 80 498 143 498 143ZM361 332C361 326 359 320 358 315L308 119C303 101 303 99 288 82C244 27 203 11 175 11C125 11 111 66 111 105C111 155 143 278 166 324C197 383 242 420 282 420C347 420 361 338 361 332Z" stroke="rgb(0,0,0)" stroke-opacity="1" stroke-width="8" fill="rgb(0,0,0)" fill-opacity="1"></path></g></g><g><g transform="matrix(1,0,0,1,445.6250305175781,147)"><path transform="matrix(0.017,0,0,-0.017,0,0)" d="M203 1C203 67 178 106 139 106C106 106 86 81 86 53C86 26 106 0 139 0C151 0 164 4 174 13C177 15 179 16 179 16C179 16 181 15 181 1C181 -73 146 -133 113 -166C102 -177 102 -179 102 -182C102 -189 107 -193 112 -193C123 -193 203 -116 203 1Z" stroke="rgb(0,0,0)" stroke-opacity="1" stroke-width="8" fill="rgb(0,0,0)" fill-opacity="1"></path></g></g><g><g transform="matrix(1,0,0,1,453.7624816894531,147)"><path transform="matrix(0.017,0,0,-0.017,0,0)" d="M747 282C747 373 694 442 614 442C568 442 527 413 497 382L571 683C571 683 571 694 558 694C535 694 462 686 436 684C428 683 417 682 417 664C417 652 426 652 441 652C489 652 491 645 491 635C491 628 482 594 477 573L395 247C383 197 379 181 379 146C379 51 432 -11 506 -11C624 -11 747 138 747 282ZM675 326C675 267 642 152 624 114C591 47 545 11 506 11C472 11 439 38 439 112C439 131 439 150 455 213L477 305C483 327 483 329 492 340C541 405 586 420 612 420C648 420 675 390 675 326Z" stroke="rgb(0,0,0)" stroke-opacity="1" stroke-width="8" fill="rgb(0,0,0)" fill-opacity="1"></path></g></g><g><g transform="matrix(1,0,0,1,466.6999816894531,147)"><path transform="matrix(0.017,0,0,-0.017,0,0)" d="M288 208L288 292C288 463 183 663 73 746C71 747 69 748 67 748C62 748 57 743 57 738C57 735 59 732 61 730C165 652 234 452 234 292L234 208C234 48 165 -152 61 -230C59 -232 57 -235 57 -238C57 -243 62 -248 67 -248C69 -248 71 -247 73 -246C183 -163 288 37 288 208Z" stroke="rgb(0,0,0)" stroke-opacity="1" stroke-width="8" fill="rgb(0,0,0)" fill-opacity="1"></path></g></g></g></g></svg>
</svg>
