<svg xmlns="http://www.w3.org/2000/svg" xmlns:xlink="http://www.w3.org/1999/xlink" x="0" y="0" width="662" height="471" style="
        width:662px;
        height:471px;
        background: #FFF;
        fill: none;
">
        <svg xmlns="http://www.w3.org/2000/svg"><g><defs><pattern id=".028624796864641366" width="60" height="60" patternUnits="userSpaceOnUse"><path d="M 60 0 L 0 0 0 60" fill="none" stroke="lightgray" stroke-width="0.5"/></pattern></defs><rect width="100%" height="100%" fill="url(#.028624796864641366)" stroke="lightgray" stroke-width="0.5"/></g></svg>
        
        <svg xmlns="http://www.w3.org/2000/svg" class="role-diagram-draw-area"><g class="shapes-region" style="stroke: black; fill: none;"><g class="composite-shape axis2d" style="stroke-width: 1; stroke: rgb(0, 0, 0);"><path class="real" d=" M11.4,420.46 L510.4,420.46 M61.3,44.8 L61.3,462.2"/><path d=" M503.4,415.46 L510.4,420.46 L503.4,425.46"/><path d=" M56.3,51.8 L61.3,44.8 L66.3,51.8"/><path d=" M121.3,415.46 L121.3,425.46 M181.3,415.46 L181.3,425.46 M241.3,415.46 L241.3,425.46 M301.3,415.46 L301.3,425.46 M361.3,415.46 L361.3,425.46 M421.3,415.46 L421.3,425.46 M481.3,415.46 L481.3,425.46 M56.3,360.46 L66.3,360.46 M56.3,300.46 L66.3,300.46 M56.3,240.46 L66.3,240.46 M56.3,180.46 L66.3,180.46 M56.3,120.46 L66.3,120.46 M56.3,60.46 L66.3,60.46"/><g style="fill: rgb(0, 0, 0); fill-opacity: 1; font-size: 11px; font-weight: normal; text-anchor: end; stroke: none; font-family: Times;"><text x="124.29999389648435" y="435.4600040435791">1</text><text x="184.29999389648435" y="435.4600040435791">2</text><text x="244.29999389648435" y="435.4600040435791">3</text><text x="304.29999389648435" y="435.4600040435791">4</text><text x="364.29999389648435" y="435.4600040435791">5</text><text x="424.29999389648435" y="435.4600040435791">6</text><text x="484.29999389648435" y="435.4600040435791">7</text><text x="54.29999389648435" y="363.4600040435791">1</text><text x="54.29999389648435" y="303.4600040435791">2</text><text x="54.29999389648435" y="243.4600040435791">3</text><text x="54.29999389648435" y="183.4600040435791">4</text><text x="54.29999389648435" y="123.46000404357909">5</text><text x="54.29999389648435" y="63.46000404357909">6</text></g></g><g class="arrow-line"><path class="connection real" stroke-dasharray="" d="  M61.3,420.46 L239.21,180.21" style="stroke: rgb(0, 0, 0); stroke-width: 1; fill: none; fill-opacity: 1;"/><g stroke="#000" transform="matrix(-0.5951033494856164,0.8036491793257804,-0.8036491793257804,-0.5951033494856164,240.39999389648438,178.59999990463257)" style="stroke: rgb(0, 0, 0); stroke-width: 1;"><path d=" M10.93,-3.29 Q4.96,-0.45 0,0 Q4.96,0.45 10.93,3.29"/></g></g><g class="composite-shape"><path class="real" d=" M235.9,178.6 C235.9,176.11 237.91,174.1 240.4,174.1 C242.89,174.1 244.9,176.11 244.9,178.6 C244.9,181.09 242.89,183.1 240.4,183.1 C237.91,183.1 235.9,181.09 235.9,178.6 Z" style="stroke-width: 1; stroke: rgb(0, 0, 0); fill: rgb(74, 144, 226); fill-opacity: 1;"/></g><g class="arrow-line"><path class="connection real" stroke-dasharray="" d="  M235.9,178.6 L301,300.6" style="stroke: rgb(0, 0, 0); stroke-width: 1; fill: none; fill-opacity: 1;"/></g><g class="composite-shape"><path class="real" d=" M296.5,300.6 C296.5,298.11 298.51,296.1 301,296.1 C303.49,296.1 305.5,298.11 305.5,300.6 C305.5,303.09 303.49,305.1 301,305.1 C298.51,305.1 296.5,303.09 296.5,300.6 Z" style="stroke-width: 1; stroke: rgb(0, 0, 0); fill: rgb(74, 144, 226); fill-opacity: 1;"/></g><g class="composite-shape"><path class="real" d=" M298,291.6 L311.19,285.1 L314.95,292.73 L301.76,299.23 Z" style="stroke-width: 1; stroke: rgb(0, 0, 0); fill: none; fill-opacity: 1;"/></g><g class="arrow-line"><path class="connection real" stroke-dasharray="" d="  M61.3,420.46 L419.21,240.3" style="stroke: rgb(0, 0, 0); stroke-width: 1; fill: none; fill-opacity: 1;"/><g stroke="#000" transform="matrix(-0.8932144919853736,0.4496308166788736,-0.4496308166788736,-0.8932144919853736,421,239.39999961853027)" style="stroke: rgb(0, 0, 0); stroke-width: 1;"><path d=" M10.93,-3.29 Q4.96,-0.45 0,0 Q4.96,0.45 10.93,3.29"/></g></g><g class="arrow-line"><path class="connection real" stroke-dasharray="" d="  M61.3,420.46 L299.21,301.49" style="stroke: rgb(0, 0, 0); stroke-width: 1; fill: none; fill-opacity: 1;"/><g stroke="#000" transform="matrix(-0.894388560370084,0.4472908484187093,-0.4472908484187093,-0.894388560370084,301,300.60000228881836)" style="stroke: rgb(0, 0, 0); stroke-width: 1;"><path d=" M10.93,-3.29 Q4.96,-0.45 0,0 Q4.96,0.45 10.93,3.29"/></g></g><g/></g><g/><g/><g/></svg>
        <svg xmlns="http://www.w3.org/2000/svg" xmlns:xlink="http://www.w3.org/1999/xlink" width="660" height="469" style="width:660px;height:469px;font-family:LatinModern-Math, LatinModern, Asana-Math, Asana;background:#FFF;"><g><g><g><g transform="matrix(1,0,0,1,144,266.9999966621399)"><path transform="matrix(0.017,0,0,-0.017,0,0)" d="M527 376C527 428 468 442 434 442C376 442 341 389 329 366C304 432 250 442 221 442C117 442 60 313 60 288C60 278 72 278 72 278C80 278 83 280 85 289C119 395 185 420 219 420C238 420 273 411 273 353C273 322 256 255 219 115C203 53 168 11 124 11C118 11 95 11 74 24C99 29 121 50 121 78C121 105 99 113 84 113C54 113 29 87 29 55C29 9 79 -11 123 -11C189 -11 225 59 228 65C240 28 276 -11 336 -11C439 -11 496 118 496 143C496 153 487 153 484 153C475 153 473 149 471 142C438 35 370 11 338 11C299 11 283 43 283 77C283 99 289 121 300 165L334 302C340 328 363 420 433 420C438 420 462 420 483 407C455 402 435 377 435 353C435 337 446 318 473 318C495 318 527 336 527 376Z" stroke="rgb(0,0,0)" stroke-opacity="1" stroke-width="8" fill="rgb(0,0,0)" fill-opacity="1"></path></g></g></g></g><g><g><g><g transform="matrix(1,0,0,1,202,375.00001192092896)"><path transform="matrix(0.017,0,0,-0.017,0,0)" d="M330 420C330 431 320 431 302 431L214 431C250 573 255 593 255 599C255 616 243 626 226 626C223 626 195 625 186 590L147 431L53 431C33 431 23 431 23 412C23 400 31 400 51 400L139 400C67 116 63 99 63 81C63 27 101 -11 155 -11C257 -11 314 135 314 143C314 153 306 153 302 153C293 153 292 150 287 139C244 35 191 11 157 11C136 11 126 24 126 57C126 81 128 88 132 105L206 400L300 400C320 400 330 400 330 420ZM851 404C851 422 837 431 822 431C812 431 796 425 787 410C785 405 777 374 773 356L753 276L708 96C704 81 661 11 595 11C544 11 533 55 533 92C533 138 550 200 584 288C600 329 604 340 604 360C604 405 572 442 522 442C427 442 390 297 390 288C390 278 402 278 402 278C412 278 413 280 418 296C445 390 485 420 519 420C527 420 544 420 544 388C544 363 534 337 527 318C487 212 469 155 469 108C469 19 532 -11 591 -11C630 -11 664 6 692 34C679 -18 667 -67 627 -120C601 -154 563 -183 517 -183C503 -183 458 -180 441 -141C457 -141 470 -141 484 -129C494 -120 504 -107 504 -88C504 -57 477 -53 467 -53C444 -53 411 -69 411 -118C411 -168 455 -205 517 -205C620 -205 723 -114 751 -1L847 381C851 395 851 397 851 404Z" stroke="rgb(0,0,0)" stroke-opacity="1" stroke-width="8" fill="rgb(0,0,0)" fill-opacity="1"></path></g></g></g></g><g><g><g><g transform="matrix(1,0,0,1,285,228.9999966621399)"><path transform="matrix(0.017,0,0,-0.017,0,0)" d="M430 107C430 113 424 120 418 120C413 120 411 118 405 110C326 11 217 11 205 11C127 11 118 95 118 127C118 139 119 170 134 231L187 231C216 231 290 233 340 254C410 284 415 343 415 357C415 401 377 442 308 442C197 442 46 345 46 170C46 68 105 -11 203 -11C346 -11 430 95 430 107ZM382 357C382 253 222 253 181 253L140 253C179 405 282 420 308 420C355 420 382 391 382 357Z" stroke="rgb(0,0,0)" stroke-opacity="1" stroke-width="8" fill="rgb(0,0,0)" fill-opacity="1"></path></g></g><g><g transform="matrix(1,0,0,1,298.0250244140625,228.9999966621399)"><path transform="matrix(0.017,0,0,-0.017,0,0)" d="M722 347C722 358 713 367 702 367L76 367C65 367 56 358 56 347C56 336 65 327 76 327L702 327C713 327 722 336 722 347ZM722 153C722 164 713 173 702 173L76 173C65 173 56 164 56 153C56 142 65 133 76 133L702 133C713 133 722 142 722 153Z" stroke="rgb(0,0,0)" stroke-opacity="1" stroke-width="8" fill="rgb(0,0,0)" fill-opacity="1"></path></g></g><g><g transform="matrix(1,0,0,1,316.36248779296875,228.9999966621399)"><path transform="matrix(0.017,0,0,-0.017,0,0)" d="M527 376C527 428 468 442 434 442C376 442 341 389 329 366C304 432 250 442 221 442C117 442 60 313 60 288C60 278 72 278 72 278C80 278 83 280 85 289C119 395 185 420 219 420C238 420 273 411 273 353C273 322 256 255 219 115C203 53 168 11 124 11C118 11 95 11 74 24C99 29 121 50 121 78C121 105 99 113 84 113C54 113 29 87 29 55C29 9 79 -11 123 -11C189 -11 225 59 228 65C240 28 276 -11 336 -11C439 -11 496 118 496 143C496 153 487 153 484 153C475 153 473 149 471 142C438 35 370 11 338 11C299 11 283 43 283 77C283 99 289 121 300 165L334 302C340 328 363 420 433 420C438 420 462 420 483 407C455 402 435 377 435 353C435 337 446 318 473 318C495 318 527 336 527 376Z" stroke="rgb(0,0,0)" stroke-opacity="1" stroke-width="8" fill="rgb(0,0,0)" fill-opacity="1"></path></g></g><g><g transform="matrix(1,0,0,1,329.48748779296875,228.9999966621399)"><path transform="matrix(0.017,0,0,-0.017,0,0)" d="M722 250C722 261 713 270 702 270L76 270C65 270 56 261 56 250C56 239 65 230 76 230L702 230C713 230 722 239 722 250Z" stroke="rgb(0,0,0)" stroke-opacity="1" stroke-width="8" fill="rgb(0,0,0)" fill-opacity="1"></path></g></g><g><g transform="matrix(1,0,0,1,346.125,228.9999966621399)"><path transform="matrix(0.017,0,0,-0.017,0,0)" d="M330 420C330 431 320 431 302 431L214 431C250 573 255 593 255 599C255 616 243 626 226 626C223 626 195 625 186 590L147 431L53 431C33 431 23 431 23 412C23 400 31 400 51 400L139 400C67 116 63 99 63 81C63 27 101 -11 155 -11C257 -11 314 135 314 143C314 153 306 153 302 153C293 153 292 150 287 139C244 35 191 11 157 11C136 11 126 24 126 57C126 81 128 88 132 105L206 400L300 400C320 400 330 400 330 420ZM851 404C851 422 837 431 822 431C812 431 796 425 787 410C785 405 777 374 773 356L753 276L708 96C704 81 661 11 595 11C544 11 533 55 533 92C533 138 550 200 584 288C600 329 604 340 604 360C604 405 572 442 522 442C427 442 390 297 390 288C390 278 402 278 402 278C412 278 413 280 418 296C445 390 485 420 519 420C527 420 544 420 544 388C544 363 534 337 527 318C487 212 469 155 469 108C469 19 532 -11 591 -11C630 -11 664 6 692 34C679 -18 667 -67 627 -120C601 -154 563 -183 517 -183C503 -183 458 -180 441 -141C457 -141 470 -141 484 -129C494 -120 504 -107 504 -88C504 -57 477 -53 467 -53C444 -53 411 -69 411 -118C411 -168 455 -205 517 -205C620 -205 723 -114 751 -1L847 381C851 395 851 397 851 404Z" stroke="rgb(0,0,0)" stroke-opacity="1" stroke-width="8" fill="rgb(0,0,0)" fill-opacity="1"></path></g></g></g></g><g><g><g><g transform="matrix(1,0,0,1,424,257.40000581741333)"><path transform="matrix(0.017,0,0,-0.017,0,0)" d="M490 404C490 422 476 431 461 431C451 431 435 425 426 410C424 405 416 374 412 356L392 276L347 96C343 81 300 11 234 11C183 11 172 55 172 92C172 138 189 200 223 288C239 329 243 340 243 360C243 405 211 442 161 442C66 442 29 297 29 288C29 278 41 278 41 278C51 278 52 280 57 296C84 390 124 420 158 420C166 420 183 420 183 388C183 363 173 337 166 318C126 212 108 155 108 108C108 19 171 -11 230 -11C269 -11 303 6 331 34C318 -18 306 -67 266 -120C240 -154 202 -183 156 -183C142 -183 97 -180 80 -141C96 -141 109 -141 123 -129C133 -120 143 -107 143 -88C143 -57 116 -53 106 -53C83 -53 50 -69 50 -118C50 -168 94 -205 156 -205C259 -205 362 -114 390 -1L486 381C490 395 490 397 490 404Z" stroke="rgb(0,0,0)" stroke-opacity="1" stroke-width="8" fill="rgb(0,0,0)" fill-opacity="1"></path></g></g></g></g></svg>
</svg>
