<svg xmlns="http://www.w3.org/2000/svg" xmlns:xlink="http://www.w3.org/1999/xlink" x="0" y="0" width="662" height="471" style="
        width:662px;
        height:471px;
        background: #FFF;
        fill: none;
">
        <svg xmlns="http://www.w3.org/2000/svg"><g><defs><pattern id=".13764120944071423" width="60" height="60" patternUnits="userSpaceOnUse"><path d="M 60 0 L 0 0 0 60" fill="none" stroke="lightgray" stroke-width="0.5"/></pattern></defs><rect width="100%" height="100%" fill="url(#.13764120944071423)" stroke="lightgray" stroke-width="0.5"/></g></svg>
        
        <svg xmlns="http://www.w3.org/2000/svg" class="role-diagram-draw-area"><g class="shapes-region" style="stroke: black; fill: none;"><g class="arrow-line"><path class="connection real" stroke-dasharray="" d="  M15.4,444.6 L419.4,239.6" style="stroke: rgb(0, 0, 0); stroke-width: 1; fill: none; fill-opacity: 1;"/></g><g class="composite-shape axis2d" style="stroke-width: 1; stroke: rgb(0, 0, 0);"><path class="real" d=" M11.4,420.46 L510.4,420.46 M61.3,44.8 L61.3,462.2"/><path d=" M503.4,415.46 L510.4,420.46 L503.4,425.46"/><path d=" M56.3,51.8 L61.3,44.8 L66.3,51.8"/><path d=" M121.3,415.46 L121.3,425.46 M181.3,415.46 L181.3,425.46 M241.3,415.46 L241.3,425.46 M301.3,415.46 L301.3,425.46 M361.3,415.46 L361.3,425.46 M421.3,415.46 L421.3,425.46 M481.3,415.46 L481.3,425.46 M56.3,360.46 L66.3,360.46 M56.3,300.46 L66.3,300.46 M56.3,240.46 L66.3,240.46 M56.3,180.46 L66.3,180.46 M56.3,120.46 L66.3,120.46 M56.3,60.46 L66.3,60.46"/><g style="fill: rgb(0, 0, 0); fill-opacity: 1; font-size: 11px; font-weight: normal; text-anchor: end; stroke: none; font-family: Times;"><text x="124.29999389648435" y="435.4600040435791">1</text><text x="184.29999389648435" y="435.4600040435791">2</text><text x="244.29999389648435" y="435.4600040435791">3</text><text x="304.29999389648435" y="435.4600040435791">4</text><text x="364.29999389648435" y="435.4600040435791">5</text><text x="424.29999389648435" y="435.4600040435791">6</text><text x="484.29999389648435" y="435.4600040435791">7</text><text x="54.29999389648435" y="363.4600040435791">1</text><text x="54.29999389648435" y="303.4600040435791">2</text><text x="54.29999389648435" y="243.4600040435791">3</text><text x="54.29999389648435" y="183.4600040435791">4</text><text x="54.29999389648435" y="123.46000404357909">5</text><text x="54.29999389648435" y="63.46000404357909">6</text></g></g><g class="arrow-line"><path class="connection real" stroke-dasharray="" d="  M61.3,420.46 L239.21,180.21" style="stroke: rgb(0, 0, 0); stroke-width: 1; fill: none; fill-opacity: 1;"/><g stroke="#000" transform="matrix(-0.5951033494856164,0.8036491793257804,-0.8036491793257804,-0.5951033494856164,240.39999389648438,178.59999990463257)" style="stroke: rgb(0, 0, 0); stroke-width: 1;"><path d=" M10.93,-3.29 Q4.96,-0.45 0,0 Q4.96,0.45 10.93,3.29"/></g></g><g class="composite-shape"><path class="real" d=" M235.9,178.6 C235.9,176.11 237.91,174.1 240.4,174.1 C242.89,174.1 244.9,176.11 244.9,178.6 C244.9,181.09 242.89,183.1 240.4,183.1 C237.91,183.1 235.9,181.09 235.9,178.6 Z" style="stroke-width: 1; stroke: rgb(0, 0, 0); fill: rgb(74, 144, 226); fill-opacity: 1;"/></g><g class="arrow-line"><path class="connection real" stroke-dasharray="" d="  M235.9,178.6 L301,300.6" style="stroke: rgb(0, 0, 0); stroke-width: 1; fill: none; fill-opacity: 1;"/></g><g class="composite-shape"><path class="real" d=" M296.5,300.6 C296.5,298.11 298.51,296.1 301,296.1 C303.49,296.1 305.5,298.11 305.5,300.6 C305.5,303.09 303.49,305.1 301,305.1 C298.51,305.1 296.5,303.09 296.5,300.6 Z" style="stroke-width: 1; stroke: rgb(0, 0, 0); fill: rgb(74, 144, 226); fill-opacity: 1;"/></g><g class="composite-shape"><path class="real" d=" M298,291.6 L311.19,285.1 L314.95,292.73 L301.76,299.23 Z" style="stroke-width: 1; stroke: rgb(0, 0, 0); fill: none; fill-opacity: 1;"/></g><g class="arrow-line"><path class="connection real" stroke-dasharray="" d="  M61.8,420.53 L299.21,301.5" style="stroke: rgb(0, 0, 0); stroke-width: 1; fill: none; fill-opacity: 1;"/><g stroke="#000" transform="matrix(-0.8939196681711973,0.4482272045031365,-0.4482272045031365,-0.8939196681711973,301,300.60000228881836)" style="stroke: rgb(0, 0, 0); stroke-width: 1;"><path d=" M10.93,-3.29 Q4.96,-0.45 0,0 Q4.96,0.45 10.93,3.29"/></g></g><g/></g><g/><g/><g/></svg>
        <svg xmlns="http://www.w3.org/2000/svg" xmlns:xlink="http://www.w3.org/1999/xlink" width="660" height="469" style="width:660px;height:469px;font-family:LatinModern-Math, LatinModern, Asana-Math, Asana;background:#FFF;"><g><g><g><g transform="matrix(1,0,0,1,423,265.9999942779541)"><path transform="matrix(0.017,0,0,-0.017,0,0)" d="M760 695C760 698 758 705 749 705C746 705 745 704 734 693L664 616C655 630 609 705 498 705C275 705 50 484 50 252C50 87 168 -22 321 -22C408 -22 484 18 537 64C630 146 647 237 647 240C647 250 635 250 635 250C629 250 624 248 622 240C613 211 590 140 521 82C452 26 389 9 337 9C247 9 141 61 141 217C141 274 162 436 262 553C323 624 417 674 506 674C608 674 667 597 667 481C667 441 664 440 664 430C664 420 675 420 679 420C692 420 692 422 697 440Z" stroke="rgb(0,0,0)" stroke-opacity="1" stroke-width="8" fill="rgb(0,0,0)" fill-opacity="1"></path></g></g><g><g transform="matrix(1,0,0,1,435.16253662109375,265.9999942779541)"><path transform="matrix(0.017,0,0,-0.017,0,0)" d="M332 -238C332 -235 330 -232 328 -230C224 -152 155 48 155 208L155 292C155 452 224 652 328 730C330 732 332 735 332 738C332 743 327 748 322 748C320 748 318 747 316 746C206 663 101 463 101 292L101 208C101 37 206 -163 316 -246C318 -247 320 -248 322 -248C327 -248 332 -243 332 -238Z" stroke="rgb(0,0,0)" stroke-opacity="1" stroke-width="8" fill="rgb(0,0,0)" fill-opacity="1"></path></g></g><g><g transform="matrix(1,0,0,1,441.78753662109375,265.9999942779541)"><path transform="matrix(0.017,0,0,-0.017,0,0)" d="M721 20C721 31 711 31 698 31C636 31 636 38 633 67L572 692C570 712 570 716 553 716C537 716 533 709 527 699L179 115C139 48 100 34 56 31C44 30 35 30 35 11C35 5 40 0 48 0C75 0 106 3 134 3C167 3 202 0 234 0C240 0 253 0 253 19C253 30 244 31 237 31C214 33 190 41 190 66C190 78 196 89 204 103C211 115 212 115 280 231L531 231C533 210 547 74 547 64C547 34 495 31 475 31C461 31 451 31 451 11C451 0 465 0 465 0C506 0 549 3 590 3C615 3 678 0 703 0C709 0 721 0 721 20ZM528 262L299 262L496 592Z" stroke="rgb(0,0,0)" stroke-opacity="1" stroke-width="8" fill="rgb(0,0,0)" fill-opacity="1"></path></g></g><g><g transform="matrix(1,0,0,1,454.53753662109375,265.9999942779541)"><path transform="matrix(0.017,0,0,-0.017,0,0)" d="M288 208L288 292C288 463 183 663 73 746C71 747 69 748 67 748C62 748 57 743 57 738C57 735 59 732 61 730C165 652 234 452 234 292L234 208C234 48 165 -152 61 -230C59 -232 57 -235 57 -238C57 -243 62 -248 67 -248C69 -248 71 -247 73 -246C183 -163 288 37 288 208Z" stroke="rgb(0,0,0)" stroke-opacity="1" stroke-width="8" fill="rgb(0,0,0)" fill-opacity="1"></path></g></g></g></g><g><g><g><g transform="matrix(1,0,0,1,144,266.9999942779541)"><path transform="matrix(0.017,0,0,-0.017,0,0)" d="M415 282C415 373 362 442 282 442C236 442 195 413 165 382L239 683C239 683 239 694 226 694C203 694 130 686 104 684C96 683 85 682 85 664C85 652 94 652 109 652C157 652 159 645 159 635C159 628 150 594 145 573L63 247C51 197 47 181 47 146C47 51 100 -11 174 -11C292 -11 415 138 415 282ZM343 326C343 267 310 152 292 114C259 47 213 11 174 11C140 11 107 38 107 112C107 131 107 150 123 213L145 305C151 327 151 329 160 340C209 405 254 420 280 420C316 420 343 390 343 326Z" stroke="rgb(0,0,0)" stroke-opacity="1" stroke-width="8" fill="rgb(0,0,0)" fill-opacity="1"></path></g></g></g></g><g><g><g><g transform="matrix(1,0,0,1,202,376.9999942779541)"><path transform="matrix(0.017,0,0,-0.017,0,0)" d="M721 20C721 31 711 31 698 31C636 31 636 38 633 67L572 692C570 712 570 716 553 716C537 716 533 709 527 699L179 115C139 48 100 34 56 31C44 30 35 30 35 11C35 5 40 0 48 0C75 0 106 3 134 3C167 3 202 0 234 0C240 0 253 0 253 19C253 30 244 31 237 31C214 33 190 41 190 66C190 78 196 89 204 103C211 115 212 115 280 231L531 231C533 210 547 74 547 64C547 34 495 31 475 31C461 31 451 31 451 11C451 0 465 0 465 0C506 0 549 3 590 3C615 3 678 0 703 0C709 0 721 0 721 20ZM528 262L299 262L496 592Z" stroke="rgb(0,0,0)" stroke-opacity="1" stroke-width="8" fill="rgb(0,0,0)" fill-opacity="1"></path></g></g><g><g><g><g><g transform="matrix(1,0,0,1,214.75,376.9999942779541)"><path transform="matrix(0.017,0,0,-0.017,0,0)" d="M527 376C527 428 468 442 434 442C376 442 341 389 329 366C304 432 250 442 221 442C117 442 60 313 60 288C60 278 72 278 72 278C80 278 83 280 85 289C119 395 185 420 219 420C238 420 273 411 273 353C273 322 256 255 219 115C203 53 168 11 124 11C118 11 95 11 74 24C99 29 121 50 121 78C121 105 99 113 84 113C54 113 29 87 29 55C29 9 79 -11 123 -11C189 -11 225 59 228 65C240 28 276 -11 336 -11C439 -11 496 118 496 143C496 153 487 153 484 153C475 153 473 149 471 142C438 35 370 11 338 11C299 11 283 43 283 77C283 99 289 121 300 165L334 302C340 328 363 420 433 420C438 420 462 420 483 407C455 402 435 377 435 353C435 337 446 318 473 318C495 318 527 336 527 376Z" stroke="rgb(0,0,0)" stroke-opacity="1" stroke-width="8" fill="rgb(0,0,0)" fill-opacity="1"></path></g></g></g></g><svg x="214.75" overflow="visible" y="357.9999942779541" height="9" width="9.725000381469727"><polyline points="0.00,8.06 4.86,4.81 9.73,8.06" style="fill:none;fill-opacity:1;stroke-width:1px;stroke:rgb(0,0,0);stroke-opacity:1;"></polyline></svg></g></g></g><g><g><g><g transform="matrix(1,0,0,1,285,229.00000953674316)"><path transform="matrix(0.017,0,0,-0.017,0,0)" d="M430 107C430 113 424 120 418 120C413 120 411 118 405 110C326 11 217 11 205 11C127 11 118 95 118 127C118 139 119 170 134 231L187 231C216 231 290 233 340 254C410 284 415 343 415 357C415 401 377 442 308 442C197 442 46 345 46 170C46 68 105 -11 203 -11C346 -11 430 95 430 107ZM382 357C382 253 222 253 181 253L140 253C179 405 282 420 308 420C355 420 382 391 382 357Z" stroke="rgb(0,0,0)" stroke-opacity="1" stroke-width="8" fill="rgb(0,0,0)" fill-opacity="1"></path></g></g></g></g></svg>
</svg>
