<svg xmlns="http://www.w3.org/2000/svg" xmlns:xlink="http://www.w3.org/1999/xlink" x="0" y="0" width="662" height="351" style="
        width:662px;
        height:351px;
        background: #FFF;
        fill: none;
">
        <svg xmlns="http://www.w3.org/2000/svg"/>
        
        <svg xmlns="http://www.w3.org/2000/svg" class="role-diagram-draw-area"><g class="shapes-region" style="stroke: black; fill: none;"><g class="composite-shape axis2d" style="stroke-width: 1; stroke: rgb(0, 0, 0);"><path class="real" d=" M90,275.9 L558,275.9 M136.8,5 L136.8,306"/><path d=" M551,270.9 L558,275.9 L551,280.9"/><path d=" M131.8,12 L136.8,5 L141.8,12"/><path d=" M224.8,270.9 L224.8,280.9 M312.8,270.9 L312.8,280.9 M400.8,270.9 L400.8,280.9 M488.8,270.9 L488.8,280.9 M131.8,187.9 L141.8,187.9 M131.8,99.9 L141.8,99.9"/><g style="fill: rgb(0, 0, 0); fill-opacity: 1; font-size: 11px; font-weight: normal; text-anchor: end; stroke: none; font-family: Times;"/></g><g class="composite-shape"><path class="real" d=" M395,99.5 C395,95.91 397.91,93 401.5,93 C405.09,93 408,95.91 408,99.5 C408,103.09 405.09,106 401.5,106 C397.91,106 395,103.09 395,99.5 Z" style="stroke-width: 1; stroke: rgb(0, 0, 0); fill: rgb(29, 26, 220); fill-opacity: 1;"/></g><g class="arrow-line"><path class="connection real" stroke-dasharray="1.125 3.35" d="  M136,100 L514,100" style="stroke: rgb(0, 0, 0); stroke-width: 1; fill: none; fill-opacity: 1;"/></g><g class="arrow-line"><path class="connection real" stroke-dasharray="1.125 3.35" d="  M401,55 L401,277" style="stroke: rgb(0, 0, 0); stroke-width: 1; fill: none; fill-opacity: 1;"/></g><g class="arrow-line"><path class="connection real" stroke-dasharray="" d="  M401.5,99.5 L136.8,275.9" style="stroke: rgb(0, 0, 0); stroke-width: 1; fill: none; fill-opacity: 1;"/></g><g class="composite-shape"><path class="real" d=" M166.77,255.49 C167.27,255.42 167.79,255.38 168.3,255.37 C177.12,255.2 184.44,264.21 184.66,275.49 C184.67,275.66 184.67,275.83 184.67,276 L168.7,275.8 Z" style="stroke-width: 1; stroke: none; fill: none; fill-opacity: 1;"/><path class="real" d=" M166.77,255.49 C167.27,255.42 167.79,255.38 168.3,255.37 C177.12,255.2 184.44,264.21 184.66,275.49 C184.67,275.66 184.67,275.83 184.67,276" style="stroke-width: 1; stroke: rgb(0, 0, 0); fill: none; fill-opacity: 1;"/></g><g/></g><g/><g/><g/></svg>
        <svg xmlns="http://www.w3.org/2000/svg" xmlns:xlink="http://www.w3.org/1999/xlink" width="660" height="349" style="width:660px;height:349px;font-family:LatinModern-Math, LatinModern, Asana-Math, Asana;background:#FFF;"><g><g><g><g transform="matrix(1,0,0,1,268,171.5)"><path transform="matrix(0.017,0,0,-0.017,0,0)" d="M436 377C436 412 404 442 353 442C288 442 244 393 225 365C217 410 181 442 134 442C88 442 69 403 60 385C42 351 29 291 29 288C29 278 41 278 41 278C51 278 52 279 58 301C75 372 95 420 131 420C148 420 162 412 162 374C162 353 159 342 146 290L88 59C85 44 79 21 79 16C79 -2 93 -11 108 -11C120 -11 138 -3 145 17C147 21 181 157 185 175L217 305C221 318 249 365 273 387C281 394 310 420 353 420C379 420 395 408 395 408C365 403 343 379 343 353C343 337 354 318 381 318C408 318 436 341 436 377Z" stroke="rgb(0,0,0)" stroke-opacity="1" stroke-width="8" fill="rgb(0,0,0)" fill-opacity="1"></path></g></g></g></g><g><g><g><text x="570" y="268" style="white-space:pre;stroke:none;fill:rgb(0,0,0);fill-opacity:1;font-size:15px;font-family:&quot;Courier New&quot;, Courier, monospace;font-weight:400;font-style:normal;dominant-baseline:text-before-edge;text-decoration:none solid rgb(0, 0, 0);">Real</text></g></g></g><g><g><g><text x="86" y="23" style="white-space:pre;stroke:none;fill:rgb(0,0,0);fill-opacity:1;font-size:15px;font-family:&quot;Courier New&quot;, Courier, monospace;font-weight:400;font-style:normal;dominant-baseline:text-before-edge;text-decoration:none solid rgb(0, 0, 0);">Imag</text></g></g></g><g><g><g><g transform="matrix(1,0,0,1,189,264.5)"><path transform="matrix(0.017,0,0,-0.017,0,0)" d="M455 500C455 566 437 705 335 705C196 705 42 423 42 194C42 100 71 -11 162 -11C303 -11 455 276 455 500ZM389 562C389 513 381 462 357 363L148 363C165 427 185 507 225 578C252 627 289 683 334 683C383 683 389 619 389 562ZM348 331C337 285 316 200 278 128C243 60 205 11 162 11C129 11 108 40 108 133C108 175 114 233 140 331Z" stroke="rgb(0,0,0)" stroke-opacity="1" stroke-width="8" fill="rgb(0,0,0)" fill-opacity="1"></path></g></g></g></g><g><g><g><g transform="matrix(1,0,0,1,253,313.5)"><path transform="matrix(0.017,0,0,-0.017,0,0)" d="M436 377C436 412 404 442 353 442C288 442 244 393 225 365C217 410 181 442 134 442C88 442 69 403 60 385C42 351 29 291 29 288C29 278 41 278 41 278C51 278 52 279 58 301C75 372 95 420 131 420C148 420 162 412 162 374C162 353 159 342 146 290L88 59C85 44 79 21 79 16C79 -2 93 -11 108 -11C120 -11 138 -3 145 17C147 21 181 157 185 175L217 305C221 318 249 365 273 387C281 394 310 420 353 420C379 420 395 408 395 408C365 403 343 379 343 353C343 337 354 318 381 318C408 318 436 341 436 377Z" stroke="rgb(0,0,0)" stroke-opacity="1" stroke-width="8" fill="rgb(0,0,0)" fill-opacity="1"></path></g></g><g><g><g transform="matrix(1,0,0,1,266.3125,313.5)"><path transform="matrix(0.017,0,0,-0.017,0,0)" d="M415 119C415 129 405 129 402 129C393 129 391 125 389 119C360 26 295 14 258 14C205 14 117 57 117 218C117 381 199 423 252 423C261 423 324 422 359 386C318 383 312 353 312 340C312 314 330 294 358 294C384 294 404 311 404 341C404 409 328 448 251 448C126 448 34 340 34 216C34 88 133 -11 249 -11C383 -11 415 109 415 119ZM915 214C915 342 815 448 694 448C569 448 472 339 472 214C472 85 576 -11 693 -11C814 -11 915 87 915 214ZM832 222C832 186 832 132 810 88C788 43 744 14 694 14C651 14 607 35 580 81C555 125 555 186 555 222C555 261 555 315 579 359C606 405 653 426 693 426C737 426 780 404 806 361C832 318 832 260 832 222ZM1304 128C1304 181 1274 211 1262 223C1229 255 1190 263 1148 271C1092 282 1025 295 1025 353C1025 388 1051 429 1137 429C1247 429 1252 339 1254 308C1255 299 1266 299 1266 299C1279 299 1279 304 1279 323L1279 424C1279 441 1279 448 1268 448C1263 448 1261 448 1248 436C1245 432 1235 423 1231 420C1193 448 1152 448 1137 448C1015 448 977 381 977 325C977 290 993 262 1020 240C1052 214 1080 208 1152 194C1174 190 1256 174 1256 102C1256 51 1221 11 1143 11C1059 11 1023 68 1004 153C1001 166 1000 170 990 170C977 170 977 163 977 145L977 13C977 -4 977 -11 988 -11C993 -11 994 -10 1013 9C1015 11 1015 13 1033 32C1077 -10 1122 -11 1143 -11C1258 -11 1304 56 1304 128Z" stroke="rgb(0,0,0)" stroke-opacity="1" stroke-width="8" fill="rgb(0,0,0)" fill-opacity="1"></path></g></g></g><g><g transform="matrix(1,0,0,1,292.4609375,313.5)"><path transform="matrix(0.017,0,0,-0.017,0,0)" d="M455 500C455 566 437 705 335 705C196 705 42 423 42 194C42 100 71 -11 162 -11C303 -11 455 276 455 500ZM389 562C389 513 381 462 357 363L148 363C165 427 185 507 225 578C252 627 289 683 334 683C383 683 389 619 389 562ZM348 331C337 285 316 200 278 128C243 60 205 11 162 11C129 11 108 40 108 133C108 175 114 233 140 331Z" stroke="rgb(0,0,0)" stroke-opacity="1" stroke-width="8" fill="rgb(0,0,0)" fill-opacity="1"></path></g></g></g></g><g><g><g><g transform="matrix(1,0,0,1,412,195.5)"><path transform="matrix(0.017,0,0,-0.017,0,0)" d="M436 377C436 412 404 442 353 442C288 442 244 393 225 365C217 410 181 442 134 442C88 442 69 403 60 385C42 351 29 291 29 288C29 278 41 278 41 278C51 278 52 279 58 301C75 372 95 420 131 420C148 420 162 412 162 374C162 353 159 342 146 290L88 59C85 44 79 21 79 16C79 -2 93 -11 108 -11C120 -11 138 -3 145 17C147 21 181 157 185 175L217 305C221 318 249 365 273 387C281 394 310 420 353 420C379 420 395 408 395 408C365 403 343 379 343 353C343 337 354 318 381 318C408 318 436 341 436 377Z" stroke="rgb(0,0,0)" stroke-opacity="1" stroke-width="8" fill="rgb(0,0,0)" fill-opacity="1"></path></g></g><g><g><g transform="matrix(1,0,0,1,425.3125,195.5)"><path transform="matrix(0.017,0,0,-0.017,0,0)" d="M360 128C360 181 330 211 318 223C285 255 246 263 204 271C148 282 81 295 81 353C81 388 107 429 193 429C303 429 308 339 310 308C311 299 322 299 322 299C335 299 335 304 335 323L335 424C335 441 335 448 324 448C319 448 317 448 304 436C301 432 291 423 287 420C249 448 208 448 193 448C71 448 33 381 33 325C33 290 49 262 76 240C108 214 136 208 208 194C230 190 312 174 312 102C312 51 277 11 199 11C115 11 79 68 60 153C57 166 56 170 46 170C33 170 33 163 33 145L33 13C33 -4 33 -11 44 -11C49 -11 50 -10 69 9C71 11 71 13 89 32C133 -10 178 -11 199 -11C314 -11 360 56 360 128ZM641 0L641 31C575 31 571 36 571 75L571 442L431 431L431 400C496 400 505 394 505 345L505 76C505 31 494 31 427 31L427 0L537 3C572 3 607 1 641 0ZM586 604C586 631 563 657 533 657C499 657 479 629 479 604C479 577 502 551 532 551C566 551 586 579 586 604ZM1207 0L1207 31C1155 31 1130 31 1129 61L1129 252C1129 338 1129 369 1098 405C1084 422 1051 442 993 442C920 442 873 399 845 337L845 442L704 431L704 400C774 400 782 393 782 344L782 76C782 31 771 31 704 31L704 0L817 3L929 0L929 31C862 31 851 31 851 76L851 260C851 364 922 420 986 420C1049 420 1060 366 1060 309L1060 76C1060 31 1049 31 982 31L982 0L1095 3Z" stroke="rgb(0,0,0)" stroke-opacity="1" stroke-width="8" fill="rgb(0,0,0)" fill-opacity="1"></path></g></g></g><g><g transform="matrix(1,0,0,1,449.59375,195.5)"><path transform="matrix(0.017,0,0,-0.017,0,0)" d="M455 500C455 566 437 705 335 705C196 705 42 423 42 194C42 100 71 -11 162 -11C303 -11 455 276 455 500ZM389 562C389 513 381 462 357 363L148 363C165 427 185 507 225 578C252 627 289 683 334 683C383 683 389 619 389 562ZM348 331C337 285 316 200 278 128C243 60 205 11 162 11C129 11 108 40 108 133C108 175 114 233 140 331Z" stroke="rgb(0,0,0)" stroke-opacity="1" stroke-width="8" fill="rgb(0,0,0)" fill-opacity="1"></path></g></g></g></g><g><g><g><g transform="matrix(1,0,0,1,414,84.09375)"><path transform="matrix(0.017,0,0,-0.017,0,0)" d="M436 377C436 412 404 442 353 442C288 442 244 393 225 365C217 410 181 442 134 442C88 442 69 403 60 385C42 351 29 291 29 288C29 278 41 278 41 278C51 278 52 279 58 301C75 372 95 420 131 420C148 420 162 412 162 374C162 353 159 342 146 290L88 59C85 44 79 21 79 16C79 -2 93 -11 108 -11C120 -11 138 -3 145 17C147 21 181 157 185 175L217 305C221 318 249 365 273 387C281 394 310 420 353 420C379 420 395 408 395 408C365 403 343 379 343 353C343 337 354 318 381 318C408 318 436 341 436 377ZM881 107C881 113 875 120 869 120C864 120 862 118 856 110C777 11 668 11 656 11C578 11 569 95 569 127C569 139 570 170 585 231L638 231C667 231 741 233 791 254C861 284 866 343 866 357C866 401 828 442 759 442C648 442 497 345 497 170C497 68 556 -11 654 -11C797 -11 881 95 881 107ZM833 357C833 253 673 253 632 253L591 253C630 405 733 420 759 420C806 420 833 391 833 357Z" stroke="rgb(0,0,0)" stroke-opacity="1" stroke-width="8" fill="rgb(0,0,0)" fill-opacity="1"></path></g></g><g><g><g><g><g transform="matrix(1,0,0,1,430.5703125,77.4)"><path transform="matrix(0.0119,0,0,-0.0119,0,0)" d="M284 625C284 645 270 661 247 661C220 661 193 635 193 608C193 589 207 572 231 572C254 572 284 595 284 625ZM293 143C293 153 284 153 281 153C271 153 271 150 266 135C248 72 215 11 164 11C147 11 140 21 140 44C140 69 146 83 169 144L208 249C220 278 220 280 230 307C238 327 243 341 243 360C243 405 211 442 161 442C67 442 29 297 29 288C29 278 41 278 41 278C51 278 52 280 57 296C84 390 124 420 158 420C166 420 183 420 183 388C183 367 176 346 172 336C164 310 119 194 103 151C93 125 80 92 80 71C80 24 114 -11 162 -11C256 -11 293 134 293 143ZM800 500C800 566 782 705 680 705C541 705 387 423 387 194C387 100 416 -11 507 -11C648 -11 800 276 800 500ZM734 562C734 513 726 462 702 363L493 363C510 427 530 507 570 578C597 627 634 683 679 683C728 683 734 619 734 562ZM693 331C682 285 661 200 623 128C588 60 550 11 507 11C474 11 453 40 453 133C453 175 459 233 485 331Z" stroke="rgb(0,0,0)" stroke-opacity="1" stroke-width="8" fill="rgb(0,0,0)" fill-opacity="1"></path></g></g></g></g></g><g><g transform="matrix(1,0,0,1,446.3671875,84.09375)"><path transform="matrix(0.017,0,0,-0.017,0,0)" d="M722 347C722 358 713 367 702 367L76 367C65 367 56 358 56 347C56 336 65 327 76 327L702 327C713 327 722 336 722 347ZM722 153C722 164 713 173 702 173L76 173C65 173 56 164 56 153C56 142 65 133 76 133L702 133C713 133 722 142 722 153Z" stroke="rgb(0,0,0)" stroke-opacity="1" stroke-width="8" fill="rgb(0,0,0)" fill-opacity="1"></path></g></g><g><g transform="matrix(1,0,0,1,464.6875,84.09375)"><path transform="matrix(0.017,0,0,-0.017,0,0)" d="M436 377C436 412 404 442 353 442C288 442 244 393 225 365C217 410 181 442 134 442C88 442 69 403 60 385C42 351 29 291 29 288C29 278 41 278 41 278C51 278 52 279 58 301C75 372 95 420 131 420C148 420 162 412 162 374C162 353 159 342 146 290L88 59C85 44 79 21 79 16C79 -2 93 -11 108 -11C120 -11 138 -3 145 17C147 21 181 157 185 175L217 305C221 318 249 365 273 387C281 394 310 420 353 420C379 420 395 408 395 408C365 403 343 379 343 353C343 337 354 318 381 318C408 318 436 341 436 377Z" stroke="rgb(0,0,0)" stroke-opacity="1" stroke-width="8" fill="rgb(0,0,0)" fill-opacity="1"></path></g></g><g><g transform="matrix(1,0,0,1,472.359375,84.59375)"><path transform="matrix(0.017,0,0,-0.017,0,0)" d="M332 -238C332 -235 330 -232 328 -230C224 -152 155 48 155 208L155 292C155 452 224 652 328 730C330 732 332 735 332 738C332 743 327 748 322 748C320 748 318 747 316 746C206 663 101 463 101 292L101 208C101 37 206 -163 316 -246C318 -247 320 -248 322 -248C327 -248 332 -243 332 -238Z" stroke="rgb(0,0,0)" stroke-opacity="1" stroke-width="8" fill="rgb(0,0,0)" fill-opacity="1"></path></g></g><g><g><g transform="matrix(1,0,0,1,478.9765625,84.09375)"><path transform="matrix(0.017,0,0,-0.017,0,0)" d="M415 119C415 129 405 129 402 129C393 129 391 125 389 119C360 26 295 14 258 14C205 14 117 57 117 218C117 381 199 423 252 423C261 423 324 422 359 386C318 383 312 353 312 340C312 314 330 294 358 294C384 294 404 311 404 341C404 409 328 448 251 448C126 448 34 340 34 216C34 88 133 -11 249 -11C383 -11 415 109 415 119ZM915 214C915 342 815 448 694 448C569 448 472 339 472 214C472 85 576 -11 693 -11C814 -11 915 87 915 214ZM832 222C832 186 832 132 810 88C788 43 744 14 694 14C651 14 607 35 580 81C555 125 555 186 555 222C555 261 555 315 579 359C606 405 653 426 693 426C737 426 780 404 806 361C832 318 832 260 832 222ZM1304 128C1304 181 1274 211 1262 223C1229 255 1190 263 1148 271C1092 282 1025 295 1025 353C1025 388 1051 429 1137 429C1247 429 1252 339 1254 308C1255 299 1266 299 1266 299C1279 299 1279 304 1279 323L1279 424C1279 441 1279 448 1268 448C1263 448 1261 448 1248 436C1245 432 1235 423 1231 420C1193 448 1152 448 1137 448C1015 448 977 381 977 325C977 290 993 262 1020 240C1052 214 1080 208 1152 194C1174 190 1256 174 1256 102C1256 51 1221 11 1143 11C1059 11 1023 68 1004 153C1001 166 1000 170 990 170C977 170 977 163 977 145L977 13C977 -4 977 -11 988 -11C993 -11 994 -10 1013 9C1015 11 1015 13 1033 32C1077 -10 1122 -11 1143 -11C1258 -11 1304 56 1304 128Z" stroke="rgb(0,0,0)" stroke-opacity="1" stroke-width="8" fill="rgb(0,0,0)" fill-opacity="1"></path></g></g></g><g><g transform="matrix(1,0,0,1,505.125,84.09375)"><path transform="matrix(0.017,0,0,-0.017,0,0)" d="M455 500C455 566 437 705 335 705C196 705 42 423 42 194C42 100 71 -11 162 -11C303 -11 455 276 455 500ZM389 562C389 513 381 462 357 363L148 363C165 427 185 507 225 578C252 627 289 683 334 683C383 683 389 619 389 562ZM348 331C337 285 316 200 278 128C243 60 205 11 162 11C129 11 108 40 108 133C108 175 114 233 140 331Z" stroke="rgb(0,0,0)" stroke-opacity="1" stroke-width="8" fill="rgb(0,0,0)" fill-opacity="1"></path></g></g><g><g transform="matrix(1,0,0,1,516.5,84.09375)"><path transform="matrix(0.017,0,0,-0.017,0,0)" d="M722 250C722 261 713 270 702 270L409 270L409 563C409 574 400 583 389 583C378 583 369 574 369 563L369 270L76 270C65 270 56 261 56 250C56 239 65 230 76 230L369 230L369 -63C369 -74 378 -83 389 -83C400 -83 409 -74 409 -63L409 230L702 230C713 230 722 239 722 250Z" stroke="rgb(0,0,0)" stroke-opacity="1" stroke-width="8" fill="rgb(0,0,0)" fill-opacity="1"></path></g></g><g><g transform="matrix(1,0,0,1,533.125,84.09375)"><path transform="matrix(0.017,0,0,-0.017,0,0)" d="M284 625C284 645 270 661 247 661C220 661 193 635 193 608C193 589 207 572 231 572C254 572 284 595 284 625ZM293 143C293 153 284 153 281 153C271 153 271 150 266 135C248 72 215 11 164 11C147 11 140 21 140 44C140 69 146 83 169 144L208 249C220 278 220 280 230 307C238 327 243 341 243 360C243 405 211 442 161 442C67 442 29 297 29 288C29 278 41 278 41 278C51 278 52 280 57 296C84 390 124 420 158 420C166 420 183 420 183 388C183 367 176 346 172 336C164 310 119 194 103 151C93 125 80 92 80 71C80 24 114 -11 162 -11C256 -11 293 134 293 143Z" stroke="rgb(0,0,0)" stroke-opacity="1" stroke-width="8" fill="rgb(0,0,0)" fill-opacity="1"></path></g></g><g><g><g transform="matrix(1,0,0,1,542.390625,84.09375)"><path transform="matrix(0.017,0,0,-0.017,0,0)" d="M360 128C360 181 330 211 318 223C285 255 246 263 204 271C148 282 81 295 81 353C81 388 107 429 193 429C303 429 308 339 310 308C311 299 322 299 322 299C335 299 335 304 335 323L335 424C335 441 335 448 324 448C319 448 317 448 304 436C301 432 291 423 287 420C249 448 208 448 193 448C71 448 33 381 33 325C33 290 49 262 76 240C108 214 136 208 208 194C230 190 312 174 312 102C312 51 277 11 199 11C115 11 79 68 60 153C57 166 56 170 46 170C33 170 33 163 33 145L33 13C33 -4 33 -11 44 -11C49 -11 50 -10 69 9C71 11 71 13 89 32C133 -10 178 -11 199 -11C314 -11 360 56 360 128ZM641 0L641 31C575 31 571 36 571 75L571 442L431 431L431 400C496 400 505 394 505 345L505 76C505 31 494 31 427 31L427 0L537 3C572 3 607 1 641 0ZM586 604C586 631 563 657 533 657C499 657 479 629 479 604C479 577 502 551 532 551C566 551 586 579 586 604ZM1207 0L1207 31C1155 31 1130 31 1129 61L1129 252C1129 338 1129 369 1098 405C1084 422 1051 442 993 442C920 442 873 399 845 337L845 442L704 431L704 400C774 400 782 393 782 344L782 76C782 31 771 31 704 31L704 0L817 3L929 0L929 31C862 31 851 31 851 76L851 260C851 364 922 420 986 420C1049 420 1060 366 1060 309L1060 76C1060 31 1049 31 982 31L982 0L1095 3Z" stroke="rgb(0,0,0)" stroke-opacity="1" stroke-width="8" fill="rgb(0,0,0)" fill-opacity="1"></path></g></g></g><g><g transform="matrix(1,0,0,1,566.671875,84.09375)"><path transform="matrix(0.017,0,0,-0.017,0,0)" d="M455 500C455 566 437 705 335 705C196 705 42 423 42 194C42 100 71 -11 162 -11C303 -11 455 276 455 500ZM389 562C389 513 381 462 357 363L148 363C165 427 185 507 225 578C252 627 289 683 334 683C383 683 389 619 389 562ZM348 331C337 285 316 200 278 128C243 60 205 11 162 11C129 11 108 40 108 133C108 175 114 233 140 331Z" stroke="rgb(0,0,0)" stroke-opacity="1" stroke-width="8" fill="rgb(0,0,0)" fill-opacity="1"></path></g></g><g><g transform="matrix(1,0,0,1,574.6484375,84.59375)"><path transform="matrix(0.017,0,0,-0.017,0,0)" d="M288 208L288 292C288 463 183 663 73 746C71 747 69 748 67 748C62 748 57 743 57 738C57 735 59 732 61 730C165 652 234 452 234 292L234 208C234 48 165 -152 61 -230C59 -232 57 -235 57 -238C57 -243 62 -248 67 -248C69 -248 71 -247 73 -246C183 -163 288 37 288 208Z" stroke="rgb(0,0,0)" stroke-opacity="1" stroke-width="8" fill="rgb(0,0,0)" fill-opacity="1"></path></g></g></g></g></svg>
</svg>
