<svg xmlns="http://www.w3.org/2000/svg" xmlns:xlink="http://www.w3.org/1999/xlink" x="0" y="0" width="662" height="471" style="
        width:662px;
        height:471px;
        background: #FFF;
        fill: none;
">
        <svg xmlns="http://www.w3.org/2000/svg"><g><defs><pattern id=".2914559598551769" width="60" height="60" patternUnits="userSpaceOnUse"><path d="M 60 0 L 0 0 0 60" fill="none" stroke="lightgray" stroke-width="0.5"/></pattern></defs><rect width="100%" height="100%" fill="url(#.2914559598551769)" stroke="lightgray" stroke-width="0.5"/></g></svg>
        
        <svg xmlns="http://www.w3.org/2000/svg" class="role-diagram-draw-area"><g class="shapes-region" style="stroke: black; fill: none;"><g class="arrow-line"><path class="connection real" stroke-dasharray="" d="  M15.4,444.6 L419.4,239.6" style="stroke: rgb(0, 0, 0); stroke-width: 1; fill: none; fill-opacity: 1;"/></g><g class="composite-shape axis2d" style="stroke-width: 1; stroke: rgb(0, 0, 0);"><path class="real" d=" M11.4,420.46 L510.4,420.46 M61.3,44.8 L61.3,462.2"/><path d=" M503.4,415.46 L510.4,420.46 L503.4,425.46"/><path d=" M56.3,51.8 L61.3,44.8 L66.3,51.8"/><path d=" M121.3,415.46 L121.3,425.46 M181.3,415.46 L181.3,425.46 M241.3,415.46 L241.3,425.46 M301.3,415.46 L301.3,425.46 M361.3,415.46 L361.3,425.46 M421.3,415.46 L421.3,425.46 M481.3,415.46 L481.3,425.46 M56.3,360.46 L66.3,360.46 M56.3,300.46 L66.3,300.46 M56.3,240.46 L66.3,240.46 M56.3,180.46 L66.3,180.46 M56.3,120.46 L66.3,120.46 M56.3,60.46 L66.3,60.46"/><g style="fill: rgb(0, 0, 0); fill-opacity: 1; font-size: 11px; font-weight: normal; text-anchor: end; stroke: none; font-family: Times;"><text x="124.29999389648435" y="435.4600040435791">1</text><text x="184.29999389648435" y="435.4600040435791">2</text><text x="244.29999389648435" y="435.4600040435791">3</text><text x="304.29999389648435" y="435.4600040435791">4</text><text x="364.29999389648435" y="435.4600040435791">5</text><text x="424.29999389648435" y="435.4600040435791">6</text><text x="484.29999389648435" y="435.4600040435791">7</text><text x="54.29999389648435" y="363.4600040435791">1</text><text x="54.29999389648435" y="303.4600040435791">2</text><text x="54.29999389648435" y="243.4600040435791">3</text><text x="54.29999389648435" y="183.4600040435791">4</text><text x="54.29999389648435" y="123.46000404357909">5</text><text x="54.29999389648435" y="63.46000404357909">6</text></g></g><g class="arrow-line"><path class="connection real" stroke-dasharray="" d="  M61.3,420.46 L239.21,180.21" style="stroke: rgb(0, 0, 0); stroke-width: 1; fill: none; fill-opacity: 1;"/><g stroke="#000" transform="matrix(-0.5951033494856164,0.8036491793257804,-0.8036491793257804,-0.5951033494856164,240.39999389648438,178.59999990463257)" style="stroke: rgb(0, 0, 0); stroke-width: 1;"><path d=" M10.93,-3.29 Q4.96,-0.45 0,0 Q4.96,0.45 10.93,3.29"/></g></g><g class="composite-shape"><path class="real" d=" M235.9,178.6 C235.9,176.11 237.91,174.1 240.4,174.1 C242.89,174.1 244.9,176.11 244.9,178.6 C244.9,181.09 242.89,183.1 240.4,183.1 C237.91,183.1 235.9,181.09 235.9,178.6 Z" style="stroke-width: 1; stroke: rgb(0, 0, 0); fill: rgb(74, 144, 226); fill-opacity: 1;"/></g><g class="arrow-line"><path class="connection real" stroke-dasharray="" d="  M235.9,178.6 L301,300.6" style="stroke: rgb(0, 0, 0); stroke-width: 1; fill: none; fill-opacity: 1;"/></g><g class="composite-shape"><path class="real" d=" M296.5,300.6 C296.5,298.11 298.51,296.1 301,296.1 C303.49,296.1 305.5,298.11 305.5,300.6 C305.5,303.09 303.49,305.1 301,305.1 C298.51,305.1 296.5,303.09 296.5,300.6 Z" style="stroke-width: 1; stroke: rgb(0, 0, 0); fill: rgb(74, 144, 226); fill-opacity: 1;"/></g><g class="composite-shape"><path class="real" d=" M298,291.6 L311.19,285.1 L314.95,292.73 L301.76,299.23 Z" style="stroke-width: 1; stroke: rgb(0, 0, 0); fill: none; fill-opacity: 1;"/></g><g class="arrow-line"><path class="connection real" stroke-dasharray="" d="  M61.8,420.53 L299.21,301.5" style="stroke: rgb(0, 0, 0); stroke-width: 1; fill: none; fill-opacity: 1;"/><g stroke="#000" transform="matrix(-0.8939196681711973,0.4482272045031365,-0.4482272045031365,-0.8939196681711973,301,300.60000228881836)" style="stroke: rgb(0, 0, 0); stroke-width: 1;"><path d=" M10.93,-3.29 Q4.96,-0.45 0,0 Q4.96,0.45 10.93,3.29"/></g></g><g/></g><g/><g/><g/></svg>
        <svg xmlns="http://www.w3.org/2000/svg" xmlns:xlink="http://www.w3.org/1999/xlink" width="660" height="469" style="width:660px;height:469px;font-family:LatinModern-Math, LatinModern, Asana-Math, Asana;background:#FFF;"><g><g><g><g transform="matrix(1,0,0,1,423,266)"><path transform="matrix(0.017,0,0,-0.017,0,0)" d="M760 695C760 698 758 705 749 705C746 705 745 704 734 693L664 616C655 630 609 705 498 705C275 705 50 484 50 252C50 87 168 -22 321 -22C408 -22 484 18 537 64C630 146 647 237 647 240C647 250 635 250 635 250C629 250 624 248 622 240C613 211 590 140 521 82C452 26 389 9 337 9C247 9 141 61 141 217C141 274 162 436 262 553C323 624 417 674 506 674C608 674 667 597 667 481C667 441 664 440 664 430C664 420 675 420 679 420C692 420 692 422 697 440Z" stroke="rgb(0,0,0)" stroke-opacity="1" stroke-width="8" fill="rgb(0,0,0)" fill-opacity="1"></path></g></g><g><g transform="matrix(1,0,0,1,435.16253662109375,266)"><path transform="matrix(0.017,0,0,-0.017,0,0)" d="M332 -238C332 -235 330 -232 328 -230C224 -152 155 48 155 208L155 292C155 452 224 652 328 730C330 732 332 735 332 738C332 743 327 748 322 748C320 748 318 747 316 746C206 663 101 463 101 292L101 208C101 37 206 -163 316 -246C318 -247 320 -248 322 -248C327 -248 332 -243 332 -238Z" stroke="rgb(0,0,0)" stroke-opacity="1" stroke-width="8" fill="rgb(0,0,0)" fill-opacity="1"></path></g></g><g><g transform="matrix(1,0,0,1,441.78753662109375,266)"><path transform="matrix(0.017,0,0,-0.017,0,0)" d="M851 672C851 672 851 683 838 683C808 683 775 680 744 680C707 680 669 683 633 683C627 683 614 683 614 663C614 656 619 653 626 652C635 651 666 649 666 621C666 607 655 594 647 585L485 411L401 610L396 623C396 629 413 648 455 652C465 653 475 654 475 671C475 683 463 683 460 683C419 683 376 680 334 680C309 680 247 683 222 683C216 683 204 683 204 663C204 652 214 652 227 652C287 652 293 642 302 620L420 341L209 114C203 109 202 108 196 103C147 50 100 34 49 31C36 30 27 30 27 11C27 11 27 0 40 0C70 0 103 3 134 3C171 3 210 0 246 0C252 0 264 0 264 20C264 30 252 31 252 31C243 32 212 34 212 62C212 78 227 94 239 107L341 215L431 313L532 74L537 60C537 52 518 35 479 31C468 30 459 29 459 12C459 0 470 0 474 0L600 3C625 3 686 0 711 0C718 0 730 0 730 19C730 31 720 31 712 31C645 32 643 35 626 75L497 384C565 454 670 573 702 601C731 625 769 649 829 652C842 653 851 653 851 672Z" stroke="rgb(0,0,0)" stroke-opacity="1" stroke-width="8" fill="rgb(0,0,0)" fill-opacity="1"></path></g></g><g><g transform="matrix(1,0,0,1,455.875,266)"><path transform="matrix(0.017,0,0,-0.017,0,0)" d="M288 208L288 292C288 463 183 663 73 746C71 747 69 748 67 748C62 748 57 743 57 738C57 735 59 732 61 730C165 652 234 452 234 292L234 208C234 48 165 -152 61 -230C59 -232 57 -235 57 -238C57 -243 62 -248 67 -248C69 -248 71 -247 73 -246C183 -163 288 37 288 208Z" stroke="rgb(0,0,0)" stroke-opacity="1" stroke-width="8" fill="rgb(0,0,0)" fill-opacity="1"></path></g></g></g></g><g><g><g><g transform="matrix(1,0,0,1,144,267)"><path transform="matrix(0.017,0,0,-0.017,0,0)" d="M490 404C490 422 476 431 461 431C451 431 435 425 426 410C424 405 416 374 412 356L392 276L347 96C343 81 300 11 234 11C183 11 172 55 172 92C172 138 189 200 223 288C239 329 243 340 243 360C243 405 211 442 161 442C66 442 29 297 29 288C29 278 41 278 41 278C51 278 52 280 57 296C84 390 124 420 158 420C166 420 183 420 183 388C183 363 173 337 166 318C126 212 108 155 108 108C108 19 171 -11 230 -11C269 -11 303 6 331 34C318 -18 306 -67 266 -120C240 -154 202 -183 156 -183C142 -183 97 -180 80 -141C96 -141 109 -141 123 -129C133 -120 143 -107 143 -88C143 -57 116 -53 106 -53C83 -53 50 -69 50 -118C50 -168 94 -205 156 -205C259 -205 362 -114 390 -1L486 381C490 395 490 397 490 404Z" stroke="rgb(0,0,0)" stroke-opacity="1" stroke-width="8" fill="rgb(0,0,0)" fill-opacity="1"></path></g></g></g></g><g><g><g><g transform="matrix(1,0,0,1,202,381)"><path transform="matrix(0.017,0,0,-0.017,0,0)" d="M851 672C851 672 851 683 838 683C808 683 775 680 744 680C707 680 669 683 633 683C627 683 614 683 614 663C614 656 619 653 626 652C635 651 666 649 666 621C666 607 655 594 647 585L485 411L401 610L396 623C396 629 413 648 455 652C465 653 475 654 475 671C475 683 463 683 460 683C419 683 376 680 334 680C309 680 247 683 222 683C216 683 204 683 204 663C204 652 214 652 227 652C287 652 293 642 302 620L420 341L209 114C203 109 202 108 196 103C147 50 100 34 49 31C36 30 27 30 27 11C27 11 27 0 40 0C70 0 103 3 134 3C171 3 210 0 246 0C252 0 264 0 264 20C264 30 252 31 252 31C243 32 212 34 212 62C212 78 227 94 239 107L341 215L431 313L532 74L537 60C537 52 518 35 479 31C468 30 459 29 459 12C459 0 470 0 474 0L600 3C625 3 686 0 711 0C718 0 730 0 730 19C730 31 720 31 712 31C645 32 643 35 626 75L497 384C565 454 670 573 702 601C731 625 769 649 829 652C842 653 851 653 851 672Z" stroke="rgb(0,0,0)" stroke-opacity="1" stroke-width="8" fill="rgb(0,0,0)" fill-opacity="1"></path></g></g><g><g><g><g><g transform="matrix(1,0,0,1,216.0875244140625,381)"><path transform="matrix(0.017,0,0,-0.017,0,0)" d="M455 500C455 566 437 705 335 705C196 705 42 423 42 194C42 100 71 -11 162 -11C303 -11 455 276 455 500ZM389 562C389 513 381 462 357 363L148 363C165 427 185 507 225 578C252 627 289 683 334 683C383 683 389 619 389 562ZM348 331C337 285 316 200 278 128C243 60 205 11 162 11C129 11 108 40 108 133C108 175 114 233 140 331Z" stroke="rgb(0,0,0)" stroke-opacity="1" stroke-width="8" fill="rgb(0,0,0)" fill-opacity="1"></path></g></g></g></g><svg x="216.0875244140625" overflow="visible" y="358" height="9" width="7.974999904632568"><polyline points="0.00,8.06 3.99,5.40 7.97,8.06" style="fill:none;fill-opacity:1;stroke-width:1px;stroke:rgb(0,0,0);stroke-opacity:1;"></polyline></svg></g></g></g><g><g><g><g transform="matrix(1,0,0,1,285,229)"><path transform="matrix(0.017,0,0,-0.017,0,0)" d="M430 107C430 113 424 120 418 120C413 120 411 118 405 110C326 11 217 11 205 11C127 11 118 95 118 127C118 139 119 170 134 231L187 231C216 231 290 233 340 254C410 284 415 343 415 357C415 401 377 442 308 442C197 442 46 345 46 170C46 68 105 -11 203 -11C346 -11 430 95 430 107ZM382 357C382 253 222 253 181 253L140 253C179 405 282 420 308 420C355 420 382 391 382 357Z" stroke="rgb(0,0,0)" stroke-opacity="1" stroke-width="8" fill="rgb(0,0,0)" fill-opacity="1"></path></g></g></g></g></svg>
</svg>
