<svg xmlns="http://www.w3.org/2000/svg" xmlns:xlink="http://www.w3.org/1999/xlink" x="0" y="0" width="662" height="302" style="
        width:662px;
        height:302px;
        background: #FFF;
        fill: none;
">
        <svg xmlns="http://www.w3.org/2000/svg"/>
        
        <svg xmlns="http://www.w3.org/2000/svg" class="role-diagram-draw-area"><g class="shapes-region" style="stroke: black; fill: none;"><g class="composite-shape axis2d" style="stroke-width: 1; stroke: rgb(0, 0, 0);"><path class="real" d=" M90,275.9 L558,275.9 M136.8,5 L136.8,306"/><path d=" M551,270.9 L558,275.9 L551,280.9"/><path d=" M131.8,12 L136.8,5 L141.8,12"/><path d=" M224.8,270.9 L224.8,280.9 M312.8,270.9 L312.8,280.9 M400.8,270.9 L400.8,280.9 M488.8,270.9 L488.8,280.9 M131.8,187.9 L141.8,187.9 M131.8,99.9 L141.8,99.9"/><g style="fill: rgb(0, 0, 0); fill-opacity: 1; font-size: 11px; font-weight: normal; text-anchor: end; stroke: none; font-family: Times;"><text x="227.8" y="290.9">1</text><text x="315.8" y="290.9">2</text><text x="403.8" y="290.9">3</text><text x="491.8" y="290.9">4</text><text x="129.8" y="190.89999999999998">1</text><text x="129.8" y="102.89999999999998">2</text></g></g><g class="composite-shape"><path class="real" d=" M395,99.5 C395,95.91 397.91,93 401.5,93 C405.09,93 408,95.91 408,99.5 C408,103.09 405.09,106 401.5,106 C397.91,106 395,103.09 395,99.5 Z" style="stroke-width: 1; stroke: rgb(0, 0, 0); fill: rgb(29, 26, 220); fill-opacity: 1;"/></g><g class="arrow-line"><path class="connection real" stroke-dasharray="1.125 3.35" d="  M136,100 L514,100" style="stroke: rgb(0, 0, 0); stroke-width: 1; fill: none; fill-opacity: 1;"/></g><g class="arrow-line"><path class="connection real" stroke-dasharray="1.125 3.35" d="  M401,55 L401,277" style="stroke: rgb(0, 0, 0); stroke-width: 1; fill: none; fill-opacity: 1;"/></g><g/></g><g/><g/><g/></svg>
        <svg xmlns="http://www.w3.org/2000/svg" xmlns:xlink="http://www.w3.org/1999/xlink" width="660" height="300" style="width:660px;height:300px;font-family:LatinModern-Math, LatinModern, Asana-Math, Asana;background:#FFF;"><g><g><g><g transform="matrix(1,0,0,1,417,86.5)"><path transform="matrix(0.017,0,0,-0.017,0,0)" d="M457 171C457 253 394 331 290 352C372 379 430 449 430 528C430 610 342 666 246 666C145 666 69 606 69 530C69 497 91 478 120 478C151 478 171 500 171 529C171 579 124 579 109 579C140 628 206 641 242 641C283 641 338 619 338 529C338 517 336 459 310 415C280 367 246 364 221 363C213 362 189 360 182 360C174 359 167 358 167 348C167 337 174 337 191 337L235 337C317 337 354 269 354 171C354 35 285 6 241 6C198 6 123 23 88 82C123 77 154 99 154 137C154 173 127 193 98 193C74 193 42 179 42 135C42 44 135 -22 244 -22C366 -22 457 69 457 171Z" stroke="rgb(0,0,0)" stroke-opacity="1" stroke-width="8" fill="rgb(0,0,0)" fill-opacity="1"></path></g></g><g><g transform="matrix(1,0,0,1,428.8984375,86.5)"><path transform="matrix(0.017,0,0,-0.017,0,0)" d="M722 250C722 261 713 270 702 270L409 270L409 563C409 574 400 583 389 583C378 583 369 574 369 563L369 270L76 270C65 270 56 261 56 250C56 239 65 230 76 230L369 230L369 -63C369 -74 378 -83 389 -83C400 -83 409 -74 409 -63L409 230L702 230C713 230 722 239 722 250Z" stroke="rgb(0,0,0)" stroke-opacity="1" stroke-width="8" fill="rgb(0,0,0)" fill-opacity="1"></path></g></g><g><g transform="matrix(1,0,0,1,445.5234375,86.5)"><path transform="matrix(0.017,0,0,-0.017,0,0)" d="M449 174L424 174C419 144 412 100 402 85C395 77 329 77 307 77L127 77L233 180C389 318 449 372 449 472C449 586 359 666 237 666C124 666 50 574 50 485C50 429 100 429 103 429C120 429 155 441 155 482C155 508 137 534 102 534C94 534 92 534 89 533C112 598 166 635 224 635C315 635 358 554 358 472C358 392 308 313 253 251L61 37C50 26 50 24 50 0L421 0ZM784 625C784 645 770 661 747 661C720 661 693 635 693 608C693 589 707 572 731 572C754 572 784 595 784 625ZM793 143C793 153 784 153 781 153C771 153 771 150 766 135C748 72 715 11 664 11C647 11 640 21 640 44C640 69 646 83 669 144L708 249C720 278 720 280 730 307C738 327 743 341 743 360C743 405 711 442 661 442C567 442 529 297 529 288C529 278 541 278 541 278C551 278 552 280 557 296C584 390 624 420 658 420C666 420 683 420 683 388C683 367 676 346 672 336C664 310 619 194 603 151C593 125 580 92 580 71C580 24 614 -11 662 -11C756 -11 793 134 793 143Z" stroke="rgb(0,0,0)" stroke-opacity="1" stroke-width="8" fill="rgb(0,0,0)" fill-opacity="1"></path></g></g></g></g><g><g><g><text x="570" y="268" style="white-space:pre;stroke:none;fill:rgb(0,0,0);fill-opacity:1;font-size:15px;font-family:&quot;Courier New&quot;, Courier, monospace;font-weight:400;font-style:normal;dominant-baseline:text-before-edge;text-decoration:none solid rgb(0, 0, 0);">Real</text></g></g></g><g><g><g><text x="86" y="23" style="white-space:pre;stroke:none;fill:rgb(0,0,0);fill-opacity:1;font-size:15px;font-family:&quot;Courier New&quot;, Courier, monospace;font-weight:400;font-style:normal;dominant-baseline:text-before-edge;text-decoration:none solid rgb(0, 0, 0);">Imag</text></g></g></g></svg>
</svg>
