<svg xmlns="http://www.w3.org/2000/svg" xmlns:xlink="http://www.w3.org/1999/xlink" x="0" y="0" width="662" height="471" style="
        width:662px;
        height:471px;
        background: #FFF;
        fill: none;
">
        <svg xmlns="http://www.w3.org/2000/svg"><g><defs><pattern id=".9579008999278311" width="60" height="60" patternUnits="userSpaceOnUse"><path d="M 60 0 L 0 0 0 60" fill="none" stroke="lightgray" stroke-width="0.5"/></pattern></defs><rect width="100%" height="100%" fill="url(#.9579008999278311)" stroke="lightgray" stroke-width="0.5"/></g></svg>
        
        <svg xmlns="http://www.w3.org/2000/svg" class="role-diagram-draw-area"><g class="shapes-region" style="stroke: black; fill: none;"><g class="composite-shape axis2d" style="stroke-width: 1; stroke: rgb(0, 0, 0);"><path class="real" d=" M11.4,420.46 L510.4,420.46 M61.3,44.8 L61.3,462.2"/><path d=" M503.4,415.46 L510.4,420.46 L503.4,425.46"/><path d=" M56.3,51.8 L61.3,44.8 L66.3,51.8"/><path d=" M121.3,415.46 L121.3,425.46 M181.3,415.46 L181.3,425.46 M241.3,415.46 L241.3,425.46 M301.3,415.46 L301.3,425.46 M361.3,415.46 L361.3,425.46 M421.3,415.46 L421.3,425.46 M481.3,415.46 L481.3,425.46 M56.3,360.46 L66.3,360.46 M56.3,300.46 L66.3,300.46 M56.3,240.46 L66.3,240.46 M56.3,180.46 L66.3,180.46 M56.3,120.46 L66.3,120.46 M56.3,60.46 L66.3,60.46"/><g style="fill: rgb(0, 0, 0); fill-opacity: 1; font-size: 11px; font-weight: normal; text-anchor: end; stroke: none; font-family: Times;"><text x="124.29999389648435" y="435.4600040435791">1</text><text x="184.29999389648435" y="435.4600040435791">2</text><text x="244.29999389648435" y="435.4600040435791">3</text><text x="304.29999389648435" y="435.4600040435791">4</text><text x="364.29999389648435" y="435.4600040435791">5</text><text x="424.29999389648435" y="435.4600040435791">6</text><text x="484.29999389648435" y="435.4600040435791">7</text><text x="54.29999389648435" y="363.4600040435791">1</text><text x="54.29999389648435" y="303.4600040435791">2</text><text x="54.29999389648435" y="243.4600040435791">3</text><text x="54.29999389648435" y="183.4600040435791">4</text><text x="54.29999389648435" y="123.46000404357909">5</text><text x="54.29999389648435" y="63.46000404357909">6</text></g></g><g class="arrow-line"><path class="connection real" stroke-dasharray="" d="  M61.3,421.46 L177.62,361.52" style="stroke: rgb(0, 0, 0); stroke-width: 1; fill: none; fill-opacity: 1;"/><g stroke="#000" transform="matrix(-0.8889372138718593,0.4580290709046057,-0.4580290709046057,-0.8889372138718593,179.39999389648438,360.5999999046326)" style="stroke: rgb(0, 0, 0); stroke-width: 1;"><path d=" M10.93,-3.29 Q4.96,-0.45 0,0 Q4.96,0.45 10.93,3.29"/></g></g><g class="arrow-line"><path class="connection real" stroke-dasharray="" d="  M15.4,444.6 L419.4,239.6" style="stroke: rgb(0, 0, 0); stroke-width: 1; fill: none; fill-opacity: 1;"/></g><g class="composite-shape"><path class="real" d=" M174.9,360.6 C174.9,358.11 176.91,356.1 179.4,356.1 C181.89,356.1 183.9,358.11 183.9,360.6 C183.9,363.09 181.89,365.1 179.4,365.1 C176.91,365.1 174.9,363.09 174.9,360.6 Z" style="stroke-width: 1; stroke: rgb(0, 0, 0); fill: rgb(74, 144, 226); fill-opacity: 1;"/></g><g class="arrow-line"><path class="connection real" stroke-dasharray="" d="  M61.3,420.46 L239.21,180.21" style="stroke: rgb(0, 0, 0); stroke-width: 1; fill: none; fill-opacity: 1;"/><g stroke="#000" transform="matrix(-0.5951033494856164,0.8036491793257804,-0.8036491793257804,-0.5951033494856164,240.39999389648438,178.59999990463257)" style="stroke: rgb(0, 0, 0); stroke-width: 1;"><path d=" M10.93,-3.29 Q4.96,-0.45 0,0 Q4.96,0.45 10.93,3.29"/></g></g><g class="composite-shape"><path class="real" d=" M235.9,178.6 C235.9,176.11 237.91,174.1 240.4,174.1 C242.89,174.1 244.9,176.11 244.9,178.6 C244.9,181.09 242.89,183.1 240.4,183.1 C237.91,183.1 235.9,181.09 235.9,178.6 Z" style="stroke-width: 1; stroke: rgb(0, 0, 0); fill: rgb(74, 144, 226); fill-opacity: 1;"/></g><g class="arrow-line"><path class="connection real" stroke-dasharray="" d="  M235.9,178.6 L301,300.6" style="stroke: rgb(0, 0, 0); stroke-width: 1; fill: none; fill-opacity: 1;"/></g><g class="composite-shape"><path class="real" d=" M296.5,300.6 C296.5,298.11 298.51,296.1 301,296.1 C303.49,296.1 305.5,298.11 305.5,300.6 C305.5,303.09 303.49,305.1 301,305.1 C298.51,305.1 296.5,303.09 296.5,300.6 Z" style="stroke-width: 1; stroke: rgb(0, 0, 0); fill: rgb(74, 144, 226); fill-opacity: 1;"/></g><g class="composite-shape"><path class="real" d=" M298,291.6 L311.19,285.1 L314.95,292.73 L301.76,299.23 Z" style="stroke-width: 1; stroke: rgb(0, 0, 0); fill: none; fill-opacity: 1;"/></g><g class="arrow-line"><path class="connection real" stroke-dasharray="" d="  M61.8,420.53 L299.21,301.5" style="stroke: rgb(0, 0, 0); stroke-width: 1; fill: none; fill-opacity: 1;"/><g stroke="#000" transform="matrix(-0.8939196681711973,0.4482272045031365,-0.4482272045031365,-0.8939196681711973,301,300.60000228881836)" style="stroke: rgb(0, 0, 0); stroke-width: 1;"><path d=" M10.93,-3.29 Q4.96,-0.45 0,0 Q4.96,0.45 10.93,3.29"/></g></g><g/></g><g/><g/><g/></svg>
        <svg xmlns="http://www.w3.org/2000/svg" xmlns:xlink="http://www.w3.org/1999/xlink" width="660" height="469" style="width:660px;height:469px;font-family:LatinModern-Math, LatinModern, Asana-Math, Asana;background:#FFF;"><g><g><g><g><g><g><g transform="matrix(1,0,0,1,204.35000610351562,380)"><path transform="matrix(0.017,0,0,-0.017,0,0)" d="M449 174L424 174C419 144 412 100 402 85C395 77 329 77 307 77L127 77L233 180C389 318 449 372 449 472C449 586 359 666 237 666C124 666 50 574 50 485C50 429 100 429 103 429C120 429 155 441 155 482C155 508 137 534 102 534C94 534 92 534 89 533C112 598 166 635 224 635C315 635 358 554 358 472C358 392 308 313 253 251L61 37C50 26 50 24 50 0L421 0Z" stroke="rgb(0,0,0)" stroke-opacity="1" stroke-width="8" fill="rgb(0,0,0)" fill-opacity="1"></path></g></g></g></g><g><g><g><g transform="matrix(1,0,0,1,204.35000610351562,401.4000244140625)"><path transform="matrix(0.017,0,0,-0.017,0,0)" d="M419 0L419 31L387 31C297 31 294 42 294 79L294 640C294 664 294 666 271 666C209 602 121 602 89 602L89 571C109 571 168 571 220 597L220 79C220 43 217 31 127 31L95 31L95 0C130 3 217 3 257 3C297 3 384 3 419 0Z" stroke="rgb(0,0,0)" stroke-opacity="1" stroke-width="8" fill="rgb(0,0,0)" fill-opacity="1"></path></g></g></g></g><svg x="194" overflow="visible" y="362" height="43.79999923706055" width="7.650000095367432"><path d=" M 6.66 2.21 c 0.00 -0.29 -0.22 -0.51 -0.51 -0.51 h -4.35 v 2.89 h 1.02 v -1.87 h 3.33 c 0.29 0.00 0.51 -0.22 0.51 -0.51 z  M 1.79 4.59 v 34.62 h 1.02 v -34.62 z " style="fill:rgb(0,0,0);fill-opacity:1;stroke-width:1px;stroke:none;stroke-opacity:1;"></path><path d=" M 6.66 41.59 c 0.00 0.29 -0.22 0.51 -0.51 0.51 h -4.35 v -2.89 h 1.02 v 1.87 h 3.33 c 0.29 0.00 0.51 0.22 0.51 0.51 z" style="fill:rgb(0,0,0);fill-opacity:1;stroke-width:1px;stroke:none;stroke-opacity:1;"></path></svg><svg x="215.54998779296875" overflow="visible" y="362" height="43.79999923706055" width="7.650000095367432"><path d=" M 0.89 2.21 c 0.00 -0.29 0.22 -0.51 0.51 -0.51 h 4.35 v 2.89 h -1.02 v -1.87 h -3.33 c -0.29 0.00 -0.51 -0.22 -0.51 -0.51 z  M 5.77 4.59 v 34.62 h -1.02 v -34.62 z" style="fill:rgb(0,0,0);fill-opacity:1;stroke-width:1px;stroke:none;stroke-opacity:1;"></path><path d=" M 0.89 41.59 c 0.00 0.29 0.22 0.51 0.51 0.51 h 4.35 v -2.89 h -1.02 v 1.87 h -3.33 c -0.29 0.00 -0.51 0.22 -0.51 0.51 z" style="fill:rgb(0,0,0);fill-opacity:1;stroke-width:1px;stroke:none;stroke-opacity:1;"></path></svg><line stroke-dasharray="1" style="fill:none;stroke-width:[object Object];stroke:rgba(0, 0, 0, 0);" x1="198.75" y1="362.5" x2="218.45000076293945" y2="362.5"></line><line stroke-dasharray="1" style="fill:none;stroke-width:[object Object];stroke:rgba(0, 0, 0, 0);" x1="198.75" y1="362.5" x2="198.75" y2="383.8999996185303"></line><line stroke-dasharray="1" style="fill:none;stroke-width:[object Object];stroke:rgba(0, 0, 0, 0);" x1="218.45000076293945" y1="362.5" x2="218.45000076293945" y2="383.8999996185303"></line><line stroke-dasharray="1" style="fill:none;stroke-width:[object Object];stroke:rgba(0, 0, 0, 0);" x1="198.75" y1="383.8999996185303" x2="218.45000076293945" y2="383.8999996185303"></line><line stroke-dasharray="1" style="fill:none;stroke-width:[object Object];stroke:rgba(0, 0, 0, 0);" x1="198.75" y1="383.9000244140625" x2="218.45000076293945" y2="383.9000244140625"></line><line stroke-dasharray="1" style="fill:none;stroke-width:[object Object];stroke:rgba(0, 0, 0, 0);" x1="198.75" y1="383.9000244140625" x2="198.75" y2="405.3000240325928"></line><line stroke-dasharray="1" style="fill:none;stroke-width:[object Object];stroke:rgba(0, 0, 0, 0);" x1="218.45000076293945" y1="383.9000244140625" x2="218.45000076293945" y2="405.3000240325928"></line><line stroke-dasharray="1" style="fill:none;stroke-width:[object Object];stroke:rgba(0, 0, 0, 0);" x1="198.75" y1="405.3000240325928" x2="218.45000076293945" y2="405.3000240325928"></line></g></g></g><g><g><g><g transform="matrix(1,0,0,1,356.0000305175781,241)"><path transform="matrix(0.017,0,0,-0.017,0,0)" d="M760 695C760 698 758 705 749 705C746 705 745 704 734 693L664 616C655 630 609 705 498 705C275 705 50 484 50 252C50 87 168 -22 321 -22C408 -22 484 18 537 64C630 146 647 237 647 240C647 250 635 250 635 250C629 250 624 248 622 240C613 211 590 140 521 82C452 26 389 9 337 9C247 9 141 61 141 217C141 274 162 436 262 553C323 624 417 674 506 674C608 674 667 597 667 481C667 441 664 440 664 430C664 420 675 420 679 420C692 420 692 422 697 440Z" stroke="rgb(0,0,0)" stroke-opacity="1" stroke-width="8" fill="rgb(0,0,0)" fill-opacity="1"></path></g></g><g><g transform="matrix(1,0,0,1,368.1625061035156,241)"><path transform="matrix(0.017,0,0,-0.017,0,0)" d="M332 -238C332 -235 330 -232 328 -230C224 -152 155 48 155 208L155 292C155 452 224 652 328 730C330 732 332 735 332 738C332 743 327 748 322 748C320 748 318 747 316 746C206 663 101 463 101 292L101 208C101 37 206 -163 316 -246C318 -247 320 -248 322 -248C327 -248 332 -243 332 -238Z" stroke="rgb(0,0,0)" stroke-opacity="1" stroke-width="8" fill="rgb(0,0,0)" fill-opacity="1"></path></g></g><g><g transform="matrix(1,0,0,1,374.7875061035156,241)"><path transform="matrix(0.017,0,0,-0.017,0,0)" d="M721 20C721 31 711 31 698 31C636 31 636 38 633 67L572 692C570 712 570 716 553 716C537 716 533 709 527 699L179 115C139 48 100 34 56 31C44 30 35 30 35 11C35 5 40 0 48 0C75 0 106 3 134 3C167 3 202 0 234 0C240 0 253 0 253 19C253 30 244 31 237 31C214 33 190 41 190 66C190 78 196 89 204 103C211 115 212 115 280 231L531 231C533 210 547 74 547 64C547 34 495 31 475 31C461 31 451 31 451 11C451 0 465 0 465 0C506 0 549 3 590 3C615 3 678 0 703 0C709 0 721 0 721 20ZM528 262L299 262L496 592Z" stroke="rgb(0,0,0)" stroke-opacity="1" stroke-width="8" fill="rgb(0,0,0)" fill-opacity="1"></path></g></g><g><g transform="matrix(1,0,0,1,387.5375061035156,241)"><path transform="matrix(0.017,0,0,-0.017,0,0)" d="M288 208L288 292C288 463 183 663 73 746C71 747 69 748 67 748C62 748 57 743 57 738C57 735 59 732 61 730C165 652 234 452 234 292L234 208C234 48 165 -152 61 -230C59 -232 57 -235 57 -238C57 -243 62 -248 67 -248C69 -248 71 -247 73 -246C183 -163 288 37 288 208Z" stroke="rgb(0,0,0)" stroke-opacity="1" stroke-width="8" fill="rgb(0,0,0)" fill-opacity="1"></path></g></g></g></g><g><g><g><g><g><g><g transform="matrix(1,0,0,1,271.3500061035156,163)"><path transform="matrix(0.017,0,0,-0.017,0,0)" d="M457 171C457 253 394 331 290 352C372 379 430 449 430 528C430 610 342 666 246 666C145 666 69 606 69 530C69 497 91 478 120 478C151 478 171 500 171 529C171 579 124 579 109 579C140 628 206 641 242 641C283 641 338 619 338 529C338 517 336 459 310 415C280 367 246 364 221 363C213 362 189 360 182 360C174 359 167 358 167 348C167 337 174 337 191 337L235 337C317 337 354 269 354 171C354 35 285 6 241 6C198 6 123 23 88 82C123 77 154 99 154 137C154 173 127 193 98 193C74 193 42 179 42 135C42 44 135 -22 244 -22C366 -22 457 69 457 171Z" stroke="rgb(0,0,0)" stroke-opacity="1" stroke-width="8" fill="rgb(0,0,0)" fill-opacity="1"></path></g></g></g></g><g><g><g><g transform="matrix(1,0,0,1,271.3500061035156,184.39999389648438)"><path transform="matrix(0.017,0,0,-0.017,0,0)" d="M471 165L471 196L371 196L371 651C371 671 371 677 355 677C346 677 343 677 335 665L28 196L28 165L294 165L294 78C294 42 292 31 218 31L197 31L197 0C238 3 290 3 332 3C374 3 427 3 468 0L468 31L447 31C373 31 371 42 371 78L371 165ZM300 196L56 196L300 569Z" stroke="rgb(0,0,0)" stroke-opacity="1" stroke-width="8" fill="rgb(0,0,0)" fill-opacity="1"></path></g></g></g></g><svg x="261" overflow="visible" y="145" height="43.79999923706055" width="7.650000095367432"><path d=" M 6.66 2.21 c 0.00 -0.29 -0.22 -0.51 -0.51 -0.51 h -4.35 v 2.89 h 1.02 v -1.87 h 3.33 c 0.29 0.00 0.51 -0.22 0.51 -0.51 z  M 1.79 4.59 v 34.62 h 1.02 v -34.62 z " style="fill:rgb(0,0,0);fill-opacity:1;stroke-width:1px;stroke:none;stroke-opacity:1;"></path><path d=" M 6.66 41.59 c 0.00 0.29 -0.22 0.51 -0.51 0.51 h -4.35 v -2.89 h 1.02 v 1.87 h 3.33 c 0.29 0.00 0.51 0.22 0.51 0.51 z" style="fill:rgb(0,0,0);fill-opacity:1;stroke-width:1px;stroke:none;stroke-opacity:1;"></path></svg><svg x="282.54998779296875" overflow="visible" y="145" height="43.79999923706055" width="7.650000095367432"><path d=" M 0.89 2.21 c 0.00 -0.29 0.22 -0.51 0.51 -0.51 h 4.35 v 2.89 h -1.02 v -1.87 h -3.33 c -0.29 0.00 -0.51 -0.22 -0.51 -0.51 z  M 5.77 4.59 v 34.62 h -1.02 v -34.62 z" style="fill:rgb(0,0,0);fill-opacity:1;stroke-width:1px;stroke:none;stroke-opacity:1;"></path><path d=" M 0.89 41.59 c 0.00 0.29 0.22 0.51 0.51 0.51 h 4.35 v -2.89 h -1.02 v 1.87 h -3.33 c -0.29 0.00 -0.51 0.22 -0.51 0.51 z" style="fill:rgb(0,0,0);fill-opacity:1;stroke-width:1px;stroke:none;stroke-opacity:1;"></path></svg><line stroke-dasharray="1" style="fill:none;stroke-width:[object Object];stroke:rgba(0, 0, 0, 0);" x1="265.75" y1="145.5" x2="285.45000076293945" y2="145.5"></line><line stroke-dasharray="1" style="fill:none;stroke-width:[object Object];stroke:rgba(0, 0, 0, 0);" x1="265.75" y1="145.5" x2="265.75" y2="166.89999961853027"></line><line stroke-dasharray="1" style="fill:none;stroke-width:[object Object];stroke:rgba(0, 0, 0, 0);" x1="285.45000076293945" y1="145.5" x2="285.45000076293945" y2="166.89999961853027"></line><line stroke-dasharray="1" style="fill:none;stroke-width:[object Object];stroke:rgba(0, 0, 0, 0);" x1="265.75" y1="166.89999961853027" x2="285.45000076293945" y2="166.89999961853027"></line><line stroke-dasharray="1" style="fill:none;stroke-width:[object Object];stroke:rgba(0, 0, 0, 0);" x1="265.75" y1="166.89999389648438" x2="285.45000076293945" y2="166.89999389648438"></line><line stroke-dasharray="1" style="fill:none;stroke-width:[object Object];stroke:rgba(0, 0, 0, 0);" x1="265.75" y1="166.89999389648438" x2="265.75" y2="188.29999351501465"></line><line stroke-dasharray="1" style="fill:none;stroke-width:[object Object];stroke:rgba(0, 0, 0, 0);" x1="285.45000076293945" y1="166.89999389648438" x2="285.45000076293945" y2="188.29999351501465"></line><line stroke-dasharray="1" style="fill:none;stroke-width:[object Object];stroke:rgba(0, 0, 0, 0);" x1="265.75" y1="188.29999351501465" x2="285.45000076293945" y2="188.29999351501465"></line></g></g></g><g><g><g><g><g><g><g transform="matrix(1,0,0,1,320.3500061035156,329)"><path transform="matrix(0.017,0,0,-0.017,0,0)" d="M471 165L471 196L371 196L371 651C371 671 371 677 355 677C346 677 343 677 335 665L28 196L28 165L294 165L294 78C294 42 292 31 218 31L197 31L197 0C238 3 290 3 332 3C374 3 427 3 468 0L468 31L447 31C373 31 371 42 371 78L371 165ZM300 196L56 196L300 569Z" stroke="rgb(0,0,0)" stroke-opacity="1" stroke-width="8" fill="rgb(0,0,0)" fill-opacity="1"></path></g></g></g></g><g><g><g><g transform="matrix(1,0,0,1,320.3500061035156,350.4000244140625)"><path transform="matrix(0.017,0,0,-0.017,0,0)" d="M449 174L424 174C419 144 412 100 402 85C395 77 329 77 307 77L127 77L233 180C389 318 449 372 449 472C449 586 359 666 237 666C124 666 50 574 50 485C50 429 100 429 103 429C120 429 155 441 155 482C155 508 137 534 102 534C94 534 92 534 89 533C112 598 166 635 224 635C315 635 358 554 358 472C358 392 308 313 253 251L61 37C50 26 50 24 50 0L421 0Z" stroke="rgb(0,0,0)" stroke-opacity="1" stroke-width="8" fill="rgb(0,0,0)" fill-opacity="1"></path></g></g></g></g><svg x="310.0000305175781" overflow="visible" y="311" height="43.79999923706055" width="7.650000095367432"><path d=" M 6.66 2.21 c 0.00 -0.29 -0.22 -0.51 -0.51 -0.51 h -4.35 v 2.89 h 1.02 v -1.87 h 3.33 c 0.29 0.00 0.51 -0.22 0.51 -0.51 z  M 1.79 4.59 v 34.62 h 1.02 v -34.62 z " style="fill:rgb(0,0,0);fill-opacity:1;stroke-width:1px;stroke:none;stroke-opacity:1;"></path><path d=" M 6.66 41.59 c 0.00 0.29 -0.22 0.51 -0.51 0.51 h -4.35 v -2.89 h 1.02 v 1.87 h 3.33 c 0.29 0.00 0.51 0.22 0.51 0.51 z" style="fill:rgb(0,0,0);fill-opacity:1;stroke-width:1px;stroke:none;stroke-opacity:1;"></path></svg><svg x="331.5500183105469" overflow="visible" y="311" height="43.79999923706055" width="7.650000095367432"><path d=" M 0.89 2.21 c 0.00 -0.29 0.22 -0.51 0.51 -0.51 h 4.35 v 2.89 h -1.02 v -1.87 h -3.33 c -0.29 0.00 -0.51 -0.22 -0.51 -0.51 z  M 5.77 4.59 v 34.62 h -1.02 v -34.62 z" style="fill:rgb(0,0,0);fill-opacity:1;stroke-width:1px;stroke:none;stroke-opacity:1;"></path><path d=" M 0.89 41.59 c 0.00 0.29 0.22 0.51 0.51 0.51 h 4.35 v -2.89 h -1.02 v 1.87 h -3.33 c -0.29 0.00 -0.51 0.22 -0.51 0.51 z" style="fill:rgb(0,0,0);fill-opacity:1;stroke-width:1px;stroke:none;stroke-opacity:1;"></path></svg><line stroke-dasharray="1" style="fill:none;stroke-width:[object Object];stroke:rgba(0, 0, 0, 0);" x1="314.7500305175781" y1="311.5" x2="334.4500312805176" y2="311.5"></line><line stroke-dasharray="1" style="fill:none;stroke-width:[object Object];stroke:rgba(0, 0, 0, 0);" x1="314.7500305175781" y1="311.5" x2="314.7500305175781" y2="332.8999996185303"></line><line stroke-dasharray="1" style="fill:none;stroke-width:[object Object];stroke:rgba(0, 0, 0, 0);" x1="334.4500312805176" y1="311.5" x2="334.4500312805176" y2="332.8999996185303"></line><line stroke-dasharray="1" style="fill:none;stroke-width:[object Object];stroke:rgba(0, 0, 0, 0);" x1="314.7500305175781" y1="332.8999996185303" x2="334.4500312805176" y2="332.8999996185303"></line><line stroke-dasharray="1" style="fill:none;stroke-width:[object Object];stroke:rgba(0, 0, 0, 0);" x1="314.7500305175781" y1="332.9000244140625" x2="334.4500312805176" y2="332.9000244140625"></line><line stroke-dasharray="1" style="fill:none;stroke-width:[object Object];stroke:rgba(0, 0, 0, 0);" x1="314.7500305175781" y1="332.9000244140625" x2="314.7500305175781" y2="354.3000240325928"></line><line stroke-dasharray="1" style="fill:none;stroke-width:[object Object];stroke:rgba(0, 0, 0, 0);" x1="334.4500312805176" y1="332.9000244140625" x2="334.4500312805176" y2="354.3000240325928"></line><line stroke-dasharray="1" style="fill:none;stroke-width:[object Object];stroke:rgba(0, 0, 0, 0);" x1="314.7500305175781" y1="354.3000240325928" x2="334.4500312805176" y2="354.3000240325928"></line></g></g></g></svg>
</svg>
