<svg xmlns="http://www.w3.org/2000/svg" xmlns:xlink="http://www.w3.org/1999/xlink" x="0" y="0" width="662" height="394" style="
        width:662px;
        height:394px;
        background: #FFF;
        fill: none;
">
        
        
        <svg xmlns="http://www.w3.org/2000/svg" class="role-diagram-draw-area"><g class="shapes-region" style="stroke: black; fill: none;"><g class="composite-shape"><path class="real" d=" M222.11,49.76 C222.28,31.89 237.38,17.54 255.84,17.71 C274.3,17.87 289.13,32.49 288.96,50.35 C288.79,68.21 273.69,82.56 255.23,82.4 C236.77,82.23 221.94,67.62 222.11,49.76 Z" style="stroke-width: 1; stroke: rgb(0, 0, 0); fill: none; fill-opacity: 1;"/></g><g class="composite-shape"><path class="real" d=" M224.67,208.08 C224.83,190.22 239.94,175.87 258.4,176.03 C276.86,176.2 291.69,190.81 291.52,208.68 C291.35,226.54 276.25,240.89 257.79,240.72 C239.33,240.56 224.5,225.95 224.67,208.08 Z" style="stroke-width: 1; stroke: rgb(0, 0, 0); fill: none; fill-opacity: 1;"/></g><g class="composite-shape"><path class="real" d=" M227.22,347.85 C227.39,329.99 242.49,315.64 260.95,315.81 C279.41,315.97 294.24,330.59 294.07,348.45 C293.91,366.31 278.8,380.66 260.34,380.5 C241.88,380.33 227.05,365.72 227.22,347.85 Z" style="stroke-width: 1; stroke: rgb(0, 0, 0); fill: none; fill-opacity: 1;"/></g><g class="composite-shape"><path class="real" d=" M24.01,142.52 C24.18,124.66 39.28,110.31 57.74,110.48 C76.2,110.64 91.03,125.26 90.86,143.12 C90.7,160.98 75.59,175.33 57.13,175.17 C38.67,175 23.84,160.39 24.01,142.52 Z" style="stroke-width: 1; stroke: rgb(0, 0, 0); fill: none; fill-opacity: 1;"/></g><g class="composite-shape"><path class="real" d=" M27.84,277.35 C28.01,259.49 43.12,245.14 61.58,245.3 C80.04,245.47 94.87,260.08 94.7,277.94 C94.53,295.81 79.43,310.16 60.97,309.99 C42.51,309.83 27.68,295.21 27.84,277.35 Z" style="stroke-width: 1; stroke: rgb(0, 0, 0); fill: none; fill-opacity: 1;"/></g><g class="arrow-line"><path class="connection real" stroke-dasharray="" d="  M90.86,143.12 L222.11,49.76" style="stroke: rgb(0, 0, 0); stroke-width: 1; fill: none; fill-opacity: 1;"/></g><g class="arrow-line"><path class="connection real" stroke-dasharray="" d="  M90.86,143.12 L224.67,208.09" style="stroke: rgb(0, 0, 0); stroke-width: 1; fill: none; fill-opacity: 1;"/></g><g class="arrow-line"><path class="connection real" stroke-dasharray="" d="  M90.86,143.12 L227.22,347.86" style="stroke: rgb(0, 0, 0); stroke-width: 1; fill: none; fill-opacity: 1;"/></g><g class="composite-shape"><path class="real" d=" M383.14,178.4 C383.31,160.53 398.41,146.18 416.88,146.35 C435.34,146.51 450.17,161.13 450,178.99 C449.83,196.85 434.73,211.2 416.27,211.04 C397.8,210.87 382.98,196.26 383.14,178.4 Z" style="stroke-width: 1; stroke: rgb(0, 0, 0); fill: none; fill-opacity: 1;"/></g><g class="arrow-line"><path class="connection real" stroke-dasharray="" d="  M288.96,50.35 L383.15,178.4" style="stroke: rgb(0, 0, 0); stroke-width: 1; fill: none; fill-opacity: 1;"/></g><g class="arrow-line"><path class="connection real" stroke-dasharray="" d="  M291.52,208.67 L383.15,178.4" style="stroke: rgb(0, 0, 0); stroke-width: 1; fill: none; fill-opacity: 1;"/></g><g class="arrow-line"><path class="connection real" stroke-dasharray="" d="  M294.07,348.45 L383.15,178.4" style="stroke: rgb(0, 0, 0); stroke-width: 1; fill: none; fill-opacity: 1;"/></g><g class="arrow-line"><path class="connection real" stroke-dasharray="" d="  M94.7,277.94 L222.11,49.76" style="stroke: rgb(0, 0, 0); stroke-width: 1; fill: none; fill-opacity: 1; stroke-opacity: 0.15;"/></g><g class="arrow-line"><path class="connection real" stroke-dasharray="" d="  M94.7,277.94 L227.22,347.86" style="stroke: rgb(0, 0, 0); stroke-width: 1; fill: none; fill-opacity: 1; stroke-opacity: 0.15;"/></g><g class="arrow-line"><path class="connection real" stroke-dasharray="" d="  M94.7,277.94 L224.67,208.09" style="stroke: rgb(0, 0, 0); stroke-width: 1; fill: none; fill-opacity: 1; stroke-opacity: 0.15;"/></g><g/></g><g/><g/><g/></svg>
        <svg xmlns="http://www.w3.org/2000/svg" xmlns:xlink="http://www.w3.org/1999/xlink" width="660" height="392" style="width:660px;height:392px;font-family:LatinModern-Math, LatinModern, Asana-Math, Asana;background:#FFF;"><g><g><g><g transform="matrix(1,0,0,1,249,52.5)"><path transform="matrix(0.017,0,0,-0.017,0,0)" d="M430 107C430 113 424 120 418 120C413 120 411 118 405 110C326 11 217 11 205 11C127 11 118 95 118 127C118 139 119 170 134 231L187 231C216 231 290 233 340 254C410 284 415 343 415 357C415 401 377 442 308 442C197 442 46 345 46 170C46 68 105 -11 203 -11C346 -11 430 95 430 107ZM382 357C382 253 222 253 181 253L140 253C179 405 282 420 308 420C355 420 382 391 382 357Z" stroke="rgb(0,0,0)" stroke-opacity="1" stroke-width="8" fill="rgb(0,0,0)" fill-opacity="1"></path></g></g><g><g><g><g><g transform="matrix(1,0,0,1,257.4375,56.0015625)"><path transform="matrix(0.0119,0,0,-0.0119,0,0)" d="M419 0L419 31L387 31C297 31 294 42 294 79L294 640C294 664 294 666 271 666C209 602 121 602 89 602L89 571C109 571 168 571 220 597L220 79C220 43 217 31 127 31L95 31L95 0C130 3 217 3 257 3C297 3 384 3 419 0Z" stroke="rgb(0,0,0)" stroke-opacity="1" stroke-width="8" fill="rgb(0,0,0)" fill-opacity="1"></path></g></g></g></g></g></g></g><g><g><g><g transform="matrix(1,0,0,1,250.4375,213.2265625)"><path transform="matrix(0.017,0,0,-0.017,0,0)" d="M430 107C430 113 424 120 418 120C413 120 411 118 405 110C326 11 217 11 205 11C127 11 118 95 118 127C118 139 119 170 134 231L187 231C216 231 290 233 340 254C410 284 415 343 415 357C415 401 377 442 308 442C197 442 46 345 46 170C46 68 105 -11 203 -11C346 -11 430 95 430 107ZM382 357C382 253 222 253 181 253L140 253C179 405 282 420 308 420C355 420 382 391 382 357Z" stroke="rgb(0,0,0)" stroke-opacity="1" stroke-width="8" fill="rgb(0,0,0)" fill-opacity="1"></path></g></g><g><g><g><g><g transform="matrix(1,0,0,1,258.875,216.728125)"><path transform="matrix(0.0119,0,0,-0.0119,0,0)" d="M449 174L424 174C419 144 412 100 402 85C395 77 329 77 307 77L127 77L233 180C389 318 449 372 449 472C449 586 359 666 237 666C124 666 50 574 50 485C50 429 100 429 103 429C120 429 155 441 155 482C155 508 137 534 102 534C94 534 92 534 89 533C112 598 166 635 224 635C315 635 358 554 358 472C358 392 308 313 253 251L61 37C50 26 50 24 50 0L421 0Z" stroke="rgb(0,0,0)" stroke-opacity="1" stroke-width="8" fill="rgb(0,0,0)" fill-opacity="1"></path></g></g></g></g></g></g></g><g><g><g><g transform="matrix(1,0,0,1,254.9921875,350.234375)"><path transform="matrix(0.017,0,0,-0.017,0,0)" d="M430 107C430 113 424 120 418 120C413 120 411 118 405 110C326 11 217 11 205 11C127 11 118 95 118 127C118 139 119 170 134 231L187 231C216 231 290 233 340 254C410 284 415 343 415 357C415 401 377 442 308 442C197 442 46 345 46 170C46 68 105 -11 203 -11C346 -11 430 95 430 107ZM382 357C382 253 222 253 181 253L140 253C179 405 282 420 308 420C355 420 382 391 382 357Z" stroke="rgb(0,0,0)" stroke-opacity="1" stroke-width="8" fill="rgb(0,0,0)" fill-opacity="1"></path></g></g><g><g><g><g><g transform="matrix(1,0,0,1,263.4296875,353.7359375)"><path transform="matrix(0.0119,0,0,-0.0119,0,0)" d="M457 171C457 253 394 331 290 352C372 379 430 449 430 528C430 610 342 666 246 666C145 666 69 606 69 530C69 497 91 478 120 478C151 478 171 500 171 529C171 579 124 579 109 579C140 628 206 641 242 641C283 641 338 619 338 529C338 517 336 459 310 415C280 367 246 364 221 363C213 362 189 360 182 360C174 359 167 358 167 348C167 337 174 337 191 337L235 337C317 337 354 269 354 171C354 35 285 6 241 6C198 6 123 23 88 82C123 77 154 99 154 137C154 173 127 193 98 193C74 193 42 179 42 135C42 44 135 -22 244 -22C366 -22 457 69 457 171Z" stroke="rgb(0,0,0)" stroke-opacity="1" stroke-width="8" fill="rgb(0,0,0)" fill-opacity="1"></path></g></g></g></g></g></g></g><g><g><g><g transform="matrix(1,0,0,1,51.921875,147.375)"><path transform="matrix(0.017,0,0,-0.017,0,0)" d="M527 376C527 428 468 442 434 442C376 442 341 389 329 366C304 432 250 442 221 442C117 442 60 313 60 288C60 278 72 278 72 278C80 278 83 280 85 289C119 395 185 420 219 420C238 420 273 411 273 353C273 322 256 255 219 115C203 53 168 11 124 11C118 11 95 11 74 24C99 29 121 50 121 78C121 105 99 113 84 113C54 113 29 87 29 55C29 9 79 -11 123 -11C189 -11 225 59 228 65C240 28 276 -11 336 -11C439 -11 496 118 496 143C496 153 487 153 484 153C475 153 473 149 471 142C438 35 370 11 338 11C299 11 283 43 283 77C283 99 289 121 300 165L334 302C340 328 363 420 433 420C438 420 462 420 483 407C455 402 435 377 435 353C435 337 446 318 473 318C495 318 527 336 527 376Z" stroke="rgb(0,0,0)" stroke-opacity="1" stroke-width="8" fill="rgb(0,0,0)" fill-opacity="1"></path></g></g><g><g><g><g><g transform="matrix(1,0,0,1,62.15625,150.8765625)"><path transform="matrix(0.0119,0,0,-0.0119,0,0)" d="M419 0L419 31L387 31C297 31 294 42 294 79L294 640C294 664 294 666 271 666C209 602 121 602 89 602L89 571C109 571 168 571 220 597L220 79C220 43 217 31 127 31L95 31L95 0C130 3 217 3 257 3C297 3 384 3 419 0Z" stroke="rgb(0,0,0)" stroke-opacity="1" stroke-width="8" fill="rgb(0,0,0)" fill-opacity="1"></path></g></g></g></g></g></g></g><g><g><g><g transform="matrix(1,0,0,1,54.03125,280.96875)"><path transform="matrix(0.017,0,0,-0.017,0,0)" d="M527 376C527 428 468 442 434 442C376 442 341 389 329 366C304 432 250 442 221 442C117 442 60 313 60 288C60 278 72 278 72 278C80 278 83 280 85 289C119 395 185 420 219 420C238 420 273 411 273 353C273 322 256 255 219 115C203 53 168 11 124 11C118 11 95 11 74 24C99 29 121 50 121 78C121 105 99 113 84 113C54 113 29 87 29 55C29 9 79 -11 123 -11C189 -11 225 59 228 65C240 28 276 -11 336 -11C439 -11 496 118 496 143C496 153 487 153 484 153C475 153 473 149 471 142C438 35 370 11 338 11C299 11 283 43 283 77C283 99 289 121 300 165L334 302C340 328 363 420 433 420C438 420 462 420 483 407C455 402 435 377 435 353C435 337 446 318 473 318C495 318 527 336 527 376Z" stroke="rgb(0,0,0)" stroke-opacity="1" stroke-width="8" fill="rgb(0,0,0)" fill-opacity="1"></path></g></g><g><g><g><g><g transform="matrix(1,0,0,1,64.265625,284.4703125)"><path transform="matrix(0.0119,0,0,-0.0119,0,0)" d="M449 174L424 174C419 144 412 100 402 85C395 77 329 77 307 77L127 77L233 180C389 318 449 372 449 472C449 586 359 666 237 666C124 666 50 574 50 485C50 429 100 429 103 429C120 429 155 441 155 482C155 508 137 534 102 534C94 534 92 534 89 533C112 598 166 635 224 635C315 635 358 554 358 472C358 392 308 313 253 251L61 37C50 26 50 24 50 0L421 0Z" stroke="rgb(0,0,0)" stroke-opacity="1" stroke-width="8" fill="rgb(0,0,0)" fill-opacity="1"></path></g></g></g></g></g></g></g><g><g><g><g transform="matrix(1,0,0,1,408,182.5)"><path transform="matrix(0.017,0,0,-0.017,0,0)" d="M763 653C766 680 761 680 736 680L231 680C211 680 201 680 201 660C201 649 210 649 229 649C266 649 294 649 294 631C294 627 294 625 289 607L157 78C147 39 145 31 66 31C49 31 38 31 38 12C38 0 47 0 66 0L585 0C608 0 609 1 616 17L708 233C710 238 713 247 713 247C713 247 713 258 701 258C692 258 690 252 688 246C623 98 586 31 415 31L269 31C255 31 253 31 247 32C237 33 234 34 234 42C234 45 234 47 239 65L307 338L406 338C491 338 491 317 491 292C491 285 491 273 484 243C482 238 481 235 481 232C481 227 485 221 494 221C502 221 505 226 509 241L566 475C566 481 561 486 554 486C545 486 543 480 540 468C519 392 501 369 409 369L315 369L375 610C384 645 385 649 429 649L570 649C692 649 722 620 722 538C722 514 722 512 718 485C718 479 717 472 717 467C717 462 720 455 729 455C740 455 741 461 743 480Z" stroke="rgb(0,0,0)" stroke-opacity="1" stroke-width="8" fill="rgb(0,0,0)" fill-opacity="1"></path></g></g></g></g><g><g><g><g><g><g><g transform="matrix(1,0,0,1,350.0859375,94.675)"><path transform="matrix(0.015300000000000001,0,0,-0.015300000000000001,0,0)" d="M515 457C475 616 357 716 234 716C89 716 76 586 83 558C86 544 99 523 129 523C162 523 176 553 170 576C161 611 130 611 114 611C140 685 209 691 238 691C311 691 394 639 427 510C436 471 443 420 441 339C416 401 361 457 283 457C222 457 161 441 102 363C40 280 56 187 64 156C80 94 152 -22 292 -22C530 -22 551 314 515 457ZM432 303C450 231 443 6 289 6C179 6 153 109 150 119C144 146 134 286 160 346C185 403 226 435 288 435C397 435 427 323 432 303ZM1349 653C1352 680 1347 680 1322 680L817 680C797 680 787 680 787 660C787 649 796 649 815 649C852 649 880 649 880 631C880 627 880 625 875 607L743 78C733 39 731 31 652 31C635 31 624 31 624 12C624 0 633 0 652 0L1171 0C1194 0 1195 1 1202 17L1294 233C1296 238 1299 247 1299 247C1299 247 1299 258 1287 258C1278 258 1276 252 1274 246C1209 98 1172 31 1001 31L855 31C841 31 839 31 833 32C823 33 820 34 820 42C820 45 820 47 825 65L893 338L992 338C1077 338 1077 317 1077 292C1077 285 1077 273 1070 243C1068 238 1067 235 1067 232C1067 227 1071 221 1080 221C1088 221 1091 226 1095 241L1152 475C1152 481 1147 486 1140 486C1131 486 1129 480 1126 468C1105 392 1087 369 995 369L901 369L961 610C970 645 971 649 1015 649L1156 649C1278 649 1308 620 1308 538C1308 514 1308 512 1304 485C1304 479 1303 472 1303 467C1303 462 1306 455 1315 455C1326 455 1327 461 1329 480Z" stroke="rgb(0,0,0)" stroke-opacity="1" stroke-width="8" fill="rgb(0,0,0)" fill-opacity="1"></path></g></g></g></g><g><g><g><g transform="matrix(1,0,0,1,348.8125,117.378125)"><path transform="matrix(0.015300000000000001,0,0,-0.015300000000000001,0,0)" d="M515 457C475 616 357 716 234 716C89 716 76 586 83 558C86 544 99 523 129 523C162 523 176 553 170 576C161 611 130 611 114 611C140 685 209 691 238 691C311 691 394 639 427 510C436 471 443 420 441 339C416 401 361 457 283 457C222 457 161 441 102 363C40 280 56 187 64 156C80 94 152 -22 292 -22C530 -22 551 314 515 457ZM432 303C450 231 443 6 289 6C179 6 153 109 150 119C144 146 134 286 160 346C185 403 226 435 288 435C397 435 427 323 432 303ZM1016 107C1016 113 1010 120 1004 120C999 120 997 118 991 110C912 11 803 11 791 11C713 11 704 95 704 127C704 139 705 170 720 231L773 231C802 231 876 233 926 254C996 284 1001 343 1001 357C1001 401 963 442 894 442C783 442 632 345 632 170C632 68 691 -11 789 -11C932 -11 1016 95 1016 107ZM968 357C968 253 808 253 767 253L726 253C765 405 868 420 894 420C941 420 968 391 968 357Z" stroke="rgb(0,0,0)" stroke-opacity="1" stroke-width="8" fill="rgb(0,0,0)" fill-opacity="1"></path></g></g><g><g><g><g><g transform="matrix(1,0,0,1,365.359375,120.57718750000001)"><path transform="matrix(0.01071,0,0,-0.01071,0,0)" d="M419 0L419 31L387 31C297 31 294 42 294 79L294 640C294 664 294 666 271 666C209 602 121 602 89 602L89 571C109 571 168 571 220 597L220 79C220 43 217 31 127 31L95 31L95 0C130 3 217 3 257 3C297 3 384 3 419 0Z" stroke="rgb(0,0,0)" stroke-opacity="1" stroke-width="8" fill="rgb(0,0,0)" fill-opacity="1"></path></g></g></g></g></g></g></g><line style="fill:none;stroke-width:1px;stroke:rgb(0, 0, 0);" x1="348.8125" y1="101.40625" x2="371.625" y2="101.40625"></line></g></g></g><g><g><g><g><g><g><g transform="matrix(1,0,0,1,307.7421875,166.8390625)"><path transform="matrix(0.015300000000000001,0,0,-0.015300000000000001,0,0)" d="M515 457C475 616 357 716 234 716C89 716 76 586 83 558C86 544 99 523 129 523C162 523 176 553 170 576C161 611 130 611 114 611C140 685 209 691 238 691C311 691 394 639 427 510C436 471 443 420 441 339C416 401 361 457 283 457C222 457 161 441 102 363C40 280 56 187 64 156C80 94 152 -22 292 -22C530 -22 551 314 515 457ZM432 303C450 231 443 6 289 6C179 6 153 109 150 119C144 146 134 286 160 346C185 403 226 435 288 435C397 435 427 323 432 303ZM1349 653C1352 680 1347 680 1322 680L817 680C797 680 787 680 787 660C787 649 796 649 815 649C852 649 880 649 880 631C880 627 880 625 875 607L743 78C733 39 731 31 652 31C635 31 624 31 624 12C624 0 633 0 652 0L1171 0C1194 0 1195 1 1202 17L1294 233C1296 238 1299 247 1299 247C1299 247 1299 258 1287 258C1278 258 1276 252 1274 246C1209 98 1172 31 1001 31L855 31C841 31 839 31 833 32C823 33 820 34 820 42C820 45 820 47 825 65L893 338L992 338C1077 338 1077 317 1077 292C1077 285 1077 273 1070 243C1068 238 1067 235 1067 232C1067 227 1071 221 1080 221C1088 221 1091 226 1095 241L1152 475C1152 481 1147 486 1140 486C1131 486 1129 480 1126 468C1105 392 1087 369 995 369L901 369L961 610C970 645 971 649 1015 649L1156 649C1278 649 1308 620 1308 538C1308 514 1308 512 1304 485C1304 479 1303 472 1303 467C1303 462 1306 455 1315 455C1326 455 1327 461 1329 480Z" stroke="rgb(0,0,0)" stroke-opacity="1" stroke-width="8" fill="rgb(0,0,0)" fill-opacity="1"></path></g></g></g></g><g><g><g><g transform="matrix(1,0,0,1,306.46875,189.5421875)"><path transform="matrix(0.015300000000000001,0,0,-0.015300000000000001,0,0)" d="M515 457C475 616 357 716 234 716C89 716 76 586 83 558C86 544 99 523 129 523C162 523 176 553 170 576C161 611 130 611 114 611C140 685 209 691 238 691C311 691 394 639 427 510C436 471 443 420 441 339C416 401 361 457 283 457C222 457 161 441 102 363C40 280 56 187 64 156C80 94 152 -22 292 -22C530 -22 551 314 515 457ZM432 303C450 231 443 6 289 6C179 6 153 109 150 119C144 146 134 286 160 346C185 403 226 435 288 435C397 435 427 323 432 303ZM1016 107C1016 113 1010 120 1004 120C999 120 997 118 991 110C912 11 803 11 791 11C713 11 704 95 704 127C704 139 705 170 720 231L773 231C802 231 876 233 926 254C996 284 1001 343 1001 357C1001 401 963 442 894 442C783 442 632 345 632 170C632 68 691 -11 789 -11C932 -11 1016 95 1016 107ZM968 357C968 253 808 253 767 253L726 253C765 405 868 420 894 420C941 420 968 391 968 357Z" stroke="rgb(0,0,0)" stroke-opacity="1" stroke-width="8" fill="rgb(0,0,0)" fill-opacity="1"></path></g></g><g><g><g><g><g transform="matrix(1,0,0,1,323.015625,192.74125)"><path transform="matrix(0.01071,0,0,-0.01071,0,0)" d="M449 174L424 174C419 144 412 100 402 85C395 77 329 77 307 77L127 77L233 180C389 318 449 372 449 472C449 586 359 666 237 666C124 666 50 574 50 485C50 429 100 429 103 429C120 429 155 441 155 482C155 508 137 534 102 534C94 534 92 534 89 533C112 598 166 635 224 635C315 635 358 554 358 472C358 392 308 313 253 251L61 37C50 26 50 24 50 0L421 0Z" stroke="rgb(0,0,0)" stroke-opacity="1" stroke-width="8" fill="rgb(0,0,0)" fill-opacity="1"></path></g></g></g></g></g></g></g><line style="fill:none;stroke-width:1px;stroke:rgb(0, 0, 0);" x1="306.46875" y1="173.5703125" x2="329.28125" y2="173.5703125"></line></g></g></g><g><g><g><g><g><g><g transform="matrix(1,0,0,1,344.3984375,279.221875)"><path transform="matrix(0.015300000000000001,0,0,-0.015300000000000001,0,0)" d="M515 457C475 616 357 716 234 716C89 716 76 586 83 558C86 544 99 523 129 523C162 523 176 553 170 576C161 611 130 611 114 611C140 685 209 691 238 691C311 691 394 639 427 510C436 471 443 420 441 339C416 401 361 457 283 457C222 457 161 441 102 363C40 280 56 187 64 156C80 94 152 -22 292 -22C530 -22 551 314 515 457ZM432 303C450 231 443 6 289 6C179 6 153 109 150 119C144 146 134 286 160 346C185 403 226 435 288 435C397 435 427 323 432 303ZM1349 653C1352 680 1347 680 1322 680L817 680C797 680 787 680 787 660C787 649 796 649 815 649C852 649 880 649 880 631C880 627 880 625 875 607L743 78C733 39 731 31 652 31C635 31 624 31 624 12C624 0 633 0 652 0L1171 0C1194 0 1195 1 1202 17L1294 233C1296 238 1299 247 1299 247C1299 247 1299 258 1287 258C1278 258 1276 252 1274 246C1209 98 1172 31 1001 31L855 31C841 31 839 31 833 32C823 33 820 34 820 42C820 45 820 47 825 65L893 338L992 338C1077 338 1077 317 1077 292C1077 285 1077 273 1070 243C1068 238 1067 235 1067 232C1067 227 1071 221 1080 221C1088 221 1091 226 1095 241L1152 475C1152 481 1147 486 1140 486C1131 486 1129 480 1126 468C1105 392 1087 369 995 369L901 369L961 610C970 645 971 649 1015 649L1156 649C1278 649 1308 620 1308 538C1308 514 1308 512 1304 485C1304 479 1303 472 1303 467C1303 462 1306 455 1315 455C1326 455 1327 461 1329 480Z" stroke="rgb(0,0,0)" stroke-opacity="1" stroke-width="8" fill="rgb(0,0,0)" fill-opacity="1"></path></g></g></g></g><g><g><g><g transform="matrix(1,0,0,1,343.125,301.925)"><path transform="matrix(0.015300000000000001,0,0,-0.015300000000000001,0,0)" d="M515 457C475 616 357 716 234 716C89 716 76 586 83 558C86 544 99 523 129 523C162 523 176 553 170 576C161 611 130 611 114 611C140 685 209 691 238 691C311 691 394 639 427 510C436 471 443 420 441 339C416 401 361 457 283 457C222 457 161 441 102 363C40 280 56 187 64 156C80 94 152 -22 292 -22C530 -22 551 314 515 457ZM432 303C450 231 443 6 289 6C179 6 153 109 150 119C144 146 134 286 160 346C185 403 226 435 288 435C397 435 427 323 432 303ZM1016 107C1016 113 1010 120 1004 120C999 120 997 118 991 110C912 11 803 11 791 11C713 11 704 95 704 127C704 139 705 170 720 231L773 231C802 231 876 233 926 254C996 284 1001 343 1001 357C1001 401 963 442 894 442C783 442 632 345 632 170C632 68 691 -11 789 -11C932 -11 1016 95 1016 107ZM968 357C968 253 808 253 767 253L726 253C765 405 868 420 894 420C941 420 968 391 968 357Z" stroke="rgb(0,0,0)" stroke-opacity="1" stroke-width="8" fill="rgb(0,0,0)" fill-opacity="1"></path></g></g><g><g><g><g><g transform="matrix(1,0,0,1,359.671875,305.1240625)"><path transform="matrix(0.01071,0,0,-0.01071,0,0)" d="M457 171C457 253 394 331 290 352C372 379 430 449 430 528C430 610 342 666 246 666C145 666 69 606 69 530C69 497 91 478 120 478C151 478 171 500 171 529C171 579 124 579 109 579C140 628 206 641 242 641C283 641 338 619 338 529C338 517 336 459 310 415C280 367 246 364 221 363C213 362 189 360 182 360C174 359 167 358 167 348C167 337 174 337 191 337L235 337C317 337 354 269 354 171C354 35 285 6 241 6C198 6 123 23 88 82C123 77 154 99 154 137C154 173 127 193 98 193C74 193 42 179 42 135C42 44 135 -22 244 -22C366 -22 457 69 457 171Z" stroke="rgb(0,0,0)" stroke-opacity="1" stroke-width="8" fill="rgb(0,0,0)" fill-opacity="1"></path></g></g></g></g></g></g></g><line style="fill:none;stroke-width:1px;stroke:rgb(0, 0, 0);" x1="343.125" y1="285.953125" x2="365.9375" y2="285.953125"></line></g></g></g><g><g><g><g><g><g><g transform="matrix(1,0,0,1,125.3515625,69.83125)"><path transform="matrix(0.015300000000000001,0,0,-0.015300000000000001,0,0)" d="M515 457C475 616 357 716 234 716C89 716 76 586 83 558C86 544 99 523 129 523C162 523 176 553 170 576C161 611 130 611 114 611C140 685 209 691 238 691C311 691 394 639 427 510C436 471 443 420 441 339C416 401 361 457 283 457C222 457 161 441 102 363C40 280 56 187 64 156C80 94 152 -22 292 -22C530 -22 551 314 515 457ZM432 303C450 231 443 6 289 6C179 6 153 109 150 119C144 146 134 286 160 346C185 403 226 435 288 435C397 435 427 323 432 303ZM1016 107C1016 113 1010 120 1004 120C999 120 997 118 991 110C912 11 803 11 791 11C713 11 704 95 704 127C704 139 705 170 720 231L773 231C802 231 876 233 926 254C996 284 1001 343 1001 357C1001 401 963 442 894 442C783 442 632 345 632 170C632 68 691 -11 789 -11C932 -11 1016 95 1016 107ZM968 357C968 253 808 253 767 253L726 253C765 405 868 420 894 420C941 420 968 391 968 357Z" stroke="rgb(0,0,0)" stroke-opacity="1" stroke-width="8" fill="rgb(0,0,0)" fill-opacity="1"></path></g></g><g><g><g><g><g transform="matrix(1,0,0,1,141.8984375,73.03031250000001)"><path transform="matrix(0.01071,0,0,-0.01071,0,0)" d="M419 0L419 31L387 31C297 31 294 42 294 79L294 640C294 664 294 666 271 666C209 602 121 602 89 602L89 571C109 571 168 571 220 597L220 79C220 43 217 31 127 31L95 31L95 0C130 3 217 3 257 3C297 3 384 3 419 0Z" stroke="rgb(0,0,0)" stroke-opacity="1" stroke-width="8" fill="rgb(0,0,0)" fill-opacity="1"></path></g></g></g></g></g></g></g><g><g><g><g transform="matrix(1,0,0,1,124.5390625,94.3234375)"><path transform="matrix(0.015300000000000001,0,0,-0.015300000000000001,0,0)" d="M515 457C475 616 357 716 234 716C89 716 76 586 83 558C86 544 99 523 129 523C162 523 176 553 170 576C161 611 130 611 114 611C140 685 209 691 238 691C311 691 394 639 427 510C436 471 443 420 441 339C416 401 361 457 283 457C222 457 161 441 102 363C40 280 56 187 64 156C80 94 152 -22 292 -22C530 -22 551 314 515 457ZM432 303C450 231 443 6 289 6C179 6 153 109 150 119C144 146 134 286 160 346C185 403 226 435 288 435C397 435 427 323 432 303ZM1113 376C1113 428 1054 442 1020 442C962 442 927 389 915 366C890 432 836 442 807 442C703 442 646 313 646 288C646 278 658 278 658 278C666 278 669 280 671 289C705 395 771 420 805 420C824 420 859 411 859 353C859 322 842 255 805 115C789 53 754 11 710 11C704 11 681 11 660 24C685 29 707 50 707 78C707 105 685 113 670 113C640 113 615 87 615 55C615 9 665 -11 709 -11C775 -11 811 59 814 65C826 28 862 -11 922 -11C1025 -11 1082 118 1082 143C1082 153 1073 153 1070 153C1061 153 1059 149 1057 142C1024 35 956 11 924 11C885 11 869 43 869 77C869 99 875 121 886 165L920 302C926 328 949 420 1019 420C1024 420 1048 420 1069 407C1041 402 1021 377 1021 353C1021 337 1032 318 1059 318C1081 318 1113 336 1113 376Z" stroke="rgb(0,0,0)" stroke-opacity="1" stroke-width="8" fill="rgb(0,0,0)" fill-opacity="1"></path></g></g><g><g><g><g><g transform="matrix(1,0,0,1,142.7109375,97.52250000000001)"><path transform="matrix(0.01071,0,0,-0.01071,0,0)" d="M419 0L419 31L387 31C297 31 294 42 294 79L294 640C294 664 294 666 271 666C209 602 121 602 89 602L89 571C109 571 168 571 220 597L220 79C220 43 217 31 127 31L95 31L95 0C130 3 217 3 257 3C297 3 384 3 419 0Z" stroke="rgb(0,0,0)" stroke-opacity="1" stroke-width="8" fill="rgb(0,0,0)" fill-opacity="1"></path></g></g></g></g></g></g></g><line style="fill:none;stroke-width:1px;stroke:rgb(0, 0, 0);" x1="124.5390625" y1="78.3515625" x2="148.9765625" y2="78.3515625"></line></g></g></g><g><g><g><g><g><g><g transform="matrix(1,0,0,1,187.5859375,163.1828125)"><path transform="matrix(0.015300000000000001,0,0,-0.015300000000000001,0,0)" d="M515 457C475 616 357 716 234 716C89 716 76 586 83 558C86 544 99 523 129 523C162 523 176 553 170 576C161 611 130 611 114 611C140 685 209 691 238 691C311 691 394 639 427 510C436 471 443 420 441 339C416 401 361 457 283 457C222 457 161 441 102 363C40 280 56 187 64 156C80 94 152 -22 292 -22C530 -22 551 314 515 457ZM432 303C450 231 443 6 289 6C179 6 153 109 150 119C144 146 134 286 160 346C185 403 226 435 288 435C397 435 427 323 432 303ZM1016 107C1016 113 1010 120 1004 120C999 120 997 118 991 110C912 11 803 11 791 11C713 11 704 95 704 127C704 139 705 170 720 231L773 231C802 231 876 233 926 254C996 284 1001 343 1001 357C1001 401 963 442 894 442C783 442 632 345 632 170C632 68 691 -11 789 -11C932 -11 1016 95 1016 107ZM968 357C968 253 808 253 767 253L726 253C765 405 868 420 894 420C941 420 968 391 968 357Z" stroke="rgb(0,0,0)" stroke-opacity="1" stroke-width="8" fill="rgb(0,0,0)" fill-opacity="1"></path></g></g><g><g><g><g><g transform="matrix(1,0,0,1,204.1328125,166.381875)"><path transform="matrix(0.01071,0,0,-0.01071,0,0)" d="M449 174L424 174C419 144 412 100 402 85C395 77 329 77 307 77L127 77L233 180C389 318 449 372 449 472C449 586 359 666 237 666C124 666 50 574 50 485C50 429 100 429 103 429C120 429 155 441 155 482C155 508 137 534 102 534C94 534 92 534 89 533C112 598 166 635 224 635C315 635 358 554 358 472C358 392 308 313 253 251L61 37C50 26 50 24 50 0L421 0Z" stroke="rgb(0,0,0)" stroke-opacity="1" stroke-width="8" fill="rgb(0,0,0)" fill-opacity="1"></path></g></g></g></g></g></g></g><g><g><g><g transform="matrix(1,0,0,1,186.7734375,187.675)"><path transform="matrix(0.015300000000000001,0,0,-0.015300000000000001,0,0)" d="M515 457C475 616 357 716 234 716C89 716 76 586 83 558C86 544 99 523 129 523C162 523 176 553 170 576C161 611 130 611 114 611C140 685 209 691 238 691C311 691 394 639 427 510C436 471 443 420 441 339C416 401 361 457 283 457C222 457 161 441 102 363C40 280 56 187 64 156C80 94 152 -22 292 -22C530 -22 551 314 515 457ZM432 303C450 231 443 6 289 6C179 6 153 109 150 119C144 146 134 286 160 346C185 403 226 435 288 435C397 435 427 323 432 303ZM1113 376C1113 428 1054 442 1020 442C962 442 927 389 915 366C890 432 836 442 807 442C703 442 646 313 646 288C646 278 658 278 658 278C666 278 669 280 671 289C705 395 771 420 805 420C824 420 859 411 859 353C859 322 842 255 805 115C789 53 754 11 710 11C704 11 681 11 660 24C685 29 707 50 707 78C707 105 685 113 670 113C640 113 615 87 615 55C615 9 665 -11 709 -11C775 -11 811 59 814 65C826 28 862 -11 922 -11C1025 -11 1082 118 1082 143C1082 153 1073 153 1070 153C1061 153 1059 149 1057 142C1024 35 956 11 924 11C885 11 869 43 869 77C869 99 875 121 886 165L920 302C926 328 949 420 1019 420C1024 420 1048 420 1069 407C1041 402 1021 377 1021 353C1021 337 1032 318 1059 318C1081 318 1113 336 1113 376Z" stroke="rgb(0,0,0)" stroke-opacity="1" stroke-width="8" fill="rgb(0,0,0)" fill-opacity="1"></path></g></g><g><g><g><g><g transform="matrix(1,0,0,1,204.9453125,190.8740625)"><path transform="matrix(0.01071,0,0,-0.01071,0,0)" d="M419 0L419 31L387 31C297 31 294 42 294 79L294 640C294 664 294 666 271 666C209 602 121 602 89 602L89 571C109 571 168 571 220 597L220 79C220 43 217 31 127 31L95 31L95 0C130 3 217 3 257 3C297 3 384 3 419 0Z" stroke="rgb(0,0,0)" stroke-opacity="1" stroke-width="8" fill="rgb(0,0,0)" fill-opacity="1"></path></g></g></g></g></g></g></g><line style="fill:none;stroke-width:1px;stroke:rgb(0, 0, 0);" x1="186.7734375" y1="171.703125" x2="211.2109375" y2="171.703125"></line></g></g></g><g><g><g><g><g><g><g transform="matrix(1,0,0,1,158.15625,290.0265625)"><path transform="matrix(0.015300000000000001,0,0,-0.015300000000000001,0,0)" d="M515 457C475 616 357 716 234 716C89 716 76 586 83 558C86 544 99 523 129 523C162 523 176 553 170 576C161 611 130 611 114 611C140 685 209 691 238 691C311 691 394 639 427 510C436 471 443 420 441 339C416 401 361 457 283 457C222 457 161 441 102 363C40 280 56 187 64 156C80 94 152 -22 292 -22C530 -22 551 314 515 457ZM432 303C450 231 443 6 289 6C179 6 153 109 150 119C144 146 134 286 160 346C185 403 226 435 288 435C397 435 427 323 432 303ZM1016 107C1016 113 1010 120 1004 120C999 120 997 118 991 110C912 11 803 11 791 11C713 11 704 95 704 127C704 139 705 170 720 231L773 231C802 231 876 233 926 254C996 284 1001 343 1001 357C1001 401 963 442 894 442C783 442 632 345 632 170C632 68 691 -11 789 -11C932 -11 1016 95 1016 107ZM968 357C968 253 808 253 767 253L726 253C765 405 868 420 894 420C941 420 968 391 968 357Z" stroke="rgb(0,0,0)" stroke-opacity="1" stroke-width="8" fill="rgb(0,0,0)" fill-opacity="1"></path></g></g><g><g><g><g><g transform="matrix(1,0,0,1,174.703125,293.225625)"><path transform="matrix(0.01071,0,0,-0.01071,0,0)" d="M457 171C457 253 394 331 290 352C372 379 430 449 430 528C430 610 342 666 246 666C145 666 69 606 69 530C69 497 91 478 120 478C151 478 171 500 171 529C171 579 124 579 109 579C140 628 206 641 242 641C283 641 338 619 338 529C338 517 336 459 310 415C280 367 246 364 221 363C213 362 189 360 182 360C174 359 167 358 167 348C167 337 174 337 191 337L235 337C317 337 354 269 354 171C354 35 285 6 241 6C198 6 123 23 88 82C123 77 154 99 154 137C154 173 127 193 98 193C74 193 42 179 42 135C42 44 135 -22 244 -22C366 -22 457 69 457 171Z" stroke="rgb(0,0,0)" stroke-opacity="1" stroke-width="8" fill="rgb(0,0,0)" fill-opacity="1"></path></g></g></g></g></g></g></g><g><g><g><g transform="matrix(1,0,0,1,157.34375,314.51875)"><path transform="matrix(0.015300000000000001,0,0,-0.015300000000000001,0,0)" d="M515 457C475 616 357 716 234 716C89 716 76 586 83 558C86 544 99 523 129 523C162 523 176 553 170 576C161 611 130 611 114 611C140 685 209 691 238 691C311 691 394 639 427 510C436 471 443 420 441 339C416 401 361 457 283 457C222 457 161 441 102 363C40 280 56 187 64 156C80 94 152 -22 292 -22C530 -22 551 314 515 457ZM432 303C450 231 443 6 289 6C179 6 153 109 150 119C144 146 134 286 160 346C185 403 226 435 288 435C397 435 427 323 432 303ZM1113 376C1113 428 1054 442 1020 442C962 442 927 389 915 366C890 432 836 442 807 442C703 442 646 313 646 288C646 278 658 278 658 278C666 278 669 280 671 289C705 395 771 420 805 420C824 420 859 411 859 353C859 322 842 255 805 115C789 53 754 11 710 11C704 11 681 11 660 24C685 29 707 50 707 78C707 105 685 113 670 113C640 113 615 87 615 55C615 9 665 -11 709 -11C775 -11 811 59 814 65C826 28 862 -11 922 -11C1025 -11 1082 118 1082 143C1082 153 1073 153 1070 153C1061 153 1059 149 1057 142C1024 35 956 11 924 11C885 11 869 43 869 77C869 99 875 121 886 165L920 302C926 328 949 420 1019 420C1024 420 1048 420 1069 407C1041 402 1021 377 1021 353C1021 337 1032 318 1059 318C1081 318 1113 336 1113 376Z" stroke="rgb(0,0,0)" stroke-opacity="1" stroke-width="8" fill="rgb(0,0,0)" fill-opacity="1"></path></g></g><g><g><g><g><g transform="matrix(1,0,0,1,175.515625,317.7178125)"><path transform="matrix(0.01071,0,0,-0.01071,0,0)" d="M419 0L419 31L387 31C297 31 294 42 294 79L294 640C294 664 294 666 271 666C209 602 121 602 89 602L89 571C109 571 168 571 220 597L220 79C220 43 217 31 127 31L95 31L95 0C130 3 217 3 257 3C297 3 384 3 419 0Z" stroke="rgb(0,0,0)" stroke-opacity="1" stroke-width="8" fill="rgb(0,0,0)" fill-opacity="1"></path></g></g></g></g></g></g></g><line style="fill:none;stroke-width:1px;stroke:rgb(0, 0, 0);" x1="157.34375" y1="298.546875" x2="181.78125" y2="298.546875"></line></g></g></g></svg>
</svg>
